<svg width="292" height="244" viewBox="0 0 292 244" fill="none" xmlns="http://www.w3.org/2000/svg">
<g filter="url(#filter0_dd_1_3146)">
<rect x="6" y="6" width="272" height="224" rx="20" fill="#F5F5F5"/>
<rect x="8.5" y="8.5" width="267" height="219" rx="17.5" stroke="url(#paint0_linear_1_3146)" stroke-width="5"/>
</g>
<path d="M210.884 53.8844C209.9 52.5719 208.325 51.7406 206.553 51.7406H77.4469C74.45 51.7406 72 54.1906 72 57.1875V151.206C72 154.203 74.45 156.653 77.4469 156.653H129.553V168.028C121.656 168.597 115.4 175.159 115.4 183.188C115.4 183.8 115.881 184.259 116.472 184.259H168.162C168.753 184.259 169.234 183.778 169.234 183.188C169.234 175.159 162.956 168.575 155.081 168.028V156.653H206.531C208.303 156.653 209.878 155.822 210.862 154.509C211.562 153.613 211.978 152.453 211.978 151.206V57.1875C212 55.9625 211.584 54.825 210.884 53.8844ZM74.1438 57.1875C74.1438 55.3719 75.6313 53.8844 77.4469 53.8844H206.553C208.391 53.8844 209.856 55.3719 209.856 57.1875V137.272H74.1438V57.1875ZM167.047 182.116H117.588C118.134 175.422 123.778 170.128 130.625 170.128H154.009C160.878 170.106 166.5 175.4 167.047 182.116ZM131.697 167.963V156.653H152.938V167.963H131.697ZM209.856 151.206C209.856 153.022 208.391 154.509 206.553 154.509H77.4469C75.6313 154.509 74.1438 153.022 74.1438 151.206V139.416H209.834V151.206H209.856Z" fill="black"/>
<path d="M167.047 182.116H117.588C118.134 175.422 123.778 170.128 130.625 170.128H154.009C160.878 170.106 166.5 175.4 167.047 182.116ZM80.7938 139.416V151.206C80.7938 153.022 82.2813 154.509 84.0969 154.509H206.575C208.413 154.509 209.878 153.022 209.878 151.206V139.416H80.7938ZM142 151.556C139.638 151.556 137.691 149.631 137.691 147.247C137.691 144.884 139.638 142.937 142 142.937C143.334 142.937 144.516 143.55 145.347 144.491C145.959 145.234 146.309 146.197 146.309 147.247C146.309 148.319 145.938 149.281 145.347 150.025C144.516 150.944 143.334 151.556 142 151.556Z" fill="#666666"/>
<path d="M84.075 154.487H77.4469C75.6312 154.487 74.1437 153 74.1437 151.184V139.394H80.7719V151.184C80.7937 153 82.2812 154.487 84.075 154.487Z" fill="#565656"/>
<path d="M206.553 53.8844H82.9594C81.1438 53.8844 79.6562 55.3719 79.6562 57.1875V137.272H209.834V57.1875C209.856 55.3719 208.391 53.8844 206.553 53.8844ZM170.372 131.781C166.063 131.781 162.563 128.544 162.016 124.409H150.684C150.269 127.625 148.059 130.272 145.084 131.3C144.231 131.606 143.291 131.781 142.328 131.781C138.019 131.781 134.519 128.544 133.972 124.409H122.641C122.225 127.625 120.016 130.272 117.041 131.3C116.188 131.606 115.247 131.781 114.284 131.781C109.603 131.781 105.819 127.997 105.819 123.337C105.819 118.656 109.603 114.872 114.284 114.872C115.225 114.872 116.166 115.047 117.019 115.353C117.85 115.637 118.659 116.053 119.359 116.6L120.978 114.981L127.081 108.878L119.775 101.572C118.988 102.272 118.025 102.819 117.019 103.169C116.166 103.475 115.247 103.65 114.284 103.65C109.603 103.65 105.819 99.8656 105.819 95.2062C105.819 90.525 109.603 86.7406 114.284 86.7406C115.247 86.7406 116.166 86.9156 117.019 87.2219C118.025 87.5719 118.988 88.1187 119.775 88.8187L127.147 81.4469L119.862 74.1625C119.053 74.8844 118.069 75.4531 117.019 75.825C116.166 76.1312 115.247 76.3062 114.284 76.3062C109.603 76.3062 105.819 72.5219 105.819 67.8406C105.819 63.1812 109.603 59.375 114.284 59.375C115.247 59.375 116.188 59.55 117.041 59.8562C120.016 60.8844 122.225 63.5312 122.641 66.7687H133.972C134.519 62.6125 138.019 59.375 142.328 59.375C143.291 59.375 144.231 59.55 145.084 59.8562C148.059 60.8844 150.269 63.5312 150.684 66.7687H162.016C162.563 62.6125 166.063 59.375 170.372 59.375C171.334 59.375 172.275 59.55 173.128 59.8562C176.431 60.9937 178.816 64.1656 178.816 67.8406C178.816 71.5375 176.431 74.6875 173.128 75.825C172.275 76.1312 171.334 76.3062 170.372 76.3062C169.694 76.3062 169.059 76.2187 168.447 76.0656C167.069 75.7375 165.844 75.0812 164.816 74.1844L157.531 81.4687L164.881 88.8187C165.909 87.9437 167.156 87.2656 168.534 86.9594C169.125 86.8062 169.738 86.7406 170.372 86.7406C171.334 86.7406 172.275 86.9156 173.128 87.2219C176.431 88.3594 178.816 91.5094 178.816 95.2062C178.816 98.8812 176.431 102.031 173.128 103.169C172.275 103.475 171.334 103.65 170.372 103.65C169.738 103.65 169.125 103.584 168.534 103.431C167.156 103.125 165.909 102.469 164.881 101.572L157.597 108.856L165.297 116.556C166.413 115.725 167.725 115.134 169.191 114.937C169.584 114.872 169.956 114.85 170.35 114.85C171.291 114.85 172.231 115.003 173.084 115.331C176.409 116.447 178.794 119.619 178.794 123.316C178.794 126.991 176.409 130.141 173.106 131.278C172.253 131.606 171.334 131.781 170.372 131.781Z" fill="#C8C8CC"/>
<path d="M82.9594 53.8844C81.1437 53.8844 79.6562 55.3719 79.6562 57.1875V137.272H74.1437V57.1875C74.1437 55.3719 75.6312 53.8844 77.4469 53.8844H82.9594Z" fill="#BCBCBC"/>
<path d="M170.372 103.65C175.031 103.65 178.816 99.8656 178.816 95.2062C178.816 90.525 175.031 86.7406 170.372 86.7406C168.272 86.7406 166.347 87.5281 164.881 88.8187L157.531 81.4687L164.816 74.1844C166.303 75.475 168.25 76.2844 170.372 76.2844C175.031 76.2844 178.816 72.5 178.816 67.8187C178.816 63.1594 175.031 59.3531 170.372 59.3531C166.062 59.3531 162.562 62.5906 162.016 66.7469H150.684C150.137 62.5906 146.616 59.3531 142.328 59.3531C138.019 59.3531 134.519 62.5906 133.972 66.7469H122.641C122.094 62.5906 118.572 59.3531 114.284 59.3531C109.603 59.3531 105.819 63.1594 105.819 67.8187C105.819 72.5 109.603 76.2844 114.284 76.2844C116.406 76.2844 118.353 75.475 119.862 74.1625L127.147 81.4469L119.775 88.8187C118.287 87.55 116.384 86.7406 114.284 86.7406C109.603 86.7406 105.819 90.525 105.819 95.2062C105.819 99.8656 109.603 103.65 114.284 103.65C116.384 103.65 118.287 102.862 119.775 101.572L127.081 108.878L119.381 116.578C117.959 115.528 116.209 114.85 114.306 114.85C109.625 114.85 105.841 118.634 105.841 123.316C105.841 127.975 109.625 131.759 114.306 131.759C118.594 131.759 122.116 128.522 122.662 124.387H133.994C134.541 128.522 138.041 131.759 142.35 131.759C146.637 131.759 150.159 128.522 150.706 124.387H162.037C162.584 128.522 166.084 131.759 170.394 131.759C175.053 131.759 178.837 127.975 178.837 123.316C178.837 118.634 175.053 114.85 170.394 114.85C168.469 114.85 166.762 115.506 165.341 116.556L157.641 108.856L164.925 101.572C166.347 102.841 168.25 103.65 170.372 103.65ZM170.372 61.5187C173.85 61.5187 176.672 64.3625 176.672 67.8187C176.672 71.3187 173.85 74.1187 170.372 74.1187C166.872 74.1187 164.072 71.2969 164.072 67.8187C164.05 64.3625 166.872 61.5187 170.372 61.5187ZM150.684 68.9125H162.016C162.191 70.2687 162.65 71.5156 163.372 72.5875L156 79.9375L149.022 72.9594C149.897 71.8 150.466 70.4 150.684 68.9125ZM148.628 95.2062C148.606 98.6844 145.784 101.506 142.328 101.506C138.828 101.506 136.028 98.6844 136.028 95.2062C136.028 95.2062 136.028 95.2062 136.028 95.1844C136.028 93.4344 136.728 91.8812 137.887 90.7437C139.047 89.6062 140.6 88.8844 142.35 88.8844C145.784 88.8844 148.606 91.7062 148.628 95.2062ZM154.556 108.856L147.053 116.337C145.697 115.419 144.078 114.872 142.306 114.872C140.534 114.872 138.894 115.419 137.537 116.337L130.078 108.878L137.122 101.834C138.566 102.95 140.337 103.65 142.284 103.65C144.253 103.65 146.025 102.95 147.469 101.812L154.556 108.856ZM147.447 88.5125C146.025 87.4187 144.253 86.7406 142.328 86.7406C140.403 86.7406 138.653 87.4187 137.231 88.4906L130.187 81.4469L137.144 74.4906C138.587 75.6062 140.381 76.3062 142.328 76.3062C144.297 76.3062 146.047 75.6062 147.491 74.4906L154.491 81.4687L147.447 88.5125ZM142.328 61.5187C145.806 61.5187 148.628 64.3625 148.628 67.8187C148.628 71.3187 145.784 74.1187 142.328 74.1187C138.828 74.1187 136.028 71.2969 136.028 67.8187C136.006 64.3625 138.828 61.5187 142.328 61.5187ZM114.284 74.1406C110.784 74.1406 107.984 71.3187 107.984 67.8406C107.984 64.3625 110.806 61.5406 114.284 61.5406C117.762 61.5406 120.584 64.3844 120.584 67.8406C120.584 71.3187 117.741 74.1406 114.284 74.1406ZM121.306 72.5656C122.006 71.4937 122.466 70.2469 122.641 68.9125H133.972C134.169 70.4219 134.737 71.8 135.634 72.9594L128.656 79.9156L121.306 72.5656ZM128.656 82.9781L135.7 90C134.781 91.1594 134.169 92.5812 133.972 94.1125H122.641C122.466 92.7562 121.984 91.4875 121.241 90.3937L128.656 82.9781ZM120.584 95.1844C120.584 95.2062 120.584 95.2062 120.584 95.1844C120.562 98.6844 117.741 101.484 114.284 101.484C110.784 101.484 107.984 98.6625 107.984 95.1844C107.984 91.6844 110.806 88.8844 114.284 88.8844C117.741 88.8844 120.562 91.6844 120.584 95.1844ZM121.241 99.9969C121.984 98.9031 122.466 97.6344 122.641 96.2562H133.972C134.169 97.7875 134.737 99.1656 135.634 100.325L128.612 107.347L121.241 99.9969ZM120.584 123.337C120.562 126.837 117.741 129.637 114.284 129.637C110.784 129.637 107.984 126.816 107.984 123.337C107.984 119.837 110.806 117.037 114.284 117.037C117.741 117.016 120.562 119.837 120.584 123.337C120.584 123.316 120.584 123.316 120.584 123.337ZM133.972 122.244H122.641C122.422 120.669 121.831 119.269 120.891 118.109L128.591 110.409L135.962 117.781C134.891 119.028 134.191 120.559 133.972 122.244ZM148.628 123.337C148.606 126.816 145.784 129.637 142.328 129.637C138.828 129.637 136.028 126.816 136.028 123.337C136.028 123.316 136.028 123.316 136.028 123.316C136.028 119.837 138.85 117.016 142.328 117.016C145.784 117.016 148.606 119.837 148.628 123.337ZM164.05 123.337C164.05 123.316 164.05 123.316 164.05 123.294C164.05 119.837 166.872 117.016 170.35 117.016C173.828 117.016 176.65 119.837 176.65 123.316C176.65 126.794 173.828 129.616 170.35 129.616C166.872 129.616 164.05 126.816 164.05 123.337ZM163.766 118.066C162.825 119.247 162.191 120.669 161.994 122.244H150.662C150.422 120.537 149.722 119.006 148.628 117.759L156.044 110.344L163.766 118.066ZM156.066 107.325L149.022 100.281C149.897 99.1437 150.487 97.7656 150.684 96.2562H162.016C162.191 97.6344 162.672 98.9031 163.416 99.9969L156.066 107.325ZM162.016 94.1125H150.684C150.466 92.5812 149.897 91.2031 148.978 90.0437L156 83L163.416 90.3937C162.65 91.4656 162.191 92.7562 162.016 94.1125ZM164.05 95.1844C164.05 91.6844 166.872 88.8844 170.35 88.8844C173.828 88.8844 176.65 91.7062 176.65 95.1844C176.65 98.6625 173.828 101.484 170.35 101.484C166.85 101.484 164.05 98.6844 164.05 95.2062C164.05 95.2062 164.05 95.2062 164.05 95.1844Z" fill="black"/>
<path d="M163.416 90.3719C162.672 91.4656 162.191 92.7344 162.016 94.0906H150.684C150.466 92.5594 149.897 91.1813 148.978 90.0219L156 83L163.416 90.3719ZM163.372 72.5875L156 79.9375L149.022 72.9594C149.897 71.8 150.466 70.4219 150.684 68.9125H162.016C162.191 70.2688 162.628 71.5156 163.372 72.5875ZM154.491 81.4688L147.447 88.5125C146.025 87.4188 144.253 86.7406 142.328 86.7406C140.403 86.7406 138.653 87.4188 137.231 88.4906L130.188 81.4469L137.144 74.4906C138.588 75.6063 140.381 76.3063 142.328 76.3063C144.297 76.3063 146.047 75.6063 147.491 74.4906L154.491 81.4688ZM163.416 99.9969L156.066 107.325L149.022 100.281C149.897 99.1438 150.488 97.7656 150.684 96.2563H162.016C162.191 97.6344 162.65 98.9031 163.416 99.9969ZM163.766 118.066C162.825 119.247 162.191 120.669 161.994 122.244H150.663C150.422 120.538 149.722 119.006 148.628 117.759L156.044 110.344L163.766 118.066ZM154.556 108.856L147.053 116.338C145.697 115.419 144.078 114.872 142.306 114.872C140.534 114.872 138.894 115.419 137.538 116.338L130.078 108.878L137.122 101.834C138.566 102.95 140.338 103.65 142.284 103.65C144.253 103.65 146.025 102.95 147.469 101.813L154.556 108.856ZM135.963 117.781C134.891 119.028 134.169 120.559 133.95 122.266H122.619C122.4 120.691 121.809 119.291 120.869 118.131L128.569 110.431L135.963 117.781ZM135.634 100.325L128.613 107.347L121.241 99.9969C121.984 98.9031 122.466 97.6344 122.641 96.2563H133.972C134.169 97.7875 134.738 99.1656 135.634 100.325ZM135.7 90C134.781 91.1594 134.169 92.5813 133.972 94.1125H122.641C122.466 92.7563 121.984 91.4875 121.241 90.3938L128.656 82.9781L135.7 90ZM135.634 72.9594L128.656 79.9156L121.306 72.5656C122.006 71.4938 122.466 70.2469 122.641 68.9125H133.972C134.169 70.4 134.738 71.8 135.634 72.9594Z" fill="#FFC90D"/>
<path d="M176.65 67.8187C176.65 71.3187 173.828 74.1187 170.35 74.1187C166.85 74.1187 164.05 71.2969 164.05 67.8187C164.05 64.3406 166.872 61.5187 170.35 61.5187C173.828 61.5187 176.65 64.3625 176.65 67.8187Z" fill="#FF5B61"/>
<path d="M142.328 74.1187C145.808 74.1187 148.628 71.2981 148.628 67.8187C148.628 64.3393 145.808 61.5187 142.328 61.5187C138.849 61.5187 136.028 64.3393 136.028 67.8187C136.028 71.2981 138.849 74.1187 142.328 74.1187Z" fill="#FF5B61"/>
<path d="M114.284 74.1187C117.764 74.1187 120.584 71.2981 120.584 67.8187C120.584 64.3393 117.764 61.5187 114.284 61.5187C110.805 61.5187 107.984 64.3393 107.984 67.8187C107.984 71.2981 110.805 74.1187 114.284 74.1187Z" fill="#FF5B61"/>
<path d="M176.65 95.2062C176.65 98.6844 173.828 101.506 170.35 101.506C166.85 101.506 164.05 98.7062 164.05 95.2281C164.05 95.2062 164.05 95.2062 164.05 95.1844C164.05 95.1844 164.05 95.1844 164.05 95.1625C164.05 91.6844 166.872 88.8844 170.35 88.8844C173.828 88.8844 176.65 91.7062 176.65 95.2062ZM148.606 95.1844C148.628 95.2062 148.606 95.2062 148.606 95.1844C148.606 98.6844 145.784 101.484 142.306 101.484C138.806 101.484 136.006 98.6625 136.006 95.1844C136.006 95.1844 136.006 95.1844 136.006 95.1625C136.006 93.4125 136.706 91.8594 137.866 90.7219C139.025 89.5844 140.578 88.8625 142.328 88.8625C145.784 88.8844 148.606 91.7062 148.606 95.1844ZM120.584 95.1625C120.584 95.1844 120.584 95.1844 120.584 95.1625C120.584 95.2062 120.584 95.2062 120.584 95.2062C120.562 98.6844 117.741 101.506 114.284 101.506C110.784 101.506 107.984 98.6844 107.984 95.2062C107.984 91.7062 110.806 88.9062 114.284 88.9062C117.741 88.8844 120.562 91.6844 120.584 95.1625ZM176.65 123.337C176.65 126.816 173.828 129.637 170.35 129.637C166.85 129.637 164.05 126.837 164.05 123.359C164.05 123.337 164.05 123.337 164.05 123.337C164.05 123.316 164.05 123.316 164.05 123.294C164.05 119.837 166.872 117.016 170.35 117.016C173.828 117.016 176.65 119.837 176.65 123.337ZM148.628 123.316C148.606 126.816 145.784 129.616 142.328 129.616C138.828 129.616 136.028 126.794 136.028 123.316C136.028 123.294 136.028 123.294 136.028 123.294C136.028 119.816 138.85 116.994 142.328 116.994C145.784 117.016 148.606 119.837 148.628 123.316ZM120.584 123.316C120.584 123.337 120.584 123.337 120.584 123.359C120.562 126.837 117.741 129.637 114.284 129.637C110.784 129.637 107.984 126.816 107.984 123.337C107.984 119.837 110.806 117.037 114.284 117.037C117.741 117.016 120.562 119.837 120.584 123.316Z" fill="#FF5B61"/>
<path d="M142 142.938C139.637 142.938 137.691 144.884 137.691 147.247C137.691 149.631 139.637 151.556 142 151.556C144.384 151.556 146.309 149.631 146.309 147.247C146.309 144.862 144.384 142.938 142 142.938ZM142 149.391C140.819 149.391 139.856 148.428 139.856 147.247C139.856 146.066 140.819 145.103 142 145.103C143.181 145.103 144.144 146.066 144.144 147.247C144.144 148.428 143.181 149.391 142 149.391Z" fill="black"/>
<path d="M142 149.391C143.184 149.391 144.144 148.431 144.144 147.247C144.144 146.063 143.184 145.103 142 145.103C140.816 145.103 139.856 146.063 139.856 147.247C139.856 148.431 140.816 149.391 142 149.391Z" fill="#C8C8CC"/>
<defs>
<filter id="filter0_dd_1_3146" x="0" y="0" width="292" height="244" filterUnits="userSpaceOnUse" color-interpolation-filters="sRGB">
<feFlood flood-opacity="0" result="BackgroundImageFix"/>
<feColorMatrix in="SourceAlpha" type="matrix" values="0 0 0 0 0 0 0 0 0 0 0 0 0 0 0 0 0 0 127 0" result="hardAlpha"/>
<feOffset dx="4" dy="4"/>
<feGaussianBlur stdDeviation="5"/>
<feComposite in2="hardAlpha" operator="out"/>
<feColorMatrix type="matrix" values="0 0 0 0 0 0 0 0 0 0 0 0 0 0 0 0 0 0 1 0"/>
<feBlend mode="normal" in2="BackgroundImageFix" result="effect1_dropShadow_1_3146"/>
<feColorMatrix in="SourceAlpha" type="matrix" values="0 0 0 0 0 0 0 0 0 0 0 0 0 0 0 0 0 0 127 0" result="hardAlpha"/>
<feOffset dy="4"/>
<feGaussianBlur stdDeviation="2"/>
<feComposite in2="hardAlpha" operator="out"/>
<feColorMatrix type="matrix" values="0 0 0 0 0 0 0 0 0 0 0 0 0 0 0 0 0 0 0.25 0"/>
<feBlend mode="normal" in2="effect1_dropShadow_1_3146" result="effect2_dropShadow_1_3146"/>
<feBlend mode="normal" in="SourceGraphic" in2="effect2_dropShadow_1_3146" result="shape"/>
</filter>
<linearGradient id="paint0_linear_1_3146" x1="-34.5" y1="-28.5" x2="320" y2="265" gradientUnits="userSpaceOnUse">
<stop offset="0.34375" stop-color="#472010" stop-opacity="0.67"/>
<stop offset="0.723958" stop-color="#472010"/>
</linearGradient>
</defs>
</svg>
