<svg xmlns="http://www.w3.org/2000/svg" enable-background="new 0 0 64 64" viewBox="0 0 64 64"><path d="M63.49,2.69c-0.45-0.6-1.17-0.98-1.98-0.98H2.49C1.12,1.71,0,2.83,0,4.2v42.98c0,1.37,1.12,2.49,2.49,2.49h23.82v5.2
		c-3.61,0.26-6.47,3.26-6.47,6.93c0,0.28,0.22,0.49,0.49,0.49h23.63c0.27,0,0.49-0.22,0.49-0.49c0-3.67-2.87-6.68-6.47-6.93v-5.2
		h23.52c0.81,0,1.53-0.38,1.98-0.98c0.32-0.41,0.51-0.94,0.51-1.51V4.2C64,3.64,63.81,3.12,63.49,2.69z M0.98,4.2
		c0-0.83,0.68-1.51,1.51-1.51h59.02c0.84,0,1.51,0.68,1.51,1.51v36.61H0.98V4.2z M43.45,61.31H20.84c0.25-3.06,2.83-5.48,5.96-5.48
		h10.69C40.63,55.82,43.2,58.24,43.45,61.31z M27.29,54.84v-5.17H37v5.17H27.29z M63.02,47.18c0,0.83-0.67,1.51-1.51,1.51H2.49
		c-0.83,0-1.51-0.68-1.51-1.51v-5.39h62.03V47.18z"/><path fill="#666" d="M43.45 61.31H20.84c.25-3.06 2.83-5.48 5.96-5.48h10.69C40.63 55.82 43.2 58.24 43.45 61.31zM4.02 41.79v5.39c0 .83.68 1.51 1.51 1.51h55.99c.84 0 1.51-.68 1.51-1.51v-5.39H4.02zM32 47.34c-1.08 0-1.97-.88-1.97-1.97 0-1.08.89-1.97 1.97-1.97.61 0 1.15.28 1.53.71.28.34.44.78.44 1.26 0 .49-.17.93-.44 1.27C33.15 47.06 32.61 47.34 32 47.34z"/><path fill="#565656" d="M5.52,48.68H2.49c-0.83,0-1.51-0.68-1.51-1.51v-5.39h3.03v5.39C4.02,48,4.7,48.68,5.52,48.68z"/><path fill="#c8c8cc" d="M61.51,2.69H5.01c-0.83,0-1.51,0.68-1.51,1.51v36.61h59.51V4.2C63.02,3.37,62.35,2.69,61.51,2.69z M44.97,38.3
		c-1.97,0-3.57-1.48-3.82-3.37h-5.18c-0.19,1.47-1.2,2.68-2.56,3.15c-0.39,0.14-0.82,0.22-1.26,0.22c-1.97,0-3.57-1.48-3.82-3.37
		h-5.18c-0.19,1.47-1.2,2.68-2.56,3.15c-0.39,0.14-0.82,0.22-1.26,0.22c-2.14,0-3.87-1.73-3.87-3.86c0-2.14,1.73-3.87,3.87-3.87
		c0.43,0,0.86,0.08,1.25,0.22c0.38,0.13,0.75,0.32,1.07,0.57l0.74-0.74l2.79-2.79l-3.34-3.34c-0.36,0.32-0.8,0.57-1.26,0.73
		c-0.39,0.14-0.81,0.22-1.25,0.22c-2.14,0-3.87-1.73-3.87-3.86c0-2.14,1.73-3.87,3.87-3.87c0.44,0,0.86,0.08,1.25,0.22
		c0.46,0.16,0.9,0.41,1.26,0.73l3.37-3.37l-3.33-3.33c-0.37,0.33-0.82,0.59-1.3,0.76c-0.39,0.14-0.81,0.22-1.25,0.22
		c-2.14,0-3.87-1.73-3.87-3.87c0-2.13,1.73-3.87,3.87-3.87c0.44,0,0.87,0.08,1.26,0.22c1.36,0.47,2.37,1.68,2.56,3.16h5.18
		c0.25-1.9,1.85-3.38,3.82-3.38c0.44,0,0.87,0.08,1.26,0.22c1.36,0.47,2.37,1.68,2.56,3.16h5.18c0.25-1.9,1.85-3.38,3.82-3.38
		c0.44,0,0.87,0.08,1.26,0.22c1.51,0.52,2.6,1.97,2.6,3.65c0,1.69-1.09,3.13-2.6,3.65c-0.39,0.14-0.82,0.22-1.26,0.22
		c-0.31,0-0.6-0.04-0.88-0.11c-0.63-0.15-1.19-0.45-1.66-0.86L39.1,15.3l3.36,3.36c0.47-0.4,1.04-0.71,1.67-0.85
		c0.27-0.07,0.55-0.1,0.84-0.1c0.44,0,0.87,0.08,1.26,0.22c1.51,0.52,2.6,1.96,2.6,3.65c0,1.68-1.09,3.12-2.6,3.64
		c-0.39,0.14-0.82,0.22-1.26,0.22c-0.29,0-0.57-0.03-0.84-0.1c-0.63-0.14-1.2-0.44-1.67-0.85l-3.33,3.33l3.52,3.52
		c0.51-0.38,1.11-0.65,1.78-0.74c0.18-0.03,0.35-0.04,0.53-0.04c0.43,0,0.86,0.07,1.25,0.22c1.52,0.51,2.61,1.96,2.61,3.65
		c0,1.68-1.09,3.12-2.6,3.64C45.83,38.22,45.41,38.3,44.97,38.3z"/><path fill="#bcbcbc" d="M5.01,2.69c-0.83,0-1.51,0.68-1.51,1.51v36.61H0.98V4.2c0-0.83,0.68-1.51,1.51-1.51H5.01z"/><path d="M44.97,25.44c2.13,0,3.86-1.73,3.86-3.86c0-2.14-1.73-3.87-3.86-3.87c-0.96,0-1.84,0.36-2.51,0.95L39.1,15.3l3.33-3.33
		c0.68,0.59,1.57,0.96,2.54,0.96c2.13,0,3.86-1.73,3.86-3.87c0-2.13-1.73-3.87-3.86-3.87c-1.97,0-3.57,1.48-3.82,3.38h-5.18
		c-0.25-1.9-1.86-3.38-3.82-3.38c-1.97,0-3.57,1.48-3.82,3.38h-5.18c-0.25-1.9-1.86-3.38-3.82-3.38c-2.14,0-3.87,1.74-3.87,3.87
		c0,2.14,1.73,3.87,3.87,3.87c0.97,0,1.86-0.37,2.55-0.97l3.33,3.33l-3.37,3.37c-0.68-0.58-1.55-0.95-2.51-0.95
		c-2.14,0-3.87,1.73-3.87,3.87c0,2.13,1.73,3.86,3.87,3.86c0.96,0,1.83-0.36,2.51-0.95l3.34,3.34l-3.52,3.52
		c-0.65-0.48-1.45-0.79-2.32-0.79c-2.14,0-3.87,1.73-3.87,3.87c0,2.13,1.73,3.86,3.87,3.86c1.96,0,3.57-1.48,3.82-3.37h5.18
		c0.25,1.89,1.85,3.37,3.82,3.37c1.96,0,3.57-1.48,3.82-3.37h5.18c0.25,1.89,1.85,3.37,3.82,3.37c2.13,0,3.86-1.73,3.86-3.86
		c0-2.14-1.73-3.87-3.86-3.87c-0.88,0-1.66,0.3-2.31,0.78l-3.52-3.52l3.33-3.33C43.13,25.07,44,25.44,44.97,25.44z M44.97,6.18
		c1.59,0,2.88,1.3,2.88,2.88c0,1.6-1.29,2.88-2.88,2.88c-1.6,0-2.88-1.29-2.88-2.88C42.08,7.48,43.37,6.18,44.97,6.18z M35.97,9.56
		h5.18c0.08,0.62,0.29,1.19,0.62,1.68L38.4,14.6l-3.19-3.19C35.61,10.88,35.87,10.24,35.97,9.56z M35.03,21.58
		c-0.01,1.59-1.3,2.88-2.88,2.88c-1.6,0-2.88-1.29-2.88-2.88c0,0,0,0,0-0.01c0-0.8,0.32-1.51,0.85-2.03s1.24-0.85,2.04-0.85
		C33.73,18.69,35.02,19.98,35.03,21.58L35.03,21.58C35.02,21.58,35.03,21.58,35.03,21.58z M37.74,27.82l-3.43,3.42
		c-0.62-0.42-1.36-0.67-2.17-0.67c-0.81,0-1.56,0.25-2.18,0.67l-3.41-3.41l3.22-3.22c0.66,0.51,1.47,0.83,2.36,0.83
		c0.9,0,1.71-0.32,2.37-0.84L37.74,27.82z M34.49,18.52c-0.65-0.5-1.46-0.81-2.34-0.81c-0.88,0-1.68,0.31-2.33,0.8l-3.22-3.22
		l3.18-3.18c0.66,0.51,1.48,0.83,2.37,0.83c0.9,0,1.7-0.32,2.36-0.83l3.2,3.19L34.49,18.52z M32.15,6.18c1.59,0,2.88,1.3,2.88,2.88
		c0,1.6-1.3,2.88-2.88,2.88c-1.6,0-2.88-1.29-2.88-2.88C29.26,7.48,30.55,6.18,32.15,6.18z M19.33,11.95c-1.6,0-2.88-1.29-2.88-2.88
		c0-1.59,1.29-2.88,2.88-2.88c1.59,0,2.88,1.3,2.88,2.88C22.21,10.66,20.91,11.95,19.33,11.95z M22.54,11.23
		c0.32-0.49,0.53-1.06,0.61-1.67h5.18c0.09,0.69,0.35,1.32,0.76,1.85l-3.19,3.18L22.54,11.23z M25.9,15.99l3.22,3.21
		c-0.42,0.53-0.7,1.18-0.79,1.88h-5.18c-0.08-0.62-0.3-1.2-0.64-1.7L25.9,15.99z M22.21,21.57C22.21,21.58,22.21,21.58,22.21,21.57
		c-0.01,1.6-1.3,2.88-2.88,2.88c-1.6,0-2.88-1.29-2.88-2.88c0-1.6,1.29-2.88,2.88-2.88C20.91,18.69,22.2,19.97,22.21,21.57
		C22.21,21.57,22.21,21.57,22.21,21.57z M22.51,23.77c0.34-0.5,0.56-1.08,0.64-1.71h5.18c0.09,0.7,0.35,1.33,0.76,1.86l-3.21,3.21
		L22.51,23.77z M22.21,34.44C22.21,34.44,22.21,34.44,22.21,34.44c-0.01,1.6-1.3,2.88-2.88,2.88c-1.6,0-2.88-1.29-2.88-2.88
		c0-1.6,1.29-2.88,2.88-2.88C20.91,31.55,22.2,32.84,22.21,34.44C22.21,34.43,22.21,34.43,22.21,34.44z M28.33,33.94h-5.18
		c-0.1-0.72-0.37-1.36-0.8-1.89l3.52-3.52l3.37,3.37C28.75,32.47,28.43,33.17,28.33,33.94z M35.03,34.44
		c-0.01,1.59-1.3,2.88-2.88,2.88c-1.6,0-2.88-1.29-2.88-2.88c0-0.01,0-0.01,0-0.01c0-1.59,1.29-2.88,2.88-2.88
		C33.73,31.55,35.02,32.84,35.03,34.44L35.03,34.44z M42.08,34.44c0-0.01,0-0.01,0-0.02c0-1.58,1.29-2.87,2.88-2.87
		c1.59,0,2.88,1.29,2.88,2.88c0,1.59-1.29,2.88-2.88,2.88C43.37,37.31,42.08,36.03,42.08,34.44C42.08,34.44,42.08,34.44,42.08,34.44
		z M41.95,32.03c-0.43,0.54-0.72,1.19-0.81,1.91h-5.18c-0.11-0.78-0.43-1.48-0.93-2.05l3.39-3.39L41.95,32.03z M38.43,27.12
		l-3.22-3.22c0.4-0.52,0.67-1.15,0.76-1.84h5.18c0.08,0.63,0.3,1.21,0.64,1.71L38.43,27.12z M41.15,21.08h-5.18
		c-0.1-0.7-0.36-1.33-0.78-1.86L38.4,16l3.39,3.38C41.44,19.87,41.23,20.46,41.15,21.08z M42.08,21.57
		C42.08,21.57,42.08,21.57,42.08,21.57c0-1.6,1.29-2.88,2.88-2.88c1.59,0,2.88,1.29,2.88,2.88c0,1.59-1.29,2.88-2.88,2.88
		c-1.6,0-2.88-1.28-2.88-2.87C42.08,21.58,42.08,21.58,42.08,21.57z"/><path fill="#ffc90d" d="M41.79 19.37c-.34.5-.56 1.08-.64 1.7h-5.18c-.1-.7-.36-1.33-.78-1.86L38.4 16 41.79 19.37zM41.77 11.24L38.4 14.6l-3.19-3.19c.4-.53.66-1.16.76-1.85h5.18C41.23 10.18 41.43 10.75 41.77 11.24zM37.71 15.3l-3.22 3.22c-.65-.5-1.46-.81-2.34-.81-.88 0-1.68.31-2.33.8l-3.22-3.22 3.18-3.18c.66.51 1.48.83 2.37.83.9 0 1.7-.32 2.36-.83L37.71 15.3zM41.79 23.77l-3.36 3.35-3.22-3.22c.4-.52.67-1.15.76-1.84h5.18C41.23 22.69 41.44 23.27 41.79 23.77zM41.95 32.03c-.43.54-.72 1.19-.81 1.91h-5.18c-.11-.78-.43-1.48-.93-2.05l3.39-3.39L41.95 32.03zM37.74 27.82l-3.43 3.42c-.62-.42-1.36-.67-2.17-.67-.81 0-1.56.25-2.18.67l-3.41-3.41 3.22-3.22c.66.51 1.47.83 2.36.83.9 0 1.71-.32 2.37-.84L37.74 27.82zM29.24 31.9c-.49.57-.82 1.27-.92 2.05h-5.18c-.1-.72-.37-1.36-.8-1.89l3.52-3.52L29.24 31.9zM29.09 23.92l-3.21 3.21-3.37-3.36c.34-.5.56-1.08.64-1.71h5.18C28.42 22.76 28.68 23.39 29.09 23.92zM29.12 19.2c-.42.53-.7 1.18-.79 1.88h-5.18c-.08-.62-.3-1.2-.64-1.7l3.39-3.39L29.12 19.2zM29.09 11.41l-3.19 3.18-3.36-3.36c.32-.49.53-1.06.61-1.67h5.18C28.42 10.24 28.68 10.88 29.09 11.41z"/><path fill="#ff5b61" d="M47.84,9.06c0,1.6-1.29,2.88-2.88,2.88c-1.6,0-2.88-1.29-2.88-2.88c0-1.59,1.29-2.88,2.88-2.88
		C46.55,6.18,47.84,7.48,47.84,9.06z"/><circle cx="32.15" cy="9.06" r="2.88" fill="#ff5b61"/><circle cx="19.33" cy="9.06" r="2.88" fill="#ff5b61"/><path fill="#ff5b61" d="M47.84 21.58c0 1.59-1.29 2.88-2.88 2.88-1.6 0-2.88-1.28-2.88-2.87 0-.01 0-.01 0-.02 0 0 0 0 0-.01 0-1.59 1.29-2.87 2.88-2.87C46.55 18.69 47.84 19.98 47.84 21.58zM35.02 21.57C35.02 21.58 35.03 21.58 35.02 21.57c0 1.6-1.29 2.88-2.88 2.88-1.6 0-2.88-1.29-2.88-2.88 0 0 0 0 0-.01 0-.8.32-1.51.85-2.03s1.24-.85 2.04-.85C33.73 18.69 35.02 19.98 35.02 21.57L35.02 21.57zM22.21 21.56C22.21 21.57 22.21 21.57 22.21 21.56c0 .02 0 .02 0 .02-.01 1.59-1.3 2.88-2.88 2.88-1.6 0-2.88-1.29-2.88-2.88 0-1.6 1.29-2.88 2.88-2.88C20.91 18.69 22.2 19.97 22.21 21.56zM47.84 34.44c0 1.59-1.29 2.88-2.88 2.88-1.6 0-2.88-1.28-2.88-2.87 0-.01 0-.01 0-.01 0-.01 0-.01 0-.02 0-1.58 1.29-2.87 2.88-2.87C46.55 31.55 47.84 32.84 47.84 34.44zM35.03 34.43L35.03 34.43c-.01 1.6-1.3 2.88-2.88 2.88-1.6 0-2.88-1.29-2.88-2.88 0-.01 0-.01 0-.01 0-1.59 1.29-2.88 2.88-2.88C33.73 31.55 35.02 32.84 35.03 34.43zM22.21 34.43C22.21 34.43 22.21 34.43 22.21 34.43c0 .01 0 .01 0 .02-.01 1.59-1.3 2.87-2.88 2.87-1.6 0-2.88-1.29-2.88-2.88 0-1.6 1.29-2.88 2.88-2.88C20.91 31.55 22.2 32.84 22.21 34.43z"/><path d="M32,43.4c-1.08,0-1.97,0.89-1.97,1.97c0,1.09,0.89,1.97,1.97,1.97c1.09,0,1.97-0.88,1.97-1.97
		C33.97,44.28,33.09,43.4,32,43.4z M32,46.35c-0.54,0-0.98-0.44-0.98-0.98c0-0.54,0.44-0.98,0.98-0.98c0.54,0,0.98,0.44,0.98,0.98
		C32.98,45.91,32.54,46.35,32,46.35z"/><circle cx="32" cy="45.37" r=".98" fill="#c8c8cc"/></svg>