<svg width="148" height="148" viewBox="0 0 148 148" fill="none" xmlns="http://www.w3.org/2000/svg">
<g filter="url(#filter0_dd_3_298)">
<rect x="6" y="6" width="128" height="128" rx="20" fill="#F5F5F5"/>
<rect x="8.5" y="8.5" width="123" height="123" rx="17.5" stroke="url(#paint0_linear_3_298)" stroke-width="5"/>
</g>
<path d="M110.156 43.9844L72.4219 22.2656C71.7969 21.875 70.9375 21.7188 70 21.7188C69.0625 21.7188 68.2031 21.9531 67.5781 22.2656L30.0781 44.0625C28.75 44.8437 27.8125 46.7969 27.8125 48.2812V91.7969C27.8125 92.6562 27.9687 93.6719 28.5938 94.5312L112.031 46.0937C111.563 45.1562 110.859 44.4531 110.156 43.9844Z" fill="#9B4F96"/>
<path d="M28.3594 94.4531C28.75 95.0781 29.2969 95.625 29.8438 95.9375L67.5 117.734C68.125 118.125 68.9844 118.281 69.9219 118.281C70.8594 118.281 71.7187 118.047 72.3437 117.734L109.844 95.9375C111.172 95.1562 112.109 93.2031 112.109 91.7188V48.2031C112.109 47.5 112.031 46.7187 111.641 46.0156L28.3594 94.4531Z" fill="#68217A"/>
<path d="M86.6406 79.4531C83.3594 85.2344 77.1094 89.1406 70 89.1406C59.4531 89.1406 50.8594 80.5469 50.8594 70C50.8594 59.4531 59.4531 50.8594 70 50.8594C77.1094 50.8594 83.3594 54.7656 86.6406 60.625L96.7969 54.7656C91.4844 45.4688 81.4844 39.1406 70 39.1406C52.9688 39.1406 39.1406 52.9688 39.1406 70C39.1406 87.0312 52.9688 100.859 70 100.859C81.4063 100.859 91.4062 94.6094 96.7187 85.3906L86.6406 79.4531ZM95.7812 71.7187L96.4844 68.3594H93.2031V64.6875H97.1875L98.125 59.8438H101.953L101.016 64.6094H103.984L104.922 59.8438H108.672L107.734 64.6094H109.609V68.2812H107.031L106.328 71.6406H109.609V75.3125H105.625L104.688 80H100.859L101.797 75.3125H98.8281L97.8906 80H94.1406L95.0781 75.3125H93.2031V71.6406H95.7812V71.7187ZM99.5313 71.7187H102.5L103.203 68.3594H100.234L99.5313 71.7187Z" fill="white"/>
<defs>
<filter id="filter0_dd_3_298" x="0" y="0" width="148" height="148" filterUnits="userSpaceOnUse" color-interpolation-filters="sRGB">
<feFlood flood-opacity="0" result="BackgroundImageFix"/>
<feColorMatrix in="SourceAlpha" type="matrix" values="0 0 0 0 0 0 0 0 0 0 0 0 0 0 0 0 0 0 127 0" result="hardAlpha"/>
<feOffset dx="4" dy="4"/>
<feGaussianBlur stdDeviation="5"/>
<feComposite in2="hardAlpha" operator="out"/>
<feColorMatrix type="matrix" values="0 0 0 0 0 0 0 0 0 0 0 0 0 0 0 0 0 0 1 0"/>
<feBlend mode="normal" in2="BackgroundImageFix" result="effect1_dropShadow_3_298"/>
<feColorMatrix in="SourceAlpha" type="matrix" values="0 0 0 0 0 0 0 0 0 0 0 0 0 0 0 0 0 0 127 0" result="hardAlpha"/>
<feOffset dy="4"/>
<feGaussianBlur stdDeviation="2"/>
<feComposite in2="hardAlpha" operator="out"/>
<feColorMatrix type="matrix" values="0 0 0 0 0 0 0 0 0 0 0 0 0 0 0 0 0 0 0.25 0"/>
<feBlend mode="normal" in2="effect1_dropShadow_3_298" result="effect2_dropShadow_3_298"/>
<feBlend mode="normal" in="SourceGraphic" in2="effect2_dropShadow_3_298" result="shape"/>
</filter>
<linearGradient id="paint0_linear_3_298" x1="-13.0588" y1="-13.7143" x2="178.885" y2="117.157" gradientUnits="userSpaceOnUse">
<stop offset="0.34375" stop-color="#472010" stop-opacity="0.67"/>
<stop offset="0.723958" stop-color="#472010"/>
</linearGradient>
</defs>
</svg>
