<svg width="148" height="148" viewBox="0 0 148 148" fill="none" xmlns="http://www.w3.org/2000/svg">
<g filter="url(#filter0_dd_3_300)">
<rect x="6" y="6" width="128" height="128" rx="20" fill="#F5F5F5"/>
<rect x="8.5" y="8.5" width="123" height="123" rx="17.5" stroke="url(#paint0_linear_3_300)" stroke-width="5"/>
</g>
<path d="M92.2375 93.7781C92.2094 93.8219 92.1594 93.8281 92.1156 93.8406C91.9406 94.0594 91.6719 94.1187 91.4344 94.2219C88.8844 95.3406 86.3406 96.4781 83.7969 97.6094C83.5844 97.7031 83.3937 97.675 83.1875 97.6062C81.8719 97.1625 80.5687 96.6906 79.2594 96.2281L74.4719 94.5375C71.2687 93.4094 68.0656 92.2812 64.8656 91.1469C62.9437 90.4656 61.0156 89.7937 59.0937 89.1156C56.2406 88.1062 53.3781 87.1125 50.5281 86.0906C50.075 85.9281 49.5937 85.8344 49.1844 85.5656L49.1187 85.5062C49.0351 85.3723 48.9808 85.2221 48.9594 85.0656C48.7954 84.2938 48.7075 83.5077 48.6969 82.7187C48.5594 72.1562 48.6812 61.5969 48.6375 51.0344C48.6375 50.8625 48.6656 50.7 48.6937 50.5344C48.6937 50.5 48.7125 50.4812 48.7406 50.4687C48.7513 50.4586 48.7647 50.452 48.7793 50.4497C48.7938 50.4475 48.8087 50.4498 48.8219 50.4562C48.9844 50.5406 49.0937 50.6875 49.2187 50.8125L91.7531 93.3437C91.8875 93.4781 92.0094 93.625 92.1812 93.7156C92.205 93.7336 92.2251 93.7558 92.2406 93.7812L92.2375 93.7781ZM92.25 93.4937C92.2189 93.4983 92.1871 93.495 92.1576 93.4841C92.1281 93.4731 92.1019 93.455 92.0812 93.4312L91.8812 93.2312L49.1812 50.5312C49.0781 50.4281 48.9594 50.3344 48.8812 50.2062C48.9829 50.1304 49.1076 50.0918 49.2344 50.0969L49.5812 50.0937C59.9156 50.0937 70.2469 50.0906 80.5812 50.0969C81.5062 50.0969 82.4281 50.1594 83.3375 50.3594C83.5219 50.4 83.7094 50.4375 83.8562 50.5687L83.925 50.6187C84.1937 51.0531 84.3031 51.5531 84.4719 52.025C85.825 55.875 87.1937 59.7187 88.5406 63.5687C89.4094 66.05 90.2906 68.5281 91.1656 71.0062C92.5844 75.0219 94.0062 79.0375 95.4156 83.0562C95.5969 83.5719 95.7625 84.0937 95.9687 84.6C96.0139 84.7173 96.0337 84.8429 96.0267 84.9684C96.0197 85.0939 95.9861 85.2166 95.9281 85.3281C94.975 87.4469 94.0406 89.575 93.1 91.7C92.8781 92.2 92.6594 92.7031 92.4312 93.2C92.3844 93.3031 92.3406 93.4156 92.25 93.4937ZM48.0812 85.9562C48.2969 85.9625 48.4781 86.075 48.6719 86.1437L51.4312 87.1062L57.0687 89.0969L62.0594 90.8437C63.1656 91.2312 64.2687 91.6281 65.3719 92.0156L71.2281 94.075L74.4156 95.2031L80.3656 97.2969C81.4594 97.6812 82.5531 98.0687 83.6469 98.4656C83.7374 98.5008 83.8345 98.5163 83.9315 98.5109C84.0285 98.5055 84.1233 98.4794 84.2094 98.4344C85.0844 98.0344 85.9719 97.6562 86.8531 97.2656C87.5156 96.975 88.1719 96.675 88.8344 96.3812L92.05 94.9656L92.8906 94.5969L91.3062 99.5094L90.3562 102.484L89.7187 104.491C89.625 104.791 89.625 104.797 89.3094 104.797L85.0625 104.794C81.0656 104.791 77.0719 104.822 73.0781 104.778C70.0062 104.744 66.9344 104.769 63.8625 104.75C63.7761 104.754 63.6898 104.74 63.6098 104.707C63.5298 104.674 63.4582 104.623 63.4 104.559C63.1906 104.334 62.9656 104.125 62.7469 103.906L53.0344 94.25C52.6687 93.8875 52.3062 93.5187 51.9375 93.1594C51.0469 92.2937 50.3719 91.2687 49.7781 90.1906C49.0594 88.8781 48.4875 87.5031 48.0969 86.0562C48.0875 86.025 48.0875 85.9906 48.0844 85.9594L48.0812 85.9562ZM92.9469 94.5156C92.9906 94.1812 93.1906 93.9094 93.3156 93.6094C93.625 92.8625 93.9625 92.125 94.2906 91.3844L95.1469 89.4656L96.325 86.7937C96.4594 86.4937 96.5906 86.1937 96.7375 85.9C96.7846 85.82 96.813 85.7304 96.8206 85.6378C96.8282 85.5453 96.8147 85.4522 96.7812 85.3656C96.3219 84.0906 95.8656 82.8125 95.4156 81.5312C95.1812 80.8719 94.9594 80.2062 94.7281 79.5469L93.0656 74.8094L91.9375 71.6219L90.3031 66.9781L89.1844 63.8219L87.4656 58.9281L86.3375 55.7406C85.7906 54.1937 85.2531 52.6437 84.7 51.1C84.5406 50.6562 84.3656 50.2219 84.2594 49.7625C84.9281 49.8969 85.5656 50.1312 86.2 50.3781C87.7906 51.0031 89.2875 51.8 90.6281 52.8687C91.2375 53.3562 91.7687 53.9312 92.3187 54.4812C93.1187 55.2781 93.9094 56.0875 94.7094 56.8875C97.275 59.4594 99.8375 62.0344 102.406 64.6031C102.481 64.6716 102.541 64.7558 102.58 64.8498C102.618 64.9438 102.636 65.0453 102.631 65.1469C102.625 70.8531 102.625 76.5625 102.622 82.2687L102.612 91.0937V91.1937C102.609 91.4594 102.662 91.4594 102.35 91.5594L100.847 92.0375L93.2375 94.4687C93.1656 94.4906 93.0906 94.5062 93.0156 94.525L92.9437 94.5094L92.9469 94.5156ZM84.3844 49.9062C83.9969 49.8344 83.6125 49.7594 83.225 49.6906C82.8912 49.6317 82.5541 49.5931 82.2156 49.575C80 49.4531 77.7844 49.5187 75.5687 49.5156C66.4687 49.5094 57.3719 49.5125 48.2719 49.5156C48.1405 49.5167 48.0092 49.5208 47.8781 49.5281L47.8125 49.5156C48.3844 49.0906 48.9906 48.7156 49.5844 48.3219C51.1187 47.3 52.6594 46.2875 54.1969 45.2687L63.8031 38.9062C65.4406 37.8219 67.0844 36.7469 68.7187 35.6562C69.0094 35.4625 69.2719 35.2281 69.6156 35.1156C70.3219 34.8781 71.0219 34.9406 71.7187 35.1437C72.6875 35.4219 73.525 35.9312 74.2687 36.6031C74.5437 36.8531 74.8031 37.125 75.0687 37.3875C77.5 39.8 79.9312 42.2156 82.3656 44.625C82.55 44.8062 82.6781 45.0031 82.7625 45.25C83.2844 46.7625 83.825 48.2719 84.3562 49.7812C84.3719 49.8219 84.3781 49.8656 84.3875 49.9094L84.3844 49.9062ZM47.7625 49.5875C47.8531 49.7187 47.8094 49.8656 47.8094 50.0031L47.8125 82C47.8125 82.6687 47.8719 83.3344 47.8937 84C47.9125 84.5969 48.0375 85.1906 48.1781 85.7719C48.2031 85.8719 48.2625 85.975 48.2062 86.0844L45.8437 85.2687C45.0469 84.9906 44.2531 84.7062 43.4531 84.4312C43.2773 84.3709 43.1187 84.2691 42.9906 84.1344C40.3562 81.4719 37.7156 78.8187 35.0844 76.1562C34.2132 75.3073 33.6092 74.2222 33.3469 73.0344C33.2233 72.508 33.2329 71.9592 33.375 71.4375C33.4373 71.2038 33.5398 70.9828 33.6781 70.7844C34.625 69.4625 35.4906 68.0875 36.3875 66.7375C39.8656 61.4969 43.3312 56.25 46.8031 51.0062L47.7562 49.5844L47.7625 49.5875Z" fill="#00618A"/>
<defs>
<filter id="filter0_dd_3_300" x="0" y="0" width="148" height="148" filterUnits="userSpaceOnUse" color-interpolation-filters="sRGB">
<feFlood flood-opacity="0" result="BackgroundImageFix"/>
<feColorMatrix in="SourceAlpha" type="matrix" values="0 0 0 0 0 0 0 0 0 0 0 0 0 0 0 0 0 0 127 0" result="hardAlpha"/>
<feOffset dx="4" dy="4"/>
<feGaussianBlur stdDeviation="5"/>
<feComposite in2="hardAlpha" operator="out"/>
<feColorMatrix type="matrix" values="0 0 0 0 0 0 0 0 0 0 0 0 0 0 0 0 0 0 1 0"/>
<feBlend mode="normal" in2="BackgroundImageFix" result="effect1_dropShadow_3_300"/>
<feColorMatrix in="SourceAlpha" type="matrix" values="0 0 0 0 0 0 0 0 0 0 0 0 0 0 0 0 0 0 127 0" result="hardAlpha"/>
<feOffset dy="4"/>
<feGaussianBlur stdDeviation="2"/>
<feComposite in2="hardAlpha" operator="out"/>
<feColorMatrix type="matrix" values="0 0 0 0 0 0 0 0 0 0 0 0 0 0 0 0 0 0 0.25 0"/>
<feBlend mode="normal" in2="effect1_dropShadow_3_300" result="effect2_dropShadow_3_300"/>
<feBlend mode="normal" in="SourceGraphic" in2="effect2_dropShadow_3_300" result="shape"/>
</filter>
<linearGradient id="paint0_linear_3_300" x1="-13.0588" y1="-13.7143" x2="178.885" y2="117.157" gradientUnits="userSpaceOnUse">
<stop offset="0.34375" stop-color="#472010" stop-opacity="0.67"/>
<stop offset="0.723958" stop-color="#472010"/>
</linearGradient>
</defs>
</svg>
