<svg xmlns="http://www.w3.org/2000/svg" data-name="Layer 1" viewBox="0 0 64 64"><path d="M55,2H27a5.006,5.006,0,0,0-5,5V32H18a4,4,0,0,0-4,4,3.947,3.947,0,0,0,.212,1.225c-.066-.008-.129-.033-.2-.037a2.353,2.353,0,0,0-1.912.836,2.524,2.524,0,0,0-.5,2.207l.659,2.885a17.458,17.458,0,0,1-4.149-8.29l-.454-2.3A3.108,3.108,0,0,0,4.825,30a2.673,2.673,0,0,0-2.114.881,2.875,2.875,0,0,0-.672,2.387l.706,4.457a26.929,26.929,0,0,0,8.067,15.284V54H10a1,1,0,0,0-1,1v6a1,1,0,0,0,1,1H22a1,1,0,0,0,1-1V55a1,1,0,0,0-1-1h-.023l-.095-3.928v-.016a11.919,11.919,0,0,0-4.191-8.508l-.882-1.75A3.926,3.926,0,0,0,18,40H45a4.931,4.931,0,0,0,2.419-.652l-1.109,2.2a11.919,11.919,0,0,0-4.191,8.508v.016L42.023,54H42a1,1,0,0,0-1,1v6a1,1,0,0,0,1,1H54a1,1,0,0,0,1-1V55a1,1,0,0,0-1-1h-.812v-.988a26.929,26.929,0,0,0,8.067-15.284l.706-4.457a2.875,2.875,0,0,0-.672-2.387A2.676,2.676,0,0,0,59.175,30a3.108,3.108,0,0,0-2.833,2.523l-.454,2.3a17.458,17.458,0,0,1-4.149,8.29l.659-2.885a2.524,2.524,0,0,0-.5-2.207,2.313,2.313,0,0,0-1.911-.836,2.487,2.487,0,0,0-.569.107A4.934,4.934,0,0,0,50,35V10H61a1,1,0,0,0,1-1A7.009,7.009,0,0,0,55,2ZM21,60H11V56H21Zm-1.118-9.871L19.976,54H12.812V52.576a1,1,0,0,0-.326-.737A24.93,24.93,0,0,1,4.72,37.415l-.706-4.457a.9.9,0,0,1,.187-.741A.608.608,0,0,1,4.733,32a1.1,1.1,0,0,1,.962.912l.454,2.3a19.35,19.35,0,0,0,8.568,12.571,1,1,0,0,0,1.427-1.3L14.2,42.642l-.652-2.856a.549.549,0,0,1,.087-.479.358.358,0,0,1,.287-.12.669.669,0,0,1,.529.385L16,42.636a1,1,0,0,0,.264.327A9.884,9.884,0,0,1,19.882,50.129ZM42.937,38H18a2,2,0,0,1,0-4H42.937a4.8,4.8,0,0,0,0,4ZM53,60H43V56H53ZM49.547,39.572a.667.667,0,0,1,.529-.385.326.326,0,0,1,.286.12.549.549,0,0,1,.087.479L49.8,42.642l-1.941,3.847a1,1,0,0,0,1.427,1.3,19.35,19.35,0,0,0,8.568-12.571l.454-2.3A1.1,1.1,0,0,1,59.267,32a.64.64,0,0,1,.532.216.9.9,0,0,1,.187.741l-.706,4.457a24.93,24.93,0,0,1-7.766,14.424,1,1,0,0,0-.326.737V54H44.024l.094-3.871a9.884,9.884,0,0,1,3.619-7.166A.983.983,0,0,0,48,42.636ZM48,9V35a2.994,2.994,0,0,1-2.649,2.965A2.724,2.724,0,0,1,45.6,33.8,1,1,0,0,0,45,32H24V7a3,3,0,0,1,3-3H50.111A6.973,6.973,0,0,0,48,9Zm2.1-1a5,5,0,0,1,9.8,0Z"/><polygon points="43 18 41 18 41 28 39 28 39 20 37 20 37 28 35 28 35 22 33 22 33 28 31 28 31 24 29 24 29 28 27 28 27 30 29 30 31 30 33 30 35 30 37 30 39 30 41 30 43 30 45 30 45 28 43 28 43 18"/><path d="M35.127,16.287l2.318,1.545a1,1,0,0,0,1.314-.182l6-7-1.518-1.3-5.424,6.327-2.262-1.509a1,1,0,0,0-1.262.125l-7,7,1.414,1.414Z"/></svg>