<svg width="292" height="244" viewBox="0 0 292 244" fill="none" xmlns="http://www.w3.org/2000/svg">
<g filter="url(#filter0_dd_1_3158)">
<rect x="6" y="6" width="272" height="224" rx="20" fill="#F5F5F5"/>
<rect x="8.5" y="8.5" width="267" height="219" rx="17.5" stroke="url(#paint0_linear_1_3158)" stroke-width="5"/>
</g>
<path d="M192.312 52.375H131.062C128.163 52.3785 125.383 53.5319 123.332 55.5824C121.282 57.6328 120.128 60.4128 120.125 63.3125V118H111.375C109.054 118 106.829 118.922 105.188 120.563C103.547 122.204 102.625 124.429 102.625 126.75C102.637 127.662 102.794 128.567 103.089 129.43C102.944 129.412 102.807 129.357 102.651 129.349C101.86 129.311 101.072 129.457 100.346 129.774C99.6208 130.091 98.9783 130.572 98.4687 131.177C97.9233 131.842 97.5404 132.624 97.3505 133.462C97.1606 134.3 97.169 135.171 97.375 136.005L98.8166 142.316C94.2123 137.2 91.0764 130.934 89.7406 124.182L88.7475 119.151C88.4702 117.675 87.7123 116.333 86.5921 115.333C85.4718 114.334 84.0522 113.733 82.5547 113.625C81.6892 113.584 80.8254 113.735 80.0256 114.068C79.2259 114.402 78.5102 114.908 77.9303 115.552C77.3112 116.258 76.8578 117.093 76.6034 117.996C76.349 118.9 76.3001 119.849 76.4603 120.774L78.0047 130.523C80.0538 143.304 86.2555 155.054 95.6512 163.957V166.125H93.875C93.2948 166.125 92.7384 166.355 92.3282 166.766C91.918 167.176 91.6875 167.732 91.6875 168.312V181.438C91.6875 182.018 91.918 182.574 92.3282 182.984C92.7384 183.395 93.2948 183.625 93.875 183.625H120.125C120.705 183.625 121.262 183.395 121.672 182.984C122.082 182.574 122.312 182.018 122.312 181.438V168.312C122.312 167.732 122.082 167.176 121.672 166.766C121.262 166.355 120.705 166.125 120.125 166.125H120.075L119.867 157.532V157.497C119.694 153.933 118.791 150.442 117.214 147.241C115.637 144.039 113.42 141.196 110.699 138.886L108.77 135.058C109.61 135.339 110.489 135.488 111.375 135.5H170.437C172.295 135.488 174.117 134.997 175.729 134.074L173.303 138.886C170.583 141.196 168.365 144.039 166.788 147.241C165.211 150.442 164.308 153.933 164.135 157.497V157.532L163.925 166.125H163.875C163.295 166.125 162.738 166.355 162.328 166.766C161.918 167.176 161.687 167.732 161.687 168.312V181.438C161.687 182.018 161.918 182.574 162.328 182.984C162.738 183.395 163.295 183.625 163.875 183.625H190.125C190.705 183.625 191.262 183.395 191.672 182.984C192.082 182.574 192.312 182.018 192.312 181.438V168.312C192.312 167.732 192.082 167.176 191.672 166.766C191.262 166.355 190.705 166.125 190.125 166.125H188.349V163.964C197.744 155.061 203.946 143.311 205.995 130.53L207.54 120.78C207.7 119.855 207.651 118.906 207.397 118.003C207.142 117.099 206.689 116.264 206.07 115.559C205.49 114.914 204.775 114.406 203.975 114.072C203.175 113.737 202.311 113.585 201.445 113.625C199.948 113.732 198.528 114.331 197.407 115.329C196.286 116.328 195.527 117.669 195.248 119.144L194.255 124.175C192.919 130.928 189.783 137.193 185.179 142.31L186.621 135.999C186.827 135.164 186.835 134.294 186.645 133.455C186.455 132.617 186.072 131.835 185.527 131.171C185.022 130.56 184.381 130.076 183.655 129.759C182.928 129.441 182.138 129.298 181.347 129.342C180.924 129.371 180.506 129.45 180.102 129.576C180.926 128.033 181.363 126.312 181.375 124.562V69.875H205.437C206.018 69.875 206.574 69.6445 206.984 69.2343C207.395 68.8241 207.625 68.2677 207.625 67.6875C207.62 63.628 206.005 59.7362 203.134 56.8657C200.264 53.9952 196.372 52.3802 192.312 52.375ZM117.937 179.25H96.0625V170.5H117.937V179.25ZM115.492 157.657L115.697 166.125H100.026V163.01C100.026 162.707 99.962 162.406 99.8393 162.129C99.7165 161.851 99.5373 161.602 99.3131 161.398C90.2578 153.094 84.2718 141.976 82.325 129.845L80.7806 120.096C80.7257 119.812 80.7339 119.52 80.8046 119.24C80.8753 118.959 81.0067 118.698 81.1897 118.475C81.3295 118.306 81.5089 118.174 81.7119 118.091C81.915 118.008 82.1354 117.977 82.3534 118C82.8734 118.059 83.3601 118.285 83.7399 118.645C84.1196 119.005 84.3717 119.479 84.4578 119.995L85.4509 125.026C86.555 130.638 88.785 135.969 92.0063 140.695C95.2277 145.421 99.3735 149.446 104.193 152.525C104.599 152.783 105.078 152.901 105.556 152.86C106.035 152.819 106.487 152.621 106.842 152.298C107.197 151.974 107.436 151.542 107.521 151.07C107.607 150.597 107.534 150.109 107.315 149.682L103.062 141.279L101.636 135.032C101.585 134.854 101.576 134.667 101.609 134.486C101.642 134.304 101.716 134.132 101.827 133.984C101.905 133.896 102.002 133.827 102.11 133.781C102.219 133.736 102.337 133.715 102.454 133.722C102.703 133.751 102.94 133.844 103.143 133.992C103.346 134.139 103.507 134.336 103.612 134.564L107 141.266C107.14 141.543 107.336 141.787 107.577 141.982C109.92 143.895 111.834 146.28 113.198 148.98C114.561 151.68 115.343 154.636 115.492 157.657ZM165.925 131.125H111.375C110.215 131.125 109.102 130.664 108.281 129.844C107.461 129.023 107 127.91 107 126.75C107 125.59 107.461 124.477 108.281 123.656C109.102 122.836 110.215 122.375 111.375 122.375H165.925C165.296 123.748 164.97 125.24 164.97 126.75C164.97 128.26 165.296 129.752 165.925 131.125ZM187.937 179.25H166.062V170.5H187.937V179.25ZM180.384 134.564C180.488 134.336 180.65 134.139 180.852 133.991C181.055 133.844 181.292 133.751 181.541 133.722C181.659 133.71 181.778 133.728 181.887 133.774C181.997 133.819 182.093 133.892 182.167 133.984C182.277 134.132 182.352 134.304 182.385 134.486C182.418 134.667 182.408 134.854 182.357 135.032L180.937 141.279L176.692 149.695C176.472 150.122 176.4 150.61 176.485 151.083C176.571 151.556 176.809 151.987 177.165 152.311C177.52 152.634 177.972 152.832 178.45 152.873C178.929 152.914 179.408 152.797 179.813 152.538C184.633 149.459 188.779 145.434 192 140.708C195.222 135.982 197.452 130.652 198.556 125.039L199.549 120.008C199.632 119.491 199.882 119.014 200.261 118.652C200.639 118.289 201.126 118.061 201.647 118C201.864 117.983 202.082 118.016 202.284 118.098C202.486 118.18 202.667 118.309 202.81 118.472C202.993 118.696 203.125 118.957 203.195 119.237C203.266 119.518 203.274 119.81 203.219 120.093L201.675 129.843C199.728 141.974 193.742 153.092 184.687 161.396C184.463 161.6 184.283 161.849 184.161 162.127C184.038 162.404 183.974 162.704 183.974 163.008V166.125H168.302L168.508 157.657C168.658 154.636 169.44 151.68 170.803 148.979C172.167 146.279 174.082 143.895 176.425 141.982C176.666 141.787 176.862 141.543 177 141.266L180.384 134.564ZM177 67.6875V124.562C176.995 126.165 176.403 127.711 175.335 128.906C174.267 130.102 172.798 130.864 171.205 131.048C170.574 130.45 170.081 129.721 169.761 128.912C169.441 128.103 169.302 127.234 169.354 126.366C169.406 125.498 169.647 124.651 170.061 123.886C170.475 123.121 171.052 122.456 171.75 121.937C172.117 121.662 172.389 121.278 172.525 120.84C172.662 120.402 172.658 119.931 172.513 119.496C172.368 119.06 172.089 118.681 171.717 118.413C171.344 118.144 170.897 118 170.437 118H124.5V63.3125C124.5 61.572 125.191 59.9028 126.422 58.6721C127.653 57.4414 129.322 56.75 131.062 56.75H181.618C180.156 58.1719 178.994 59.8724 178.201 61.751C177.408 63.6297 177 65.6483 177 67.6875ZM181.594 65.5C182.096 63.0275 183.437 60.8046 185.391 59.2079C187.344 57.6113 189.79 56.739 192.312 56.739C194.835 56.739 197.281 57.6113 199.234 59.2079C201.188 60.8046 202.529 63.0275 203.031 65.5H181.594Z" fill="#472010"/>
<path d="M166.062 87.375H161.688V109.25H157.312V91.75H152.938V109.25H148.562V96.125H144.188V109.25H139.812V100.5H135.438V109.25H131.062V113.625H135.438H139.812H144.188H148.562H152.938H157.312H161.688H166.062H170.438V109.25H166.062V87.375Z" fill="#472010"/>
<path d="M148.84 83.6278L153.911 87.0075C154.356 87.3039 154.894 87.427 155.424 87.3537C155.953 87.2803 156.438 87.0155 156.785 86.6094L169.91 71.2969L166.59 68.4531L154.725 82.2934L149.777 78.9925C149.356 78.7119 148.851 78.5858 148.347 78.6356C147.844 78.6855 147.374 78.9082 147.016 79.2659L131.703 94.5784L134.797 97.6716L148.84 83.6278Z" fill="#472010"/>
<defs>
<filter id="filter0_dd_1_3158" x="0" y="0" width="292" height="244" filterUnits="userSpaceOnUse" color-interpolation-filters="sRGB">
<feFlood flood-opacity="0" result="BackgroundImageFix"/>
<feColorMatrix in="SourceAlpha" type="matrix" values="0 0 0 0 0 0 0 0 0 0 0 0 0 0 0 0 0 0 127 0" result="hardAlpha"/>
<feOffset dx="4" dy="4"/>
<feGaussianBlur stdDeviation="5"/>
<feComposite in2="hardAlpha" operator="out"/>
<feColorMatrix type="matrix" values="0 0 0 0 0 0 0 0 0 0 0 0 0 0 0 0 0 0 1 0"/>
<feBlend mode="normal" in2="BackgroundImageFix" result="effect1_dropShadow_1_3158"/>
<feColorMatrix in="SourceAlpha" type="matrix" values="0 0 0 0 0 0 0 0 0 0 0 0 0 0 0 0 0 0 127 0" result="hardAlpha"/>
<feOffset dy="4"/>
<feGaussianBlur stdDeviation="2"/>
<feComposite in2="hardAlpha" operator="out"/>
<feColorMatrix type="matrix" values="0 0 0 0 0 0 0 0 0 0 0 0 0 0 0 0 0 0 0.25 0"/>
<feBlend mode="normal" in2="effect1_dropShadow_1_3158" result="effect2_dropShadow_1_3158"/>
<feBlend mode="normal" in="SourceGraphic" in2="effect2_dropShadow_1_3158" result="shape"/>
</filter>
<linearGradient id="paint0_linear_1_3158" x1="-34.5" y1="-28.5" x2="320" y2="265" gradientUnits="userSpaceOnUse">
<stop offset="0.34375" stop-color="#472010" stop-opacity="0.67"/>
<stop offset="0.723958" stop-color="#472010"/>
</linearGradient>
</defs>
</svg>
