<svg xmlns="http://www.w3.org/2000/svg" xmlns:xlink="http://www.w3.org/1999/xlink" viewBox="0,0,256,256" width="60px" height="60px"><g fill="#ffffff" fill-rule="nonzero" stroke="none" stroke-width="1" stroke-linecap="butt" stroke-linejoin="miter" stroke-miterlimit="10" stroke-dasharray="" stroke-dashoffset="0" font-family="none" font-weight="none" font-size="none" text-anchor="none" style="mix-blend-mode: normal"><g transform="scale(3.2,3.2)"><path d="M40,7c-18.21355,0 -33,14.78645 -33,33c0,0.03863 0.00182,0.07663 0.00195,0.11523c-0.06815,0.2145 -0.06196,0.44571 0.01758,0.65625c0.41184,17.8566 15.02563,32.22852 32.98047,32.22852c17.95418,0 32.5676,-14.37087 32.98047,-32.22656c0.0789,-0.21076 0.0844,-0.44197 0.01563,-0.65625c0.00014,-0.03927 0.00391,-0.07788 0.00391,-0.11719c0,-18.21355 -14.78645,-33 -33,-33zM40,9c16.90004,0 30.61287,13.49601 30.98242,30.30664c-1.0001,-0.10199 -2.19509,-0.20326 -3.78906,-0.25977c-1.97667,-0.07008 -4.42303,-0.06462 -7.26367,0.08203c0.02014,-0.32063 0.04995,-0.63827 0.05078,-0.96484c0.1467,-2.74084 -0.76594,-5.31245 -2.30273,-7.58008c0.73973,-2.59303 1.35974,-6.771 -0.44727,-10.06445l-0.28516,-0.51953h-0.5918c-4.03374,0 -6.82861,2.22813 -8.31055,3.52539c-2.35416,-0.95012 -5.0346,-1.52539 -7.99805,-1.52539c-2.97108,0 -5.67043,0.57785 -8.13086,1.52344c-1.43571,-1.27626 -4.1094,-3.52344 -8.14258,-3.52344h-0.57031l-0.29102,0.49219c-1.95562,3.31088 -1.1997,7.44398 -0.46484,10.09961c-1.54687,2.29464 -2.44922,4.94356 -2.44922,7.53125c0,0.34054 0.02782,0.67177 0.04883,1.00586c-2.82965,-0.14532 -5.26751,-0.1519 -7.23828,-0.08203c-1.59398,0.05651 -2.78897,0.15778 -3.78906,0.25977c0.36955,-16.81063 14.08239,-30.30664 30.98242,-30.30664zM24.42383,22.0957c3.15771,0.25864 5.39004,2.16516 6.625,3.27344l0.46875,0.41992l0.58203,-0.24219c2.36457,-0.98428 5.00552,-1.54687 7.94531,-1.54687c2.9398,0 5.57763,0.56667 7.77539,1.53906l0.5918,0.26172l0.48047,-0.43359c1.19971,-1.07746 3.61142,-3.00165 6.78906,-3.26758c1.05336,2.57144 0.63601,6.32124 0.00977,8.34766l-0.14844,0.47852l0.29492,0.4043c1.49743,2.06304 2.28052,4.33454 2.14844,6.73828l-0.00195,0.02734v0.02734c0,3.80754 -1.38543,6.92539 -4.29102,9.19531c-2.90557,2.26993 -7.42388,3.68164 -13.70312,3.68164c-6.27924,0 -10.79754,-1.41172 -13.70312,-3.68164c-2.90558,-2.26992 -4.29102,-5.38777 -4.29102,-9.19531c0,-2.27707 0.80779,-4.7468 2.29297,-6.79297l0.28711,-0.39648l-0.13672,-0.4707c-0.64911,-2.23187 -1.15055,-5.82692 -0.01562,-8.36719zM37.82031,27.10938c-0.55,0.051 -0.95063,0.54056 -0.89062,1.10156c0.049,0.51 0.48119,0.88867 0.99219,0.88867h0.09961c0.549,-0.06 0.95039,-0.54961 0.90039,-1.09961c-0.061,-0.55 -0.55056,-0.95062 -1.10156,-0.89062zM42.15039,27.10938c-0.55,-0.059 -1.03984,0.34062 -1.08984,0.89063c-0.06,0.55 0.33767,1.03961 0.88867,1.09961c0.04,0 0.07156,0.001 0.10156,0c0.51,0 0.94,-0.38039 1,-0.90039c0.05,-0.551 -0.34939,-1.03884 -0.90039,-1.08984zM46.00586,27.94336c-0.38766,0.03173 -0.73969,0.29 -0.86719,0.6875c-0.17,0.531 0.11062,1.08977 0.64063,1.25977c0.1,0.04 0.21055,0.04783 0.31055,0.04883c0.42,0 0.80822,-0.25969 0.94922,-0.67969c0.179,-0.531 -0.11062,-1.08953 -0.64062,-1.26953c-0.13,-0.04275 -0.26336,-0.05745 -0.39258,-0.04687zM33.96289,27.95508c-0.12936,-0.01141 -0.26233,0.00242 -0.39258,0.04492c-0.53,0.18 -0.81063,0.74053 -0.64062,1.26953c0.139,0.419 0.53117,0.68064 0.95117,0.68164c0.1,0 0.20859,-0.01078 0.30859,-0.05078c0.531,-0.17 0.81063,-0.73877 0.64063,-1.25977c-0.1275,-0.39 -0.47911,-0.65133 -0.86719,-0.68555zM52.57813,32.60156c-0.1275,0.02383 -0.25219,0.07344 -0.36719,0.14844c-0.46,0.31 -0.59125,0.93062 -0.28125,1.39063c0.19,0.29 0.51008,0.44922 0.83008,0.44922c0.191,0 0.38859,-0.05992 0.55859,-0.16992c0.451,-0.311 0.58149,-0.93062 0.27148,-1.39062c-0.225,-0.34575 -0.62922,-0.49922 -1.01172,-0.42773zM27.40234,32.62695c-0.3825,-0.07308 -0.78672,0.08664 -1.01172,0.43164c-0.31,0.46 -0.1807,1.07963 0.2793,1.39063c0.17,0.11 0.36078,0.16016 0.55078,0.16016c0.32,0 0.63984,-0.15922 0.83984,-0.44922c0.3,-0.46 0.16898,-1.08086 -0.29102,-1.38086c-0.115,-0.07775 -0.23969,-0.12799 -0.36719,-0.15234zM54.04883,36.5c-0.08281,-0.00413 -0.16555,0.00228 -0.24805,0.01953c-0.06,0.011 -0.12164,0.03055 -0.18164,0.06055c-0.061,0.02 -0.11869,0.04984 -0.17969,0.08984c-0.049,0.04 -0.10039,0.07914 -0.15039,0.11914c-0.09,0.1 -0.15898,0.21008 -0.20898,0.33008c-0.05,0.12 -0.08008,0.25086 -0.08008,0.38086c0,0.13 0.03008,0.26086 0.08008,0.38086c0.05,0.12 0.11899,0.22908 0.20898,0.33008c0.1,0.09 0.21008,0.15898 0.33008,0.20898c0.12,0.059 0.25086,0.08008 0.38086,0.08008c0.13,0 0.26086,-0.02108 0.38086,-0.08008c0.12,-0.05 0.22908,-0.11898 0.33008,-0.20898c0.09,-0.101 0.15898,-0.21008 0.20898,-0.33008c0.05,-0.12 0.08008,-0.25086 0.08008,-0.38086c0,-0.26 -0.10906,-0.52194 -0.28906,-0.71094c-0.1725,-0.17325 -0.41367,-0.27669 -0.66211,-0.28906zM26.04883,36.50391c-0.08281,-0.00455 -0.16555,0.00062 -0.24805,0.01563c-0.06,0.011 -0.12164,0.03055 -0.18164,0.06055c-0.061,0.02 -0.11869,0.04984 -0.17969,0.08984c-0.049,0.03 -0.10039,0.07914 -0.15039,0.11914c-0.09,0.1 -0.15898,0.20008 -0.20898,0.33008c-0.06,0.12 -0.08008,0.25086 -0.08008,0.38086c0,0.27 0.09906,0.52094 0.28906,0.71094c0.1,0.09 0.21008,0.15898 0.33008,0.20898c0.12,0.05 0.25086,0.08008 0.38086,0.08008c0.27,0 0.52094,-0.10006 0.71094,-0.28906c0.189,-0.19 0.28906,-0.44094 0.28906,-0.71094c0,-0.13 -0.03008,-0.26086 -0.08008,-0.38086c-0.05,-0.13 -0.11898,-0.23008 -0.20898,-0.33008c-0.1725,-0.17325 -0.41367,-0.27152 -0.66211,-0.28516zM52.96289,40.4082c-0.38302,-0.07266 -0.79019,0.08664 -1.02344,0.43164c-0.3,0.46 -0.18094,1.08086 0.28906,1.38086c0.17,0.12 0.36078,0.16992 0.55078,0.16992c0.319,0 0.64108,-0.16117 0.83008,-0.45117c0.301,-0.46 0.1807,-1.07891 -0.2793,-1.37891c-0.115,-0.0775 -0.23951,-0.12812 -0.36719,-0.15234zM27.04688,40.42773c-0.12766,0.02436 -0.25219,0.07459 -0.36719,0.15234c-0.46,0.31 -0.58053,0.93062 -0.26953,1.39063c0.19,0.29 0.50908,0.43945 0.83008,0.43945c0.19,0 0.38078,-0.05092 0.55078,-0.16992c0.46,-0.301 0.5903,-0.92086 0.2793,-1.38086c-0.2325,-0.345 -0.64047,-0.50472 -1.02344,-0.43164zM16.52344,41.00781c1.15338,0.01483 2.42463,0.06045 3.77148,0.13477c0.12967,0.64454 0.30965,1.26876 0.52539,1.87695c-5.81221,0.0958 -9.67913,0.83952 -11.51562,1.28711c-0.13654,-0.98387 -0.22939,-1.98286 -0.27148,-2.99414c1.61705,-0.17142 4.06646,-0.3487 7.49023,-0.30469zM63.47656,41.00781c3.42377,-0.04401 5.87318,0.13327 7.49023,0.30469c-0.0421,1.01129 -0.13494,2.01027 -0.27148,2.99414c-1.83876,-0.44814 -5.71311,-1.19286 -11.53711,-1.28711c0.21516,-0.60744 0.39209,-1.23133 0.52148,-1.875c1.3567,-0.07524 2.63611,-0.1218 3.79687,-0.13672zM49.64844,43.27734c-0.12758,0.02506 -0.25219,0.07484 -0.36719,0.15234c-0.461,0.3 -0.58148,0.93086 -0.27148,1.38086c0.19,0.29 0.50103,0.45017 0.83203,0.45117c0.191,0 0.37883,-0.05992 0.54883,-0.16992c0.46,-0.31 0.58125,-0.93062 0.28125,-1.39062c-0.23325,-0.345 -0.6407,-0.49902 -1.02344,-0.42383zM30.37305,43.29102c-0.38302,-0.07125 -0.79019,0.08273 -1.02344,0.42773c-0.3,0.46 -0.17875,1.08062 0.28125,1.39063c0.17,0.111 0.35883,0.16116 0.54883,0.16016c0.33,0 0.63984,-0.14945 0.83984,-0.43945c0.3,-0.46 0.1807,-1.07962 -0.2793,-1.39062c-0.115,-0.075 -0.23952,-0.12469 -0.36719,-0.14844zM21.72461,45.00391c0.82067,1.46681 1.91949,2.78711 3.33203,3.89063c2.28613,1.78598 5.32499,3.01983 9.07813,3.64063c-0.49508,0.40893 -0.95385,0.87846 -1.36719,1.38867c-0.25524,0.21177 -1.10151,0.59103 -2.16992,0.78516c-1.14437,0.20793 -2.49473,0.29102 -3.59766,0.29102c-1.86991,0 -3.1941,-1.20137 -4.43164,-2.68164c-0.64629,-0.85783 -1.4469,-1.60042 -2.22461,-2.17187c-0.79179,-0.5818 -1.47445,-1.00387 -2.26367,-1.13281l-0.08008,-0.01367h-0.08203c-0.59481,0 -1.12663,0.05994 -1.5918,0.58008c-0.23258,0.26007 -0.39062,0.7367 -0.28711,1.14258c0.10351,0.40588 0.36541,0.65746 0.61133,0.81836h0.00195c2.13509,1.39371 2.50741,4.22561 3.6875,6.38477c1.07009,2.08598 3.3608,3.07422 5.77734,3.07422h3.89648c-0.00307,0.09471 -0.01367,0.19131 -0.01367,0.28516v8.06055c-10.28867,-3.50082 -18.14104,-12.24671 -20.36328,-23.06445c1.72728,-0.43001 5.80387,-1.2524 12.08789,-1.27734zM58.25391,45.00391c6.29647,0.02305 10.38005,0.84683 12.10938,1.27734c-2.22224,10.81774 -10.07461,19.56363 -20.36328,23.06445v-8.06055c0,-2.1748 -0.76281,-4.62461 -2.07422,-6.63477c-0.52492,-0.8046 -1.15658,-1.54383 -1.875,-2.14844c3.65909,-0.63188 6.62832,-1.85378 8.87305,-3.60742c1.41267,-1.10361 2.51017,-2.42339 3.33008,-3.89062zM20.35938,52.92969c0.21064,0.22224 0.46702,0.39136 0.64063,0.625l0.01563,0.02344l0.01953,0.02148c1.35246,1.61773 3.23076,3.40039 5.96484,3.40039c1.19907,0 2.6352,-0.08245 3.95508,-0.32227c0.04928,-0.00895 0.09554,-0.02014 0.14453,-0.0293c-0.35181,0.76758 -0.62825,1.55881 -0.81445,2.35156h-4.16797c-1.89696,0 -3.34071,-0.70066 -4,-1.99023l-0.00781,-0.01367l-0.00781,-0.01367c-0.48225,-0.87682 -0.91202,-2.47405 -1.74219,-4.05273zM38.05078,53h4.19922c1.48598,0 2.91141,1.07359 4,2.74219c1.08859,1.6686 1.75,3.86077 1.75,5.54297v8.66992c-2.55221,0.67888 -5.23274,1.04492 -8,1.04492c-2.76726,0 -5.44779,-0.36604 -8,-1.04492v-8.66992c0,-1.65627 0.72436,-3.84548 1.88477,-5.51953c0.11485,-0.16568 0.23592,-0.32083 0.35742,-0.47461c0.02801,-0.02909 0.05876,-0.05357 0.08594,-0.08398l-0.01367,-0.01172c1.09277,-1.34649 2.4271,-2.19531 3.73633,-2.19531zM36,60c-0.55228,0 -1,0.44772 -1,1c0,0.55228 0.44772,1 1,1c0.55228,0 1,-0.44772 1,-1c0,-0.55228 -0.44772,-1 -1,-1zM40,60c-0.55228,0 -1,0.44772 -1,1c0,0.55228 0.44772,1 1,1c0.55228,0 1,-0.44772 1,-1c0,-0.55228 -0.44772,-1 -1,-1zM44,60c-0.55228,0 -1,0.44772 -1,1c0,0.55228 0.44772,1 1,1c0.55228,0 1,-0.44772 1,-1c0,-0.55228 -0.44772,-1 -1,-1zM36,64c-0.55228,0 -1,0.44772 -1,1c0,0.55228 0.44772,1 1,1c0.55228,0 1,-0.44772 1,-1c0,-0.55228 -0.44772,-1 -1,-1zM40,64c-0.55228,0 -1,0.44772 -1,1c0,0.55228 0.44772,1 1,1c0.55228,0 1,-0.44772 1,-1c0,-0.55228 -0.44772,-1 -1,-1zM44,64c-0.55228,0 -1,0.44772 -1,1c0,0.55228 0.44772,1 1,1c0.55228,0 1,-0.44772 1,-1c0,-0.55228 -0.44772,-1 -1,-1zM36,68c-0.55228,0 -1,0.44772 -1,1c0,0.55228 0.44772,1 1,1c0.55228,0 1,-0.44772 1,-1c0,-0.55228 -0.44772,-1 -1,-1zM40,68c-0.55228,0 -1,0.44772 -1,1c0,0.55228 0.44772,1 1,1c0.55228,0 1,-0.44772 1,-1c0,-0.55228 -0.44772,-1 -1,-1zM44,68c-0.55228,0 -1,0.44772 -1,1c0,0.55228 0.44772,1 1,1c0.55228,0 1,-0.44772 1,-1c0,-0.55228 -0.44772,-1 -1,-1z"></path></g></g></svg>