<svg width="148" height="148" viewBox="0 0 148 148" fill="none" xmlns="http://www.w3.org/2000/svg">
<g filter="url(#filter0_dd_3_302)">
<rect x="6" y="6" width="128" height="128" rx="20" fill="#F5F5F5"/>
<rect x="8.5" y="8.5" width="123" height="123" rx="17.5" stroke="url(#paint0_linear_3_302)" stroke-width="5"/>
</g>
<g clip-path="url(#clip0_3_302)">
<path d="M120 39.596H20L29.3748 111.816L69.9949 120L110.615 111.816L120 39.596Z" fill="#E6A329"/>
<path d="M69.9949 45.4799V113.88L102.906 107.256L110.913 45.4799H69.9949Z" fill="#F1BF22"/>
<path d="M96.178 54.3398H45.5747L42.0501 81.3768L42.1227 81.2086H85.1129L83.7127 92.6483L69.9962 95.4515L56.0772 92.6031L55.2435 85.6792H42.6089L44.4113 99.5142L69.9962 104.674L95.5925 99.5142L99.1172 72.3579H53.492L54.0776 63.3099H85.7328L86.2063 68.494H98.9478L96.178 54.3398Z" fill="white"/>
<path d="M70.0064 54.3398H45.5747L42.0501 81.3768L42.1227 81.2086H70.0051V72.3886H55.2715L55.857 63.3406H70.0064V54.3398ZM55.2715 85.6838H42.6076L44.41 99.5115L69.9949 104.666V95.4641L56.076 92.6085L55.2715 85.6838Z" fill="#EBEBEB"/>
<path d="M60.2714 28.9439H51.3688V33.4842H66.6434V20H60.279L60.2714 28.9439ZM88.6273 20.0723H73.1084V24.7925C75.1806 26.2646 76.2613 26.9727 79.3137 29.1049H73.1084V33.4091H88.626V29.1121L82.4271 24.7998H88.6324L88.6273 20.0723Z" fill="#231F20"/>
</g>
<defs>
<filter id="filter0_dd_3_302" x="0" y="0" width="148" height="148" filterUnits="userSpaceOnUse" color-interpolation-filters="sRGB">
<feFlood flood-opacity="0" result="BackgroundImageFix"/>
<feColorMatrix in="SourceAlpha" type="matrix" values="0 0 0 0 0 0 0 0 0 0 0 0 0 0 0 0 0 0 127 0" result="hardAlpha"/>
<feOffset dx="4" dy="4"/>
<feGaussianBlur stdDeviation="5"/>
<feComposite in2="hardAlpha" operator="out"/>
<feColorMatrix type="matrix" values="0 0 0 0 0 0 0 0 0 0 0 0 0 0 0 0 0 0 1 0"/>
<feBlend mode="normal" in2="BackgroundImageFix" result="effect1_dropShadow_3_302"/>
<feColorMatrix in="SourceAlpha" type="matrix" values="0 0 0 0 0 0 0 0 0 0 0 0 0 0 0 0 0 0 127 0" result="hardAlpha"/>
<feOffset dy="4"/>
<feGaussianBlur stdDeviation="2"/>
<feComposite in2="hardAlpha" operator="out"/>
<feColorMatrix type="matrix" values="0 0 0 0 0 0 0 0 0 0 0 0 0 0 0 0 0 0 0.25 0"/>
<feBlend mode="normal" in2="effect1_dropShadow_3_302" result="effect2_dropShadow_3_302"/>
<feBlend mode="normal" in="SourceGraphic" in2="effect2_dropShadow_3_302" result="shape"/>
</filter>
<linearGradient id="paint0_linear_3_302" x1="-13.0588" y1="-13.7143" x2="178.885" y2="117.157" gradientUnits="userSpaceOnUse">
<stop offset="0.34375" stop-color="#472010" stop-opacity="0.67"/>
<stop offset="0.723958" stop-color="#472010"/>
</linearGradient>
<clipPath id="clip0_3_302">
<rect width="100" height="100" fill="white" transform="translate(20 20)"/>
</clipPath>
</defs>
</svg>
