<svg width="148" height="148" viewBox="0 0 148 148" fill="none" xmlns="http://www.w3.org/2000/svg">
<g filter="url(#filter0_dd_3_301)">
<rect x="6" y="6" width="128" height="128" rx="20" fill="#F5F5F5"/>
<rect x="8.5" y="8.5" width="123" height="123" rx="17.5" stroke="url(#paint0_linear_3_301)" stroke-width="5"/>
</g>
<g clip-path="url(#clip0_3_301)">
<path d="M111.208 98.8569H110.578V98.6418H112.276V98.8524H111.649V99.9037H111.208V98.8569ZM114.595 98.9118H114.584L113.959 99.9091H113.673L113.052 98.9118V99.9091H112.636V98.649H113.248L113.823 99.5428L114.397 98.649H115V99.9091H114.595V98.9118Z" fill="#E76F00"/>
<path d="M54.7549 73.0453C54.7549 73.0453 50.3678 74.57 57.8781 75.0857C65.7979 75.7512 73.8547 75.5471 81.6519 74.4836C83.6662 75.2037 85.7796 75.8201 87.9689 76.326C65.4923 82.0809 37.1008 75.993 54.7549 73.0453ZM52.0084 65.5317C52.0084 65.5317 47.0879 67.708 54.6028 68.1725C64.8387 68.8995 75.206 68.602 85.2782 67.2922C86.6398 68.0531 88.2484 68.6388 90.0043 69.0131C62.8287 73.76 32.5615 69.3875 52.0084 65.5317Z" fill="#5382A1"/>
<path d="M75.1616 52.796C80.6997 56.605 73.7062 60.0333 73.7062 60.0333C73.7062 60.0333 87.7671 55.6969 81.3099 50.266C75.2836 45.2014 70.6524 42.6849 95.6932 34.0093C95.6932 34.0093 56.3881 39.874 75.1616 52.796Z" fill="#E76F00"/>
<path d="M104.889 78.6004C104.889 78.6004 108.136 80.1989 101.314 81.4347C88.3411 83.7829 47.317 84.4948 35.9287 81.5247C31.8324 80.4599 39.5144 78.982 41.9309 78.6724C43.2264 78.4815 44.5576 78.3907 45.8917 78.4024C41.3359 76.4853 16.4442 82.1673 33.2485 83.7946C79.0741 88.2345 116.785 81.7956 104.898 78.5923M56.8747 57.7472C56.8747 57.7472 36.0071 60.7083 49.4925 61.783C55.1828 62.2384 66.5274 62.1349 77.093 61.603C85.7287 61.1674 94.4006 60.243 94.4006 60.243C92.5782 60.7163 90.8233 61.2774 89.1532 61.9207C67.9631 65.2509 27.0279 63.701 38.8123 60.2952C44.4105 58.5986 50.605 57.7239 56.8822 57.7436M94.2936 70.2552C115.838 63.5678 105.875 57.1414 98.9233 58.0073C98.0861 58.0999 97.2624 58.232 96.4601 58.4024C96.9165 58.0153 97.5583 57.7197 98.3011 57.5546C112.053 54.6663 122.631 66.0735 93.8612 70.5918C94.0407 70.4969 94.188 70.3823 94.2951 70.2543" fill="#5382A1"/>
<path d="M81.3114 20.0009C81.3114 20.0009 93.2405 27.1302 69.997 38.0919C51.3576 46.8854 65.7469 51.8996 69.9895 57.6293C59.1089 51.7645 51.1256 46.6019 56.4815 41.7974C64.3443 34.7446 86.1249 31.3253 81.3114 20.0009Z" fill="#E76F00"/>
<path d="M58.9824 88.3749C79.6587 89.1661 111.411 87.9366 112.165 82.0917C112.165 82.0917 110.72 84.3076 95.077 86.0672C77.7819 87.8397 60.1317 88.0018 42.7535 86.5478C42.7535 86.5478 45.3961 87.8547 58.9854 88.3749" fill="#5382A1"/>
<path d="M55.5941 110.709C54.0128 111.63 51.938 112.189 49.735 112.287C49.1832 112.318 48.6267 112.275 48.1057 112.162C47.5848 112.049 47.1125 111.868 46.7231 111.633C46.3337 111.397 46.0369 111.112 45.8543 110.8C45.6717 110.487 45.6078 110.154 45.6673 109.825C45.6673 108.185 47.1949 106.986 53.3237 106.986H55.5911V110.709M60.9726 114.337V103.107C60.9726 100.239 58.2336 98.3457 51.6318 98.3457C48.1914 98.3557 44.7927 98.7966 41.6552 99.64L42.4477 101.628C44.9096 101.064 47.5147 100.754 50.1508 100.713C53.9549 100.713 55.5911 101.628 55.5911 103.519V104.939H53.6928C44.4514 104.939 40.2842 107.082 40.2842 110.298C40.2842 113.075 43.0322 114.653 48.2043 114.653C51.2455 114.622 54.1524 113.899 56.3323 112.632L56.7542 114.337H60.9726ZM78.934 114.337H72.2252L64.147 98.6265H70.006L75.0184 108.277L76.1333 111.18C78.6243 107.119 80.3775 102.911 81.3626 98.6265H87.065C85.5011 104.05 82.7691 109.329 78.937 114.333M104.689 110.705C103.104 111.627 101.027 112.185 98.8224 112.283C98.2706 112.314 97.7142 112.272 97.1934 112.158C96.6726 112.045 96.2004 111.864 95.811 111.629C95.4217 111.393 95.1249 111.109 94.9422 110.796C94.7595 110.483 94.6954 110.151 94.7546 109.821C94.7546 108.181 96.2853 106.983 102.413 106.983H104.684V110.705M110.066 114.333V103.107C110.066 100.239 107.321 98.3457 100.725 98.3457C97.2843 98.3556 93.8851 98.7965 90.7471 99.64L91.5381 101.628C94.0016 101.064 96.6081 100.754 99.2457 100.713C103.047 100.713 104.686 101.628 104.686 103.519V104.939H102.788C93.5433 104.939 89.3791 107.082 89.3791 110.298C89.3791 113.075 92.1241 114.653 97.2962 114.653C100.34 114.622 103.249 113.9 105.432 112.632L105.855 114.337H110.074L110.066 114.333ZM34.3785 117C32.6956 118.382 30.3506 119.427 27.6531 119.996L24.9955 118.128C26.9411 117.548 28.5603 116.641 29.6538 115.518C30.3649 114.671 30.6602 113.579 30.6602 110.969V93.0462H36.3852V110.732C36.3852 114.222 35.9182 115.631 34.3845 117.006" fill="#E76F00"/>
</g>
<defs>
<filter id="filter0_dd_3_301" x="0" y="0" width="148" height="148" filterUnits="userSpaceOnUse" color-interpolation-filters="sRGB">
<feFlood flood-opacity="0" result="BackgroundImageFix"/>
<feColorMatrix in="SourceAlpha" type="matrix" values="0 0 0 0 0 0 0 0 0 0 0 0 0 0 0 0 0 0 127 0" result="hardAlpha"/>
<feOffset dx="4" dy="4"/>
<feGaussianBlur stdDeviation="5"/>
<feComposite in2="hardAlpha" operator="out"/>
<feColorMatrix type="matrix" values="0 0 0 0 0 0 0 0 0 0 0 0 0 0 0 0 0 0 1 0"/>
<feBlend mode="normal" in2="BackgroundImageFix" result="effect1_dropShadow_3_301"/>
<feColorMatrix in="SourceAlpha" type="matrix" values="0 0 0 0 0 0 0 0 0 0 0 0 0 0 0 0 0 0 127 0" result="hardAlpha"/>
<feOffset dy="4"/>
<feGaussianBlur stdDeviation="2"/>
<feComposite in2="hardAlpha" operator="out"/>
<feColorMatrix type="matrix" values="0 0 0 0 0 0 0 0 0 0 0 0 0 0 0 0 0 0 0.25 0"/>
<feBlend mode="normal" in2="effect1_dropShadow_3_301" result="effect2_dropShadow_3_301"/>
<feBlend mode="normal" in="SourceGraphic" in2="effect2_dropShadow_3_301" result="shape"/>
</filter>
<linearGradient id="paint0_linear_3_301" x1="-13.0588" y1="-13.7143" x2="178.885" y2="117.157" gradientUnits="userSpaceOnUse">
<stop offset="0.34375" stop-color="#472010" stop-opacity="0.67"/>
<stop offset="0.723958" stop-color="#472010"/>
</linearGradient>
<clipPath id="clip0_3_301">
<rect width="90" height="100" fill="white" transform="translate(25 20)"/>
</clipPath>
</defs>
</svg>
