<svg width="148" height="148" viewBox="0 0 148 148" fill="none" xmlns="http://www.w3.org/2000/svg">
<g filter="url(#filter0_dd_3_296)">
<rect x="6" y="6" width="128" height="128" rx="20" fill="#F5F5F5"/>
<rect x="8.5" y="8.5" width="123" height="123" rx="17.5" stroke="url(#paint0_linear_3_296)" stroke-width="5"/>
</g>
<path d="M21.5633 85.6703H24.7727V72.9961L29.7414 84.0453C30.3273 85.3828 31.1297 85.8555 32.7039 85.8555C34.2781 85.8555 35.05 85.3828 35.6359 84.0453L40.6047 72.9961V85.6703H43.8141V73.0172C43.8141 71.7828 43.3203 71.1852 42.3016 70.8774C39.8633 70.1164 38.2273 70.775 37.4867 72.4211L32.6109 83.3258L27.8898 72.4203C27.1797 70.775 25.5133 70.1164 23.075 70.8766C22.0563 71.1852 21.5625 71.782 21.5625 73.0164L21.5633 85.6703ZM46.4836 75.3531H49.6922V82.336C49.6625 82.7149 49.8141 83.6055 51.5719 83.6336C52.4687 83.6477 58.4953 83.6336 58.5516 83.6336V75.3188H61.768C61.7828 75.3188 61.7648 86.6578 61.7648 86.7047C61.782 89.5016 58.2953 90.1086 56.6875 90.1555H46.5531V87.9961C46.5703 87.9961 56.6805 87.9985 56.7055 87.9953C58.7719 87.7774 58.5273 86.7508 58.5266 86.4055V85.5633H51.7055C48.532 85.5344 46.5102 84.1492 46.4844 82.5555C46.4828 82.4094 46.5539 75.4235 46.4836 75.3531Z" fill="#00618A"/>
<path d="M64.2422 85.6703H73.4703C74.5508 85.6703 75.6008 85.4445 76.4336 85.0539C77.8219 84.4164 78.5008 83.5523 78.5008 82.4195V80.0742C78.5008 79.1484 77.7297 78.2836 76.2172 77.7086C75.4148 77.3992 74.4266 77.2359 73.4695 77.2359H69.5805C68.2844 77.2359 67.6672 76.8453 67.5133 75.9812C67.4828 75.8781 67.4828 75.7961 67.4828 75.693V74.232C67.4828 74.15 67.4828 74.0672 67.5133 73.9648C67.6672 73.3062 68.007 73.1211 69.1492 73.018L69.4578 72.9976H78.6242V70.8586H69.6125C68.3164 70.8586 67.6375 70.9406 67.0203 71.1258C65.107 71.7227 64.2727 72.6687 64.2727 74.3148V76.1867C64.2727 77.6273 65.9094 78.8617 68.6555 79.15C68.9648 79.1695 69.2727 79.1914 69.5812 79.1914H72.9148C73.0383 79.1914 73.1617 79.1914 73.2547 79.2109C74.2734 79.293 74.7047 79.4789 75.0141 79.8484C75.1992 80.0336 75.2602 80.2195 75.2602 80.4242V82.2969C75.2602 82.5226 75.1062 82.8109 74.7977 83.0578C74.5203 83.3047 74.057 83.4695 73.4398 83.5109L73.1 83.5312H64.2422V85.6703ZM98.5242 81.9469C98.5242 84.1476 100.16 85.382 103.462 85.6297C103.77 85.65 104.079 85.6703 104.387 85.6703H112.752V83.5312H104.327C102.444 83.5312 101.734 83.0578 101.734 81.9258V70.857H98.525L98.5242 81.9469ZM80.5492 82.0578V74.4289C80.5492 72.4914 81.9102 71.3156 84.6008 70.9445C84.8789 70.9031 85.1891 70.8828 85.4664 70.8828H91.5594C91.8687 70.8828 92.1469 70.9031 92.4555 70.9445C95.1461 71.3156 96.5078 72.4906 96.5078 74.4289V82.0578C96.5078 83.6312 95.9297 84.4719 94.5977 85.0203L97.7602 87.8742H94.0328L91.475 85.5648L88.9 85.7281H85.4664C84.8789 85.7281 84.2609 85.6461 83.5805 85.4602C81.5391 84.9039 80.5492 83.8312 80.5492 82.0578ZM84.0133 81.8726C84.0133 81.9758 84.0437 82.0797 84.075 82.2031C84.2602 83.0898 85.0961 83.5844 86.3633 83.5844H89.2789L86.6008 81.1664H90.3281L92.6633 83.2758C93.0945 83.0453 93.3773 82.6953 93.4766 82.2445C93.507 82.1414 93.507 82.0383 93.507 81.9352V74.6164C93.507 74.5344 93.507 74.4305 93.4766 74.3273C93.2906 73.5023 92.4555 73.0289 91.2188 73.0289H86.3625C84.9406 73.0289 84.0125 73.6476 84.0125 74.6164L84.0133 81.8726Z" fill="#E48E00"/>
<path d="M115.575 67.3063C113.602 67.2523 112.095 67.4359 110.806 67.9789C110.44 68.1336 109.856 68.1375 109.797 68.5961C109.998 68.8078 110.029 69.1227 110.189 69.382C110.497 69.8797 111.016 70.5469 111.48 70.8961C111.985 71.2781 112.507 71.6875 113.051 72.0187C114.016 72.6078 115.094 72.9437 116.024 73.5328C116.572 73.8812 117.116 74.3187 117.651 74.7117C117.916 74.9047 118.092 75.207 118.437 75.3281V75.2727C118.256 75.043 118.209 74.7273 118.044 74.4867L117.314 73.757C116.601 72.8102 115.696 71.9797 114.733 71.2891C113.966 70.7383 112.248 69.9937 111.928 69.1008L111.872 69.0453C112.416 68.9836 113.053 68.7867 113.555 68.6523C114.398 68.4258 115.152 68.4844 116.023 68.2594L117.202 67.9219V67.6984C116.762 67.2469 116.447 66.6484 115.967 66.2398C114.712 65.1703 113.34 64.1016 111.928 63.2094C111.145 62.7156 110.177 62.3945 109.347 61.9758C109.069 61.8344 108.578 61.7617 108.393 61.5266C107.956 60.9711 107.72 60.2672 107.383 59.6195C106.68 58.2641 105.987 56.7828 105.363 55.3555C104.938 54.3828 104.66 53.4234 104.13 52.5508C101.582 48.3625 98.8398 45.8344 94.5922 43.35C93.6883 42.8211 92.6 42.6133 91.4508 42.3406L89.5992 42.2281C89.2234 42.0711 88.8312 41.6102 88.4773 41.3867C87.0695 40.4977 83.4601 38.5641 82.418 41.107C81.7601 42.7117 83.4023 44.2773 83.9891 45.0906C84.4008 45.6609 84.9289 46.3 85.2234 46.9414C85.4172 47.3633 85.45 47.7859 85.6164 48.232C86.0234 49.3305 86.3789 50.5266 86.9062 51.5414C87.1726 52.0555 87.4672 52.5969 87.8039 53.0562C88.0101 53.3375 88.3648 53.4625 88.4203 53.8977C88.0742 54.382 88.0539 55.1352 87.8594 55.7484C86.9828 58.5133 87.3133 61.95 88.5891 63.9961C88.9805 64.625 89.9023 65.9719 91.1695 65.4547C92.2781 65.0031 92.0312 63.6039 92.3484 62.3687C92.4203 62.0898 92.3758 61.8836 92.5164 61.6961V61.7523L93.5266 63.7719C94.2742 64.9758 95.6 66.2328 96.7242 67.082C97.307 67.5219 97.7664 68.2836 98.5195 68.5406V68.4836H98.4641C98.3172 68.2562 98.0898 68.1625 97.9023 67.9789C97.4633 67.5484 96.975 67.0141 96.6125 66.5203C95.5898 65.1328 94.6867 63.6133 93.8633 62.032C93.4703 61.2773 93.1289 60.4445 92.7976 59.6758C92.6695 59.3797 92.6711 58.9312 92.4055 58.7789C92.0414 59.3414 91.5078 59.7969 91.2266 60.4617C90.7781 61.5242 90.7203 62.8203 90.5539 64.1641L90.4414 64.2195C89.6594 64.0312 89.3851 63.2266 89.0945 62.5367C88.3601 60.7922 88.2234 57.982 88.8703 55.9734C89.0375 55.4531 89.793 53.8164 89.4867 53.3359C89.3406 52.857 88.8586 52.5805 88.5898 52.2133C88.2562 51.7609 87.9226 51.1656 87.6922 50.6422C87.0906 49.282 86.8101 47.7547 86.1781 46.3789C85.875 45.7211 85.3641 45.0562 84.9437 44.4719C84.4789 43.8234 83.9578 43.3469 83.5969 42.5641C83.4687 42.2859 83.2945 41.8398 83.4844 41.5539C83.5445 41.3609 83.6312 41.2805 83.8219 41.2172C84.1469 40.9664 85.0531 41.3008 85.3922 41.4414C86.2922 41.8156 87.043 42.1711 87.8055 42.6758C88.1711 42.9187 88.5406 43.3875 88.9836 43.5172H89.4883C90.2781 43.6984 91.1633 43.5727 91.9008 43.7969C93.2055 44.1937 94.3742 44.8102 95.4351 45.4805C98.6687 47.5227 101.312 50.4289 103.121 53.8961C103.412 54.4547 103.538 54.9867 103.794 55.5789C104.311 56.7727 104.962 58.0016 105.477 59.1695C105.99 60.3344 106.491 61.5102 107.216 62.4797C107.598 62.9891 109.071 63.2625 109.741 63.5453C110.21 63.7437 110.979 63.9508 111.423 64.218C112.273 64.7305 113.096 65.3406 113.892 65.9016C114.29 66.1844 115.514 66.7992 115.575 67.3063ZM90.4976 45.932C90.0867 45.9242 89.7953 45.9773 89.4875 46.0445V46.1H89.5437C89.7398 46.5039 90.0859 46.7633 90.3289 47.1102L90.8906 48.2883L90.9461 48.2328C91.2937 47.9883 91.4523 47.5969 91.4508 46.9984C91.3109 46.8516 91.2906 46.668 91.1703 46.4937C91.0109 46.2594 90.7 46.1281 90.4976 45.932Z" fill="#00618A"/>
<defs>
<filter id="filter0_dd_3_296" x="0" y="0" width="148" height="148" filterUnits="userSpaceOnUse" color-interpolation-filters="sRGB">
<feFlood flood-opacity="0" result="BackgroundImageFix"/>
<feColorMatrix in="SourceAlpha" type="matrix" values="0 0 0 0 0 0 0 0 0 0 0 0 0 0 0 0 0 0 127 0" result="hardAlpha"/>
<feOffset dx="4" dy="4"/>
<feGaussianBlur stdDeviation="5"/>
<feComposite in2="hardAlpha" operator="out"/>
<feColorMatrix type="matrix" values="0 0 0 0 0 0 0 0 0 0 0 0 0 0 0 0 0 0 1 0"/>
<feBlend mode="normal" in2="BackgroundImageFix" result="effect1_dropShadow_3_296"/>
<feColorMatrix in="SourceAlpha" type="matrix" values="0 0 0 0 0 0 0 0 0 0 0 0 0 0 0 0 0 0 127 0" result="hardAlpha"/>
<feOffset dy="4"/>
<feGaussianBlur stdDeviation="2"/>
<feComposite in2="hardAlpha" operator="out"/>
<feColorMatrix type="matrix" values="0 0 0 0 0 0 0 0 0 0 0 0 0 0 0 0 0 0 0.25 0"/>
<feBlend mode="normal" in2="effect1_dropShadow_3_296" result="effect2_dropShadow_3_296"/>
<feBlend mode="normal" in="SourceGraphic" in2="effect2_dropShadow_3_296" result="shape"/>
</filter>
<linearGradient id="paint0_linear_3_296" x1="-13.0588" y1="-13.7143" x2="178.885" y2="117.157" gradientUnits="userSpaceOnUse">
<stop offset="0.34375" stop-color="#472010" stop-opacity="0.67"/>
<stop offset="0.723958" stop-color="#472010"/>
</linearGradient>
</defs>
</svg>
