<svg xmlns="http://www.w3.org/2000/svg" data-name="Layer 1" viewBox="0 0 168 168"><path fill="#0bceb2" d="M118.15387 156.0802h-8.30774a2.00641 2.00641 0 0 0 0 4h8.30774a2.00641 2.00641 0 0 0 0-4zM58.15387 156.0802H49.84613a2.00641 2.00641 0 0 0 0 4h8.30774a2.00641 2.00641 0 0 0 0-4zM104 156.0802H64a2 2 0 0 0 0 4H79.94v2H72a2 2 0 0 0 0 4H97a2 2 0 0 0 0-4H88.06v-2H104a2 2 0 0 0 0-4z"/><circle cx="2" cy="150.08" r="2" fill="#2d4356"/><path fill="#2d4356" d="M11 148.0802H8a2 2 0 0 0 0 4h3a2 2 0 0 0 0-4zM160 148.0802h-3a2 2 0 0 0 0 4h3a2 2 0 0 0 0-4z"/><circle cx="166" cy="150.08" r="2" fill="#2d4356"/><path fill="#0bceb2" d="M92.02 79.53021c-.39 1.73-.78 3.89-1.12 6.55H77.11c-.16-1.47-.36-2.81-.57-4H91.47C91.62 81.24017 91.81 80.3902 92.02 79.53021zM93.67 74.0802a23.42958 23.42958 0 0 0-1.31 4H75.69c-.04-.17-.09-.33-.13-.49-.09-.32-.18-.61-.26-.88-.07-.23-.14-.44-.2-.64-.04-.11-.08-.22-.11-.32q-.09-.225-.15-.42c-.1-.28-.19-.51-.26-.69-.12-.31-.21-.49-.23-.54l-.00995-.02z"/><path fill="#2d4356" d="M150.72,148.0802H140.69c3.31-13.17-1.38-22.22-14.3-27.62a16.60181,16.60181,0,0,1-7.81-6.19c-3.5-5.43-1.94-13.18-1.23-15.9a21.07743,21.07743,0,0,0,3.68005-1.46c.64-.31995,1.37994-.68,2.48-1.12994a2.04093,2.04093,0,0,0,1.25-1.84c.02-1.5-.57-1.77-5.2-3.84-.69-.3-1.54-.69-1.7-.77a3.69994,3.69994,0,0,1-.46-.3c.12-.99005.25995-1.99005.4-2.98l.1-.75a3.77181,3.77181,0,0,0-.34-2.57c-.2-.36-.37-.67-6.73-6.23a1.86707,1.86707,0,0,1-.83-1.4,4.31332,4.31332,0,0,1,1.4-2.58l19-16.74a1.97036,1.97036,0,0,0,.68-1.36c1.11-16.25,10.42-23.63,15.87-26.58a2,2,0,1,0-1.9-3.52c-10.29,5.57-16.78,16.11-17.9,29l-18.4,16.21c-.29.25-2.78,2.56-2.75,5.6a5.75133,5.75133,0,0,0,2.22,4.4c2.29,2,4.82,4.25995,5.73,5.12a.21975.21975,0,0,1-.01.08l-.1.77c-.16,1.08-.31,2.17-.44,3.25-.28,2.43,1.69,3.59,2.43,4.03.27.15.76.37994,2.09.97.07.03.14.07.22.1a19.38922,19.38922,0,0,1-2.9.96,1.97777,1.97777,0,0,0-1.39,1.3c-.17.48-3.98,12.05,1.37,20.33a20.49778,20.49778,0,0,0,9.63,7.71c11.35,4.74,14.98,12.17,11.69,23.93H112.85v-12.19a6.94341,6.94341,0,0,0-5.36-6.87v-4.51a6.19875,6.19875,0,0,0-1.48-4.03c-2.7-3.13-11.26-14.31-11.26-29.85,0-10.55,3.94-23.12,16.32-36.55a3.93357,3.93357,0,0,0,1.03-3.07,4.01793,4.01793,0,0,0-1.63-2.86,19.77743,19.77743,0,0,0-15.81-3.29,25.26276,25.26276,0,0,0-2.78-6.26,10.166,10.166,0,0,0,1.21-4.81995c0-5.35-4.08-9.7-9.09-9.7s-9.09,4.35-9.09,9.7a10.166,10.166,0,0,0,1.21,4.81995,25.26276,25.26276,0,0,0-2.78,6.26,19.81672,19.81672,0,0,0-15.81,3.29,4.01793,4.01793,0,0,0-1.63,2.86,3.93357,3.93357,0,0,0,1.03,3.07c30.63,33.24,9.59,61.14,5.06,66.4a6.19875,6.19875,0,0,0-1.48,4.03v4.51a6.94341,6.94341,0,0,0-5.36,6.87v12.19H31.46c-3.29-11.76.34-19.19,11.69-23.93a20.49778,20.49778,0,0,0,9.63-7.71c5.35-8.28,1.54-19.85,1.37-20.33a1.97777,1.97777,0,0,0-1.39-1.3,19.38922,19.38922,0,0,1-2.9-.96c.08-.03.15-.06995.22-.1,1.33-.59,1.82-.82,2.09-.97.74-.44,2.71-1.6,2.43-4.03-.13-1.08-.28-2.17-.44-3.25l-.1-.77a.21975.21975,0,0,1-.01-.08c.91-.86,3.44-3.12,5.72-5.1a5.79643,5.79643,0,0,0,2.23-4.42c.03-3.04-2.46-5.35-2.76-5.61l-18.39-16.2c-1.12-12.89-7.61-23.43-17.9-29a2,2,0,1,0-1.9,3.52c5.45,2.95,14.76,10.33,15.87,26.58a1.97036,1.97036,0,0,0,.68,1.36l18.98,16.73a4.28445,4.28445,0,0,1,1.42,2.59,1.90257,1.90257,0,0,1-.85,1.42c-6.34,5.54-6.51,5.85-6.7,6.19a3.919,3.919,0,0,0-.34,2.68l.09.66c.14.99.28,1.99.4,2.98a3.32814,3.32814,0,0,1-.44.29c-.18.09-1.03.48-1.72.78-4.63,2.07-5.22,2.34-5.2,3.84a2.05722,2.05722,0,0,0,1.25,1.84c1.1.45,1.84.81,2.48,1.12994a21.07743,21.07743,0,0,0,3.68005,1.46c.71,2.73,2.27,10.48-1.23,15.9a16.60181,16.60181,0,0,1-7.81,6.19c-12.92,5.4-17.61,14.45-14.3,27.62H17.28a2.0172,2.0172,0,1,0,0,4H150.72a2.0172,2.0172,0,1,0,0-4Zm-73.61-62c-.16-1.47-.36-2.81-.57-4-.24-1.31-.55-2.65-.92-4h.07c-.04-.17-.09-.33-.13-.49-.09-.32-.18-.61-.26-.88-.07-.23-.14-.44-.2-.64-.04-.11-.08-.22-.11-.32q-.09-.225-.15-.42c-.1-.28-.19-.51-.26-.69-.12-.31-.21-.49-.23-.54l-.00995-.02c-2.62006-7.16-7.17-14.8-14.45-22.7,2.3-1.69,7.23-4.21,14.41-2.18a2.00017,2.00017,0,0,0,1.65-.27,1.9759,1.9759,0,0,0,.88-1.42,20.07292,20.07292,0,0,1,3.31-7.77,1.99816,1.99816,0,0,0-.05-2.32,6.13727,6.13727,0,0,1-1.18005-3.64c0-3.14,2.28-5.7,5.09-5.7s5.09,2.56,5.09,5.7a6.13727,6.13727,0,0,1-1.18005,3.64,1.99816,1.99816,0,0,0-.05,2.32,20.12717,20.12717,0,0,1,3.31,7.76,1.9528,1.9528,0,0,0,.87,1.43,1.99224,1.99224,0,0,0,1.66.27c7.18-2.03,12.11.49,14.43,2.17-7.28,7.91-11.84,15.55-14.46,22.71a23.42958,23.42958,0,0,0-1.31,4h.03c-.08.28-.15.57-.23.85-.05.19-.1.39-.14.6-.39,1.73-.78,3.89-1.12,6.55-1.64,16.67,6.25,29.48,10.45,35H66.65C70.85,115.56018,78.74,102.75018,77.11,86.0802Zm-12.6,39h38.98v4H64.51Zm44.34,23H59.15v-12.19a3.01952,3.01952,0,0,1,1.77-2.82c.03,0,.05.01.08.01h46c.03,0,.05-.01.08-.01a3.01952,3.01952,0,0,1,1.77,2.82Z"/><path fill="#2d4356" d="M76.54 82.0802c-.24-1.31-.55-2.65-.92-4h.07C75.97 79.18017 76.27 80.51019 76.54 82.0802zM92.39 78.0802c-.08.28-.15.57-.23.85.07-.3.14-.58.2-.85zM52 27.91353a3 3 0 1 0-3-3A3.00344 3.00344 0 0 0 52 27.91353zm0-4.5a1.5 1.5 0 1 1-1.5 1.5A1.50148 1.50148 0 0 1 52 23.41353zM90.66667 15.0802a2 2 0 1 0 2 2A2.00229 2.00229 0 0 0 90.66667 15.0802zm0 3a1 1 0 1 1 1-1A1.001 1.001 0 0 1 90.66667 18.0802zM113 5.0802a2 2 0 1 0 2 2A2.00229 2.00229 0 0 0 113 5.0802zm0 3a1 1 0 1 1 1-1A1.001 1.001 0 0 1 113 8.0802zM138.66667 18.0802a2 2 0 1 0 2 2A2.00229 2.00229 0 0 0 138.66667 18.0802zm0 3a1 1 0 1 1 1-1A1.001 1.001 0 0 1 138.66667 21.0802zM6.97137 15.74687a2 2 0 1 0-2 2A2.00229 2.00229 0 0 0 6.97137 15.74687zm-3 0a1 1 0 1 1 1 1A1.001 1.001 0 0 1 3.97137 15.74687z"/><polygon fill="#0bceb2" points="33.498 5.67 34.985 3.715 34.046 3.183 33.092 5.373 33.06 5.373 32.09 3.198 31.135 3.746 32.606 5.655 32.606 5.686 30.305 5.389 30.305 6.453 32.621 6.156 32.621 6.187 31.135 8.095 32.027 8.659 33.044 6.453 33.075 6.453 34.014 8.643 35 8.08 33.498 6.202 33.498 6.171 35.86 6.453 35.86 5.389 33.498 5.702 33.498 5.67"/><polygon fill="#0bceb2" points="70.531 9.332 69.675 10.431 70.189 10.756 70.775 9.485 70.793 9.485 71.333 10.747 71.901 10.423 71.036 9.341 71.036 9.323 72.396 9.485 72.396 8.873 71.036 9.053 71.036 9.035 71.892 7.909 71.352 7.602 70.802 8.864 70.784 8.864 70.226 7.611 69.675 7.927 70.523 9.026 70.523 9.044 69.198 8.873 69.198 9.485 70.531 9.314 70.531 9.332"/><polygon fill="#0bceb2" points="163.971 5.127 163.971 4.083 161.655 4.39 161.655 4.36 163.113 2.441 162.192 1.92 161.256 4.068 161.225 4.068 160.274 1.935 159.337 2.472 160.78 4.345 160.78 4.375 158.523 4.083 158.523 5.127 160.795 4.836 160.795 4.866 159.337 6.738 160.211 7.291 161.21 5.127 161.24 5.127 162.161 7.276 163.128 6.723 161.655 4.881 161.655 4.851 163.971 5.127"/><polygon fill="#0bceb2" points="104.729 33.375 105.987 31.72 105.193 31.27 104.385 33.123 104.358 33.123 103.538 31.283 102.73 31.746 103.975 33.362 103.975 33.388 102.028 33.137 102.028 34.037 103.988 33.785 103.988 33.812 102.73 35.427 103.484 35.903 104.345 34.037 104.371 34.037 105.166 35.89 106 35.414 104.729 33.825 104.729 33.798 106.728 34.037 106.728 33.137 104.729 33.401 104.729 33.375"/></svg>