<svg width="292" height="244" viewBox="0 0 292 244" fill="none" xmlns="http://www.w3.org/2000/svg">
<g filter="url(#filter0_dd_1_3155)">
<rect x="6" y="6" width="272" height="224" rx="20" fill="#F5F5F5"/>
<rect x="8.5" y="8.5" width="267" height="219" rx="17.5" stroke="url(#paint0_linear_1_3155)" stroke-width="5"/>
</g>
<g clip-path="url(#clip0_1_3155)">
<path d="M170.462 178.067H163.538C163.119 178.1 162.729 178.291 162.443 178.599C162.158 178.908 162 179.313 162 179.734C162 180.154 162.158 180.559 162.443 180.868C162.729 181.176 163.119 181.367 163.538 181.4H170.462C170.881 181.367 171.272 181.176 171.557 180.868C171.842 180.559 172 180.154 172 179.734C172 179.313 171.842 178.908 171.557 178.599C171.272 178.291 170.881 178.1 170.462 178.067ZM120.462 178.067H113.538C113.119 178.1 112.729 178.291 112.443 178.599C112.158 178.908 112 179.313 112 179.734C112 180.154 112.158 180.559 112.443 180.868C112.729 181.176 113.119 181.367 113.538 181.4H120.462C120.881 181.367 121.272 181.176 121.557 180.868C121.842 180.559 122 180.154 122 179.734C122 179.313 121.842 178.908 121.557 178.599C121.272 178.291 120.881 178.1 120.462 178.067ZM158.667 178.067H125.333C124.891 178.067 124.467 178.242 124.155 178.555C123.842 178.868 123.667 179.291 123.667 179.734C123.667 180.176 123.842 180.599 124.155 180.912C124.467 181.225 124.891 181.4 125.333 181.4H138.617V183.067H132C131.558 183.067 131.134 183.242 130.822 183.555C130.509 183.868 130.333 184.291 130.333 184.734C130.333 185.176 130.509 185.599 130.822 185.912C131.134 186.225 131.558 186.4 132 186.4H152.833C153.275 186.4 153.699 186.225 154.012 185.912C154.324 185.599 154.5 185.176 154.5 184.734C154.5 184.291 154.324 183.868 154.012 183.555C153.699 183.242 153.275 183.067 152.833 183.067H145.383V181.4H158.667C159.109 181.4 159.533 181.225 159.845 180.912C160.158 180.599 160.333 180.176 160.333 179.734C160.333 179.291 160.158 178.868 159.845 178.555C159.533 178.242 159.109 178.067 158.667 178.067Z" fill="#F26E62"/>
<path d="M73.6667 174.733C74.5871 174.733 75.3333 173.987 75.3333 173.067C75.3333 172.146 74.5871 171.4 73.6667 171.4C72.7462 171.4 72 172.146 72 173.067C72 173.987 72.7462 174.733 73.6667 174.733Z" fill="#472010"/>
<path d="M81.1667 171.4H78.6667C78.2246 171.4 77.8007 171.576 77.4882 171.888C77.1756 172.201 77 172.625 77 173.067C77 173.509 77.1756 173.933 77.4882 174.245C77.8007 174.558 78.2246 174.734 78.6667 174.734H81.1667C81.6087 174.734 82.0326 174.558 82.3452 174.245C82.6577 173.933 82.8333 173.509 82.8333 173.067C82.8333 172.625 82.6577 172.201 82.3452 171.888C82.0326 171.576 81.6087 171.4 81.1667 171.4ZM205.333 171.4H202.833C202.391 171.4 201.967 171.576 201.655 171.888C201.342 172.201 201.167 172.625 201.167 173.067C201.167 173.509 201.342 173.933 201.655 174.245C201.967 174.558 202.391 174.734 202.833 174.734H205.333C205.775 174.734 206.199 174.558 206.512 174.245C206.824 173.933 207 173.509 207 173.067C207 172.625 206.824 172.201 206.512 171.888C206.199 171.576 205.775 171.4 205.333 171.4Z" fill="#472010"/>
<path d="M210.333 174.733C211.254 174.733 212 173.987 212 173.067C212 172.146 211.254 171.4 210.333 171.4C209.413 171.4 208.667 172.146 208.667 173.067C208.667 173.987 209.413 174.733 210.333 174.733Z" fill="#472010"/>
<path d="M148.683 114.275C148.358 115.717 148.033 117.517 147.75 119.734H136.258C136.125 118.509 135.958 117.392 135.783 116.4H148.225C148.35 115.7 148.508 114.992 148.683 114.275ZM150.058 109.734C149.595 110.81 149.23 111.925 148.967 113.067H135.075C135.042 112.925 135 112.792 134.967 112.659C134.892 112.392 134.817 112.15 134.75 111.925C134.692 111.734 134.633 111.559 134.583 111.392C134.55 111.3 134.517 111.209 134.492 111.125C134.442 111 134.4 110.884 134.367 110.775C134.283 110.542 134.208 110.35 134.15 110.2C134.05 109.942 133.975 109.792 133.958 109.75L133.95 109.734H150.058Z" fill="#F26E62"/>
<path d="M197.6 171.4H189.242C192 160.425 188.092 152.883 177.325 148.383C174.678 147.371 172.407 145.571 170.817 143.225C167.9 138.7 169.2 132.242 169.792 129.975C170.85 129.667 171.877 129.259 172.858 128.758C173.392 128.492 174.008 128.192 174.925 127.817C175.228 127.689 175.488 127.477 175.673 127.205C175.858 126.932 175.96 126.612 175.967 126.284C175.983 125.034 175.492 124.809 171.633 123.084C171.058 122.834 170.35 122.509 170.217 122.442C170.083 122.368 169.955 122.285 169.833 122.192C169.933 121.367 170.05 120.534 170.167 119.709L170.25 119.084C170.412 118.359 170.311 117.6 169.967 116.942C169.8 116.642 169.658 116.384 164.358 111.75C164.162 111.621 163.999 111.448 163.879 111.246C163.759 111.044 163.686 110.818 163.667 110.584C163.792 109.753 164.205 108.992 164.833 108.434L180.667 94.4835C180.832 94.3416 180.966 94.1683 181.064 93.9737C181.161 93.7792 181.219 93.5672 181.233 93.3502C182.158 79.8086 189.917 73.6586 194.458 71.2002C194.651 71.0963 194.821 70.9554 194.959 70.7856C195.098 70.6159 195.201 70.4206 195.264 70.2108C195.326 70.0011 195.347 69.7811 195.325 69.5634C195.302 69.3457 195.237 69.1345 195.133 68.9419C195.029 68.7493 194.889 68.579 194.719 68.4409C194.549 68.3027 194.354 68.1993 194.144 68.1367C193.934 68.074 193.714 68.0532 193.497 68.0756C193.279 68.0979 193.068 68.1629 192.875 68.2669C184.3 72.9086 178.892 81.6919 177.958 92.4336L162.625 105.942C162.383 106.15 160.308 108.075 160.333 110.609C160.351 111.319 160.526 112.016 160.846 112.65C161.166 113.284 161.623 113.839 162.183 114.275C164.092 115.942 166.2 117.825 166.958 118.542C166.96 118.564 166.957 118.587 166.95 118.609L166.867 119.25C166.733 120.15 166.608 121.059 166.5 121.959C166.267 123.984 167.908 124.95 168.525 125.317C168.75 125.442 169.158 125.633 170.267 126.125C170.325 126.15 170.383 126.184 170.45 126.209C169.667 126.538 168.859 126.806 168.033 127.009C167.765 127.077 167.518 127.212 167.315 127.402C167.113 127.591 166.961 127.828 166.875 128.092C166.733 128.492 163.558 138.134 168.017 145.034C169.968 147.948 172.77 150.192 176.042 151.459C185.5 155.409 188.525 161.6 185.783 171.4H166.042V161.242C166.062 159.921 165.631 158.633 164.818 157.592C164.006 156.55 162.861 155.818 161.575 155.517V151.759C161.577 150.528 161.14 149.337 160.342 148.4C158.092 145.792 150.958 136.475 150.958 123.525C150.958 114.734 154.242 104.259 164.558 93.0669C164.875 92.7258 165.115 92.3212 165.263 91.8801C165.411 91.439 165.463 90.9715 165.417 90.5086C165.371 90.0379 165.227 89.5822 164.993 89.1714C164.759 88.7606 164.44 88.4041 164.058 88.1252C162.179 86.7671 160.034 85.8209 157.763 85.3484C155.493 84.876 153.149 84.888 150.883 85.3836C150.352 83.5476 149.572 81.7925 148.567 80.1669C149.23 78.932 149.576 77.5519 149.575 76.1503C149.575 71.6919 146.175 68.0669 142 68.0669C137.825 68.0669 134.425 71.6919 134.425 76.1503C134.424 77.5519 134.77 78.932 135.433 80.1669C134.428 81.7925 133.648 83.5476 133.117 85.3836C130.851 84.89 128.507 84.8791 126.237 85.3515C123.967 85.8238 121.822 86.7689 119.942 88.1252C119.56 88.4041 119.241 88.7606 119.007 89.1714C118.773 89.5822 118.629 90.0379 118.583 90.5086C118.537 90.9715 118.589 91.439 118.737 91.8801C118.885 92.3212 119.125 92.7258 119.442 93.0669C144.967 120.767 127.433 144.017 123.658 148.4C122.86 149.337 122.423 150.528 122.425 151.759V155.517C121.139 155.818 119.994 156.55 119.182 157.592C118.369 158.633 117.938 159.921 117.958 161.242V171.4H98.2167C95.475 161.6 98.5 155.409 107.958 151.459C111.23 150.192 114.032 147.948 115.983 145.034C120.442 138.134 117.267 128.492 117.125 128.092C117.039 127.828 116.887 127.591 116.685 127.402C116.482 127.212 116.235 127.077 115.967 127.009C115.141 126.806 114.333 126.538 113.55 126.209C113.617 126.184 113.675 126.15 113.733 126.125C114.842 125.634 115.25 125.442 115.475 125.317C116.092 124.95 117.733 123.984 117.5 121.959C117.392 121.059 117.267 120.15 117.133 119.25L117.05 118.609C117.043 118.587 117.04 118.564 117.042 118.542C117.8 117.825 119.908 115.942 121.808 114.292C122.371 113.853 122.829 113.295 123.151 112.659C123.472 112.022 123.648 111.322 123.667 110.609C123.692 108.075 121.617 106.15 121.367 105.934L106.042 92.4336C105.108 81.6919 99.7 72.9086 91.125 68.2669C90.9324 68.1629 90.7212 68.0979 90.5035 68.0756C90.2857 68.0532 90.0657 68.074 89.856 68.1367C89.6463 68.1993 89.451 68.3027 89.2813 68.4409C89.1115 68.579 88.9706 68.7493 88.8667 68.9419C88.7627 69.1345 88.6977 69.3457 88.6753 69.5634C88.653 69.7811 88.6738 70.0011 88.7364 70.2108C88.7991 70.4206 88.9025 70.6159 89.0406 70.7856C89.1788 70.9554 89.3491 71.0963 89.5417 71.2002C94.0833 73.6586 101.842 79.8086 102.767 93.3502C102.781 93.5672 102.839 93.7792 102.936 93.9737C103.034 94.1683 103.169 94.3416 103.333 94.4835L119.15 108.425C119.788 108.982 120.207 109.747 120.333 110.584C120.312 110.821 120.237 111.051 120.115 111.256C119.992 111.461 119.825 111.636 119.625 111.767C114.342 116.384 114.2 116.642 114.042 116.925C113.686 117.613 113.585 118.404 113.758 119.159L113.833 119.709C113.95 120.534 114.067 121.367 114.167 122.192C114.051 122.282 113.928 122.363 113.8 122.434C113.65 122.509 112.942 122.834 112.367 123.084C108.508 124.809 108.017 125.034 108.033 126.284C108.042 126.612 108.144 126.931 108.329 127.203C108.514 127.475 108.773 127.688 109.075 127.817C109.992 128.192 110.608 128.492 111.142 128.758C112.123 129.259 113.15 129.667 114.208 129.975C114.8 132.25 116.1 138.708 113.183 143.225C111.593 145.571 109.322 147.371 106.675 148.383C95.9084 152.883 92 160.425 94.7584 171.4H86.4C86.1628 171.369 85.9216 171.389 85.6927 171.458C85.4638 171.528 85.2523 171.645 85.0724 171.803C84.8926 171.961 84.7485 172.155 84.6497 172.373C84.551 172.591 84.4999 172.828 84.4999 173.067C84.4999 173.306 84.551 173.543 84.6497 173.761C84.7485 173.978 84.8926 174.173 85.0724 174.331C85.2523 174.488 85.4638 174.606 85.6927 174.675C85.9216 174.745 86.1628 174.765 86.4 174.733H197.6C197.837 174.765 198.078 174.745 198.307 174.675C198.536 174.606 198.748 174.488 198.928 174.331C199.107 174.173 199.252 173.978 199.35 173.761C199.449 173.543 199.5 173.306 199.5 173.067C199.5 172.828 199.449 172.591 199.35 172.373C199.252 172.155 199.107 171.961 198.928 171.803C198.748 171.645 198.536 171.528 198.307 171.458C198.078 171.389 197.837 171.369 197.6 171.4ZM136.258 119.734C136.125 118.509 135.958 117.392 135.783 116.4C135.583 115.309 135.325 114.192 135.017 113.067H135.075C135.042 112.925 135 112.792 134.967 112.659C134.892 112.392 134.817 112.15 134.75 111.925C134.692 111.733 134.633 111.558 134.583 111.392C134.55 111.3 134.517 111.208 134.492 111.125C134.442 111 134.4 110.884 134.367 110.775C134.283 110.542 134.208 110.35 134.15 110.2C134.05 109.942 133.975 109.792 133.958 109.75L133.95 109.734C131.767 103.767 127.975 97.4002 121.908 90.8168C123.825 89.4085 127.933 87.3085 133.917 89.0002C134.149 89.0641 134.391 89.0771 134.629 89.0382C134.866 88.9994 135.092 88.9096 135.292 88.7752C135.493 88.6435 135.663 88.4693 135.79 88.2648C135.916 88.0604 135.997 87.8307 136.025 87.5918C136.475 85.2623 137.415 83.0551 138.783 81.1168C138.979 80.8303 139.079 80.4901 139.072 80.1435C139.064 79.7969 138.949 79.4613 138.742 79.1835C138.099 78.303 137.754 77.2402 137.758 76.1502C137.758 73.5335 139.658 71.4002 142 71.4002C144.342 71.4002 146.242 73.5335 146.242 76.1502C146.245 77.2402 145.901 78.303 145.258 79.1835C145.051 79.4613 144.936 79.7969 144.928 80.1435C144.921 80.4901 145.021 80.8303 145.217 81.1168C146.583 83.0533 147.523 85.2573 147.975 87.5835C148 87.8235 148.078 88.0549 148.203 88.261C148.329 88.4671 148.498 88.6427 148.7 88.7752C148.9 88.9113 149.128 89.0019 149.367 89.0408C149.606 89.0797 149.85 89.0658 150.083 89.0002C156.067 87.3085 160.175 89.4085 162.108 90.8085C156.042 97.4002 152.242 103.767 150.058 109.734C149.595 110.81 149.23 111.925 148.967 113.067H148.992C148.925 113.3 148.867 113.542 148.8 113.775C148.758 113.933 148.717 114.1 148.683 114.275C148.358 115.717 148.033 117.517 147.75 119.734C146.383 133.625 152.958 144.3 156.458 148.9H127.542C131.042 144.3 137.617 133.625 136.258 119.734ZM125.758 152.233H158.242V155.567H125.758V152.233ZM162.708 171.4H121.292V161.242C121.28 160.749 121.414 160.263 121.676 159.845C121.938 159.427 122.318 159.096 122.767 158.892C122.792 158.892 122.808 158.9 122.833 158.9H161.167C161.192 158.9 161.208 158.892 161.233 158.892C161.682 159.096 162.062 159.427 162.324 159.845C162.586 160.263 162.72 160.749 162.708 161.242V171.4Z" fill="#472010"/>
<path d="M135.783 116.4C135.583 115.308 135.325 114.192 135.017 113.067H135.075C135.308 113.983 135.558 115.092 135.783 116.4ZM148.992 113.067C148.925 113.3 148.867 113.542 148.8 113.775C148.858 113.525 148.917 113.292 148.967 113.067H148.992ZM115.333 71.2613C115.828 71.2613 116.311 71.1146 116.722 70.8399C117.133 70.5652 117.454 70.1748 117.643 69.718C117.832 69.2612 117.882 68.7585 117.785 68.2735C117.689 67.7886 117.451 67.3431 117.101 66.9935C116.751 66.6439 116.306 66.4058 115.821 66.3093C115.336 66.2128 114.833 66.2624 114.377 66.4516C113.92 66.6408 113.529 66.9612 113.255 67.3723C112.98 67.7835 112.833 68.2668 112.833 68.7613C112.834 69.4241 113.098 70.0595 113.566 70.5282C114.035 70.9969 114.671 71.2605 115.333 71.2613ZM115.333 67.5113C115.581 67.5113 115.822 67.5846 116.028 67.7219C116.233 67.8593 116.394 68.0545 116.488 68.2829C116.583 68.5113 116.608 68.7627 116.559 69.0051C116.511 69.2476 116.392 69.4703 116.217 69.6452C116.042 69.82 115.82 69.939 115.577 69.9873C115.335 70.0355 115.083 70.0107 114.855 69.9161C114.627 69.8215 114.431 69.6613 114.294 69.4557C114.157 69.2502 114.083 69.0085 114.083 68.7613C114.084 68.4299 114.215 68.1121 114.45 67.8777C114.684 67.6434 115.002 67.5116 115.333 67.5113ZM147.556 60.5668C147.226 60.5668 146.904 60.6646 146.63 60.8477C146.356 61.0309 146.142 61.2911 146.016 61.5957C145.89 61.9002 145.857 62.2353 145.921 62.5586C145.985 62.8819 146.144 63.1789 146.377 63.412C146.61 63.6451 146.907 63.8038 147.23 63.8681C147.554 63.9324 147.889 63.8994 148.193 63.7733C148.498 63.6472 148.758 63.4335 148.941 63.1594C149.124 62.8854 149.222 62.5631 149.222 62.2335C149.222 61.7916 149.046 61.368 148.734 61.0555C148.421 60.7431 147.997 60.5673 147.556 60.5668ZM147.556 63.0668C147.391 63.0668 147.23 63.018 147.093 62.9264C146.956 62.8348 146.849 62.7047 146.786 62.5524C146.723 62.4001 146.706 62.2326 146.738 62.0709C146.77 61.9093 146.85 61.7608 146.966 61.6442C147.083 61.5277 147.231 61.4483 147.393 61.4162C147.555 61.384 147.722 61.4005 147.874 61.4636C148.027 61.5267 148.157 61.6335 148.248 61.7705C148.34 61.9076 148.389 62.0687 148.389 62.2335C148.389 62.4544 148.301 62.6663 148.145 62.8225C147.988 62.9787 147.777 63.0666 147.556 63.0668ZM166.167 52.2335C165.837 52.2335 165.515 52.3312 165.241 52.5144C164.967 52.6975 164.753 52.9578 164.627 53.2624C164.501 53.5669 164.468 53.902 164.532 54.2253C164.596 54.5486 164.755 54.8456 164.988 55.0787C165.221 55.3118 165.518 55.4705 165.842 55.5348C166.165 55.5991 166.5 55.5661 166.804 55.44C167.109 55.3138 167.369 55.1002 167.552 54.8261C167.736 54.552 167.833 54.2298 167.833 53.9002C167.833 53.4583 167.657 53.0347 167.345 52.7222C167.032 52.4098 166.609 52.234 166.167 52.2335ZM166.167 54.7335C166.002 54.7335 165.841 54.6846 165.704 54.5931C165.567 54.5015 165.46 54.3713 165.397 54.2191C165.334 54.0668 165.317 53.8992 165.349 53.7376C165.381 53.5759 165.461 53.4275 165.577 53.3109C165.694 53.1944 165.842 53.115 166.004 53.0828C166.166 53.0507 166.333 53.0672 166.486 53.1303C166.638 53.1933 166.768 53.3001 166.86 53.4372C166.951 53.5742 167 53.7353 167 53.9002C167 54.1211 166.912 54.3329 166.756 54.4892C166.599 54.6454 166.388 54.7333 166.167 54.7335ZM187.556 63.0668C187.226 63.0668 186.904 63.1646 186.63 63.3477C186.356 63.5309 186.142 63.7911 186.016 64.0957C185.89 64.4002 185.857 64.7353 185.921 65.0586C185.985 65.3819 186.144 65.6789 186.377 65.912C186.61 66.1451 186.907 66.3038 187.23 66.3681C187.554 66.4324 187.889 66.3994 188.193 66.2733C188.498 66.1472 188.758 65.9335 188.941 65.6594C189.124 65.3854 189.222 65.0631 189.222 64.7335C189.222 64.2916 189.046 63.868 188.733 63.5555C188.421 63.2431 187.997 63.0673 187.556 63.0668ZM187.556 65.5668C187.391 65.5668 187.23 65.518 187.093 65.4264C186.956 65.3348 186.849 65.2047 186.786 65.0524C186.723 64.9001 186.706 64.7326 186.738 64.5709C186.77 64.4093 186.85 64.2608 186.966 64.1442C187.083 64.0277 187.231 63.9483 187.393 63.9162C187.555 63.884 187.722 63.9005 187.874 63.9636C188.027 64.0267 188.157 64.1335 188.248 64.2705C188.34 64.4076 188.389 64.5687 188.389 64.7335C188.389 64.9544 188.301 65.1663 188.145 65.3225C187.988 65.4787 187.776 65.5666 187.556 65.5668ZM77.8095 61.1224C77.8095 60.7928 77.7117 60.4705 77.5286 60.1964C77.3454 59.9224 77.0852 59.7087 76.7806 59.5826C76.4761 59.4564 76.141 59.4234 75.8177 59.4877C75.4944 59.5521 75.1974 59.7108 74.9643 59.9439C74.7312 60.177 74.5725 60.4739 74.5082 60.7972C74.4439 61.1205 74.4769 61.4557 74.603 61.7602C74.7291 62.0647 74.9428 62.325 75.2169 62.5082C75.4909 62.6913 75.8132 62.7891 76.1428 62.7891C76.5847 62.7886 77.0083 62.6128 77.3208 62.3003C77.6332 61.9879 77.809 61.5643 77.8095 61.1224ZM75.3095 61.1224C75.3095 60.9576 75.3583 60.7965 75.4499 60.6594C75.5415 60.5224 75.6716 60.4156 75.8239 60.3525C75.9762 60.2894 76.1437 60.2729 76.3054 60.3051C76.467 60.3372 76.6155 60.4166 76.7321 60.5331C76.8486 60.6497 76.928 60.7982 76.9601 60.9598C76.9923 61.1215 76.9758 61.289 76.9127 61.4413C76.8496 61.5936 76.7428 61.7237 76.6058 61.8153C76.4687 61.9068 76.3076 61.9557 76.1428 61.9557C75.9219 61.9555 75.71 61.8676 75.5538 61.7114C75.3976 61.5552 75.3097 61.3433 75.3095 61.1224Z" fill="#472010"/>
<path d="M99.915 52.725L101.154 51.0958L100.372 50.6525L99.5766 52.4775H99.55L98.7417 50.665L97.9458 51.1217L99.1716 52.7125V52.7383L97.2542 52.4908V53.3775L99.1841 53.13V53.1558L97.9458 54.7458L98.6892 55.2158L99.5366 53.3775H99.5625L100.345 55.2025L101.167 54.7333L99.915 53.1683V53.1425L101.883 53.3775V52.4908L99.915 52.7517V52.725Z" fill="#F26E62"/>
<path d="M130.776 55.7767L130.062 56.6925L130.491 56.9633L130.979 55.9042H130.994L131.444 56.9558L131.917 56.6858L131.197 55.7842V55.7692L132.33 55.9042V55.3942L131.197 55.5442V55.5292L131.91 54.5908L131.46 54.335L131.002 55.3867H130.987L130.522 54.3425L130.062 54.6058L130.769 55.5217V55.5367L129.665 55.3942V55.9042L130.776 55.7617V55.7767Z" fill="#F26E62"/>
<path d="M208.642 52.2725V51.4025L206.712 51.6583V51.6333L207.927 50.0342L207.16 49.6L206.38 51.39H206.354L205.562 49.6125L204.781 50.06L205.983 51.6208V51.6458L204.102 51.4025V52.2725L205.996 52.03V52.055L204.781 53.615L205.509 54.0758L206.342 52.2725H206.367L207.134 54.0633L207.94 53.6025L206.712 52.0675V52.0425L208.642 52.2725Z" fill="#F26E62"/>
<path d="M159.274 75.8125L160.322 74.4333L159.661 74.0583L158.987 75.6025H158.965L158.282 74.0692L157.608 74.455L158.646 75.8017V75.8233L157.023 75.6142V76.3642L158.657 76.1542V76.1767L157.608 77.5225L158.237 77.9192L158.954 76.3642H158.976L159.638 77.9083L160.333 77.5117L159.274 76.1875V76.165L160.94 76.3642V75.6142L159.274 75.8342V75.8125Z" fill="#F26E62"/>
</g>
<defs>
<filter id="filter0_dd_1_3155" x="0" y="0" width="292" height="244" filterUnits="userSpaceOnUse" color-interpolation-filters="sRGB">
<feFlood flood-opacity="0" result="BackgroundImageFix"/>
<feColorMatrix in="SourceAlpha" type="matrix" values="0 0 0 0 0 0 0 0 0 0 0 0 0 0 0 0 0 0 127 0" result="hardAlpha"/>
<feOffset dx="4" dy="4"/>
<feGaussianBlur stdDeviation="5"/>
<feComposite in2="hardAlpha" operator="out"/>
<feColorMatrix type="matrix" values="0 0 0 0 0 0 0 0 0 0 0 0 0 0 0 0 0 0 1 0"/>
<feBlend mode="normal" in2="BackgroundImageFix" result="effect1_dropShadow_1_3155"/>
<feColorMatrix in="SourceAlpha" type="matrix" values="0 0 0 0 0 0 0 0 0 0 0 0 0 0 0 0 0 0 127 0" result="hardAlpha"/>
<feOffset dy="4"/>
<feGaussianBlur stdDeviation="2"/>
<feComposite in2="hardAlpha" operator="out"/>
<feColorMatrix type="matrix" values="0 0 0 0 0 0 0 0 0 0 0 0 0 0 0 0 0 0 0.25 0"/>
<feBlend mode="normal" in2="effect1_dropShadow_1_3155" result="effect2_dropShadow_1_3155"/>
<feBlend mode="normal" in="SourceGraphic" in2="effect2_dropShadow_1_3155" result="shape"/>
</filter>
<linearGradient id="paint0_linear_1_3155" x1="-34.5" y1="-28.5" x2="320" y2="265" gradientUnits="userSpaceOnUse">
<stop offset="0.34375" stop-color="#472010" stop-opacity="0.67"/>
<stop offset="0.723958" stop-color="#472010"/>
</linearGradient>
<clipPath id="clip0_1_3155">
<rect width="140" height="140" fill="white" transform="translate(72 48)"/>
</clipPath>
</defs>
</svg>
