<svg width="148" height="148" viewBox="0 0 148 148" fill="none" xmlns="http://www.w3.org/2000/svg">
<g filter="url(#filter0_dd_3_308)">
<rect x="6" y="6" width="128" height="128" rx="20" fill="#F5F5F5"/>
<rect x="8.5" y="8.5" width="123" height="123" rx="17.5" stroke="url(#paint0_linear_3_308)" stroke-width="5"/>
</g>
<path fill-rule="evenodd" clip-rule="evenodd" d="M70.5 88.8504C91.5883 88.8504 108.684 80.1866 108.684 69.5C108.684 58.8134 91.5883 50.1496 70.5 50.1496C49.4122 50.1496 32.3164 58.8134 32.3164 69.5C32.3164 80.1866 49.4122 88.8504 70.5 88.8504Z" fill="#6E81B6"/>
<path fill-rule="evenodd" clip-rule="evenodd" d="M78.2353 75.7545L80.1292 66.0066C80.5568 63.8065 80.2013 62.1655 79.0733 61.1285C77.9804 60.1252 76.1252 59.6371 73.4019 59.6371H70.1218L71.0601 54.8075C71.0777 54.7176 71.0751 54.6249 71.0527 54.5361C71.0302 54.4474 70.9883 54.3646 70.9301 54.2939C70.8719 54.2232 70.7988 54.1663 70.7159 54.1272C70.6331 54.0881 70.5427 54.0678 70.4511 54.0678H65.9239C65.6265 54.0678 65.3712 54.2788 65.3144 54.5706L63.3027 64.9192C63.1198 63.7548 62.6692 62.7538 61.948 61.9277C60.62 60.4077 58.5197 59.6371 55.7045 59.6371H46.9299C46.6326 59.6371 46.3772 59.8481 46.3205 60.1395L42.2494 81.087C42.2139 81.2693 42.2614 81.4568 42.3796 81.5999C42.4974 81.7435 42.6728 81.8262 42.8589 81.8262H47.4217C47.719 81.8262 47.9744 81.6152 48.0311 81.3229L49.016 76.2564H52.4124C54.1947 76.2564 55.6925 76.0634 56.8616 75.6829C58.057 75.2942 59.1573 74.6348 60.1269 73.7271C60.9105 73.0073 61.5578 72.2011 62.056 71.3317L61.2429 75.5167C61.2074 75.6991 61.2549 75.8875 61.3731 76.0297C61.4908 76.1733 61.6668 76.2559 61.8524 76.2559H66.3796C66.6769 76.2559 66.9323 76.0449 66.9891 75.7536L69.2233 64.2553H72.3298C73.6536 64.2553 74.0414 64.5189 74.1472 64.632C74.2427 64.7355 74.4413 65.0998 74.2183 66.2481L72.4175 75.5163C72.4003 75.6061 72.4031 75.6987 72.4257 75.7873C72.4483 75.876 72.4902 75.9586 72.5485 76.0292C72.6067 76.0998 72.6797 76.1567 72.7625 76.1958C72.8452 76.2349 72.9355 76.2553 73.027 76.2555H77.6262C77.7702 76.2558 77.9097 76.2059 78.0208 76.1145C78.132 76.0231 78.2078 75.8958 78.2353 75.7545ZM57.2462 67.7002C56.9618 69.1616 56.4262 70.2037 55.6533 70.7979C54.8683 71.4032 53.6129 71.7098 51.9216 71.7098H49.8993L51.3616 64.1846H53.9763C55.8971 64.1846 56.6709 64.5951 56.9817 64.9391C57.4124 65.4165 57.5039 66.3718 57.2462 67.7002ZM97.3049 61.9277C95.9775 60.4077 93.8771 59.6371 91.0619 59.6371H82.2873C81.9895 59.6371 81.7347 59.8481 81.6779 60.1395L77.6073 81.087C77.5713 81.2693 77.6189 81.4568 77.7371 81.5999C77.8553 81.7431 78.0312 81.8262 78.2159 81.8262H82.7791C83.0769 81.8262 83.3318 81.6152 83.3886 81.3229L84.3734 76.2564H87.7703C89.553 76.2564 91.0495 76.0634 92.219 75.6829C93.4149 75.2942 94.5152 74.6348 95.4843 73.7271C96.2933 72.9842 96.9586 72.1489 97.4628 71.2472C97.967 70.3454 98.3285 69.3398 98.5396 68.2575C99.0581 65.5883 98.643 63.4588 97.3049 61.9277ZM92.8627 67.7002C92.5778 69.1616 92.0422 70.2037 91.2702 70.7979C90.4848 71.4032 89.2294 71.7098 87.5385 71.7098H85.5157L86.9775 64.1846H89.5927C91.5135 64.1846 92.2874 64.5951 92.5986 64.9391C93.0284 65.4165 93.1203 66.3718 92.8627 67.7002Z" fill="white"/>
<path fill-rule="evenodd" clip-rule="evenodd" d="M53.9763 63.5636C55.7096 63.5636 56.8653 63.8836 57.4429 64.5235C58.0201 65.1635 58.1577 66.2624 57.8557 67.8189C57.5399 69.44 56.9322 70.5971 56.0319 71.2906C55.1315 71.9841 53.7611 72.3304 51.9216 72.3304H49.1457L50.8495 63.5636H53.9763ZM42.8585 81.2052H47.4212L48.5039 75.6363H52.4124C54.137 75.6363 55.5559 75.4548 56.6695 75.0924C57.7832 74.7299 58.7958 74.1228 59.7067 73.27C60.4714 72.5677 61.0901 71.792 61.5638 70.9443C62.0371 70.0965 62.3732 69.1616 62.5722 68.1388C63.0552 65.6557 62.6909 63.7215 61.4802 62.3364C60.2701 60.9507 58.3442 60.2581 55.7045 60.2581H46.9299L42.8585 81.2052ZM65.9234 54.6888H70.4506L69.3683 60.2581H73.4019C75.9386 60.2581 77.69 60.7005 78.6531 61.5856C79.6163 62.4707 79.9048 63.9053 79.5198 65.8884L77.6258 75.6363H73.0265L74.8273 66.3677C75.0318 65.3131 74.957 64.5942 74.601 64.2105C74.245 63.8273 73.4873 63.6352 72.3293 63.6352H68.7113L66.3791 75.6363H61.8519L65.9234 54.6888ZM89.5927 63.5636C91.326 63.5636 92.4813 63.8836 93.0594 64.5235C93.6365 65.1635 93.7736 66.2624 93.4717 67.8189C93.1568 69.44 92.5491 70.5971 91.6483 71.2906C90.7484 71.9841 89.3776 72.3304 87.539 72.3304H84.7631L86.4664 63.5636H89.5927ZM78.474 81.2052H83.0372L84.1195 75.6363H88.0279C89.7529 75.6363 91.1718 75.4548 92.2855 75.0924C93.3992 74.7299 94.4117 74.1228 95.3227 73.27C96.0873 72.5677 96.706 71.792 97.1793 70.9443C97.6526 70.0965 97.9892 69.1616 98.1886 68.1388C98.6711 65.6557 98.3068 63.7215 97.0967 62.3364C95.8856 60.9507 93.9602 60.2581 91.3205 60.2581H82.5459L78.474 81.2052Z" fill="black"/>
<defs>
<filter id="filter0_dd_3_308" x="0" y="0" width="148" height="148" filterUnits="userSpaceOnUse" color-interpolation-filters="sRGB">
<feFlood flood-opacity="0" result="BackgroundImageFix"/>
<feColorMatrix in="SourceAlpha" type="matrix" values="0 0 0 0 0 0 0 0 0 0 0 0 0 0 0 0 0 0 127 0" result="hardAlpha"/>
<feOffset dx="4" dy="4"/>
<feGaussianBlur stdDeviation="5"/>
<feComposite in2="hardAlpha" operator="out"/>
<feColorMatrix type="matrix" values="0 0 0 0 0 0 0 0 0 0 0 0 0 0 0 0 0 0 1 0"/>
<feBlend mode="normal" in2="BackgroundImageFix" result="effect1_dropShadow_3_308"/>
<feColorMatrix in="SourceAlpha" type="matrix" values="0 0 0 0 0 0 0 0 0 0 0 0 0 0 0 0 0 0 127 0" result="hardAlpha"/>
<feOffset dy="4"/>
<feGaussianBlur stdDeviation="2"/>
<feComposite in2="hardAlpha" operator="out"/>
<feColorMatrix type="matrix" values="0 0 0 0 0 0 0 0 0 0 0 0 0 0 0 0 0 0 0.25 0"/>
<feBlend mode="normal" in2="effect1_dropShadow_3_308" result="effect2_dropShadow_3_308"/>
<feBlend mode="normal" in="SourceGraphic" in2="effect2_dropShadow_3_308" result="shape"/>
</filter>
<linearGradient id="paint0_linear_3_308" x1="-13.0588" y1="-13.7143" x2="178.885" y2="117.157" gradientUnits="userSpaceOnUse">
<stop offset="0.34375" stop-color="#472010" stop-opacity="0.67"/>
<stop offset="0.723958" stop-color="#472010"/>
</linearGradient>
</defs>
</svg>
