<svg xmlns="http://www.w3.org/2000/svg" data-name="Layer 1" viewBox="0 0 64 64"><path d="M34.915 36.6a1 1 0 0 0 1-1V32.611h1.333A7.182 7.182 0 0 0 47.484 32.3a1 1 0 0 0 0-1.375 7.22 7.22 0 0 0-5.28-2.3h0a7.192 7.192 0 0 0-4.955 1.991H34.915a1 1 0 0 0-1 1V34.6H32.271V29.211a3.338 3.338 0 0 0 1.581.413 3.652 3.652 0 0 0 3.488-2.971 3.813 3.813 0 0 0 2.675-3.72 3.861 3.861 0 0 0-.025-.43 4.736 4.736 0 0 0 0-7.676 3.879 3.879 0 0 0 .025-.431 3.812 3.812 0 0 0-2.675-3.719 3.654 3.654 0 0 0-3.488-2.971A3.453 3.453 0 0 0 31.271 8.9 3.453 3.453 0 0 0 28.69 7.706 3.654 3.654 0 0 0 25.2 10.677 3.812 3.812 0 0 0 22.527 14.4a3.879 3.879 0 0 0 .025.431 4.736 4.736 0 0 0 0 7.676 3.861 3.861 0 0 0-.025.43 3.813 3.813 0 0 0 2.675 3.72 3.652 3.652 0 0 0 3.488 2.971 3.338 3.338 0 0 0 1.581-.413v8.371H28.627V34.6a1 1 0 0 0-1-1H25.294a7.182 7.182 0 0 0-10.236.312 1 1 0 0 0 0 1.375 7.181 7.181 0 0 0 10.236.313h1.333v2.983a1 1 0 0 0 1 1h2.644v1.984H17.72a1 1 0 0 0-1 1c0 3.5 3.109 6.475 7.752 7.957a.99.99 0 0 0 .275.707l1.336 1.375c1.285 1.322 1.285 2.5 0 3.822L24.746 57.8a1 1 0 0 0 .717 1.7H37.079a1 1 0 0 0 .717-1.7l-1.338-1.376c-1.284-1.322-1.284-2.5 0-3.822L37.8 51.23a.99.99 0 0 0 .275-.707c4.643-1.482 7.752-4.452 7.752-7.957a1 1 0 0 0-1-1H32.271V36.6zm10.333-4.984a5.279 5.279 0 0 1-6.09 0A5.279 5.279 0 0 1 45.248 31.611zM17.293 34.6a5.28 5.28 0 0 1 6.091 0A5.274 5.274 0 0 1 17.293 34.6zM31.271 49.157a24.615 24.615 0 0 1-4.519-5.591H35.79A24.615 24.615 0 0 1 31.271 49.157zM18.855 43.566h5.782c.566 1.879 2.482 4.176 4.029 5.8C23.642 48.753 19.629 46.412 18.855 43.566zm15.874 7.967a4.22 4.22 0 0 0 0 5.967H27.812a4.218 4.218 0 0 0 0-5.967zm-.853-2.164c1.547-1.627 3.463-3.924 4.029-5.8h5.782C42.913 46.412 38.9 48.753 33.876 49.369zM28.69 27.624a1.667 1.667 0 0 1-1.549-1.473.538.538 0 0 1 .133-.009 1.128 1.128 0 0 1 .75.554l1.654-1.125a3.071 3.071 0 0 0-2.19-1.418 2.681 2.681 0 0 0-1.87.525 1.835 1.835 0 0 1-1.091-1.745 2.068 2.068 0 0 1 .1-.569c.3-.475.583-.708.753-.708h.006c.18.006.64.3 1.094 1.38l1.843-.775c-.931-2.217-2.2-2.582-2.875-2.6a2.669 2.669 0 0 0-2.021.976 2.74 2.74 0 0 1 0-3.936 2.629 2.629 0 0 0 1.956.976h.066c.674-.021 1.944-.387 2.875-2.6l-1.843-.775c-.454 1.078-.914 1.374-1.094 1.379-.155.008-.456-.228-.76-.713a2.069 2.069 0 0 1-.1-.564 1.835 1.835 0 0 1 1.086-1.742 2.74 2.74 0 0 0 1.6.537 2.606 2.606 0 0 0 .279-.014 3.073 3.073 0 0 0 2.19-1.42l-1.654-1.123a1.131 1.131 0 0 1-.75.554.652.652 0 0 1-.133-.009A1.666 1.666 0 0 1 28.69 9.706a1.731 1.731 0 0 1 1.581 1.846v1.422h2V11.552a1.731 1.731 0 0 1 1.581-1.846A1.666 1.666 0 0 1 35.4 11.179a.588.588 0 0 1-.133.009 1.132 1.132 0 0 1-.75-.555l-1.654 1.125a3.076 3.076 0 0 0 2.19 1.419 2.606 2.606 0 0 0 .279.014 2.74 2.74 0 0 0 1.6-.537A1.835 1.835 0 0 1 38.015 14.4a2.114 2.114 0 0 1-.1.574c-.3.48-.577.715-.759.7s-.64-.3-1.093-1.379l-1.844.775c.931 2.216 2.2 2.582 2.875 2.6h.066a2.629 2.629 0 0 0 1.956-.976 2.741 2.741 0 0 1 0 3.937 2.712 2.712 0 0 0-2.021-.977c-.674.022-1.944.387-2.875 2.6l1.844.775c.453-1.078.913-1.374 1.093-1.38.165.007.459.233.76.712a2.082 2.082 0 0 1 .1.565 1.836 1.836 0 0 1-1.091 1.745 2.658 2.658 0 0 0-1.87-.525 3.075 3.075 0 0 0-2.19 1.418L34.518 26.7a1.128 1.128 0 0 1 .75-.554.535.535 0 0 1 .133.008 1.667 1.667 0 0 1-1.549 1.474 1.731 1.731 0 0 1-1.581-1.846V24.355h-2v1.423A1.731 1.731 0 0 1 28.69 27.624zM7.062 13.135a1 1 0 0 0 1.957 0c.864-4.1 1.308-4.558 5.279-5.446a1 1 0 0 0 0-1.951C10.327 4.852 9.883 4.394 9.019.294a1 1 0 0 0-1.957 0c-.865 4.1-1.309 4.558-5.28 5.444a1 1 0 0 0 0 1.951C5.753 8.577 6.2 9.035 7.062 13.135zm.978-9.1a4.978 4.978 0 0 0 2.647 2.679A4.983 4.983 0 0 0 8.04 9.394a4.985 4.985 0 0 0-2.646-2.68A4.98 4.98 0 0 0 8.04 4.035zM45.526 20.656a1 1 0 0 0 .782.976c3.971.888 4.415 1.346 5.279 5.445a1 1 0 0 0 1.957 0c.865-4.1 1.309-4.557 5.28-5.445a1 1 0 0 0 0-1.951c-3.971-.887-4.415-1.345-5.28-5.445a1 1 0 0 0-1.957 0c-.864 4.1-1.308 4.558-5.279 5.445A1 1 0 0 0 45.526 20.656zm7.04-2.678a4.978 4.978 0 0 0 2.646 2.678 4.985 4.985 0 0 0-2.646 2.68 4.983 4.983 0 0 0-2.647-2.68A4.976 4.976 0 0 0 52.566 17.978zM9.976 32.293a1 1 0 0 0 .979-.794c.624-2.962.906-3.252 3.769-3.892a1 1 0 0 0 0-1.951c-2.863-.639-3.145-.929-3.769-3.891a1 1 0 0 0-1.957 0c-.625 2.962-.907 3.252-3.77 3.891a1 1 0 0 0 0 1.951c2.863.64 3.145.93 3.77 3.892A1 1 0 0 0 9.976 32.293zM8.529 26.632a3.788 3.788 0 0 0 1.447-1.463 3.8 3.8 0 0 0 1.447 1.463A3.8 3.8 0 0 0 9.976 28.1 3.788 3.788 0 0 0 8.529 26.632z"/><path d="M31.271 22.772a1 1 0 0 0 .979-.793c.39-1.853.475-1.94 2.259-2.338a1 1 0 0 0 0-1.952c-1.784-.4-1.869-.486-2.259-2.337a1 1 0 0 0-1.958 0c-.39 1.851-.474 1.938-2.259 2.337a1 1 0 0 0 0 1.952c1.785.4 1.869.485 2.259 2.338A1 1 0 0 0 31.271 22.772zm0-4.482a2.637 2.637 0 0 0 .372.375 2.579 2.579 0 0 0-.372.374 2.579 2.579 0 0 0-.372-.374A2.637 2.637 0 0 0 31.271 18.29zM60.218 4.743c-2.863-.639-3.145-.93-3.77-3.891a1 1 0 0 0-1.957 0c-.624 2.961-.906 3.252-3.769 3.891a1 1 0 0 0 0 1.951c2.863.639 3.145.93 3.769 3.891a1 1 0 0 0 1.957 0c.625-2.961.907-3.252 3.77-3.891a1 1 0 0 0 0-1.951zM55.47 7.182a3.784 3.784 0 0 0-1.448-1.463A3.8 3.8 0 0 0 55.47 4.256a3.8 3.8 0 0 0 1.448 1.463A3.784 3.784 0 0 0 55.47 7.182z"/><rect width="2" height="3.983" x="30.271" y=".739"/><rect width="2.777" height="2" x="39.562" y="5.714" transform="rotate(-45.805 40.95 6.714)"/><rect width="2" height="2.777" x="20.592" y="5.326" transform="rotate(-44.195 21.591 6.715)"/></svg>