<svg width="148" height="148" viewBox="0 0 148 148" fill="none" xmlns="http://www.w3.org/2000/svg">
<g filter="url(#filter0_dd_3_294)">
<rect x="6" y="6" width="128" height="128" rx="20" fill="#F5F5F5"/>
<rect x="8.5" y="8.5" width="123" height="123" rx="17.5" stroke="url(#paint0_linear_3_294)" stroke-width="5"/>
</g>
<path d="M66.2625 63.4914C64.9879 64.2273 63.9601 65.3246 63.3092 66.6446C62.6582 67.9646 62.4133 69.448 62.6054 70.9072C62.7975 72.3664 63.418 73.7358 64.3885 74.8424C65.3589 75.9489 66.6357 76.7428 68.0573 77.1237C69.479 77.5046 70.9816 77.4553 72.3753 76.9822C73.7689 76.5091 74.991 75.6333 75.8869 74.4656C76.7829 73.2979 77.3124 71.8908 77.4086 70.4222C77.5048 68.9535 77.1633 67.4894 76.4273 66.2148C75.4405 64.5058 73.8151 63.2588 71.9089 62.7481C70.0026 62.2374 67.9716 62.5047 66.2625 63.4914ZM99.6154 71.5651C99.1269 71.0067 98.6114 70.4469 98.0689 69.8856C98.4478 69.4873 98.8145 69.0894 99.1689 68.6918C105.86 61.1741 108.684 53.6347 106.067 49.1021C103.558 44.7563 96.0945 43.4612 86.7508 45.278C85.8304 45.458 84.9152 45.6611 84.0049 45.8873C83.8307 45.2866 83.6454 44.6894 83.449 44.0956C80.2791 34.5434 75.1587 28.3301 69.9252 28.3333C64.9068 28.3356 60.0566 34.1546 56.9625 43.1563C56.6581 44.0443 56.3764 44.9397 56.1176 45.8426C55.5091 45.6932 54.898 45.5553 54.2843 45.4288C44.426 43.4047 36.4857 44.7378 33.8741 49.273C31.37 53.622 33.9888 60.7305 40.2429 67.9068C40.8632 68.6168 41.501 69.3109 42.1563 69.9891C41.3838 70.7849 40.6522 71.5803 39.9703 72.3712C33.8678 79.4462 31.3987 86.4386 33.8988 90.7688C36.4808 95.2416 44.3094 96.7036 53.838 94.8286C54.6102 94.6755 55.3781 94.5033 56.1418 94.3119C56.4216 95.2885 56.7284 96.2565 57.0624 97.2161C60.1429 106.037 64.966 111.669 69.9666 111.667C75.1309 111.664 80.308 105.613 83.4447 96.4221C83.6924 95.6958 83.9269 94.9415 84.1491 94.1648C85.1356 94.4103 86.1285 94.628 87.1277 94.8182C96.3083 96.5551 103.596 95.189 106.092 90.8557C108.669 86.3795 106.012 78.8722 99.6154 71.5651ZM36.9591 51.0493C38.5668 48.2577 45.0559 47.1686 53.5678 48.916C54.1118 49.0279 54.6651 49.1529 55.2277 49.291C54.3967 52.9671 53.8103 56.6943 53.4724 60.448C50.4012 62.6086 47.473 64.9657 44.7062 67.5046C44.0966 66.8742 43.5033 66.2285 42.9263 65.5675C37.5677 59.4188 35.45 53.6701 36.9591 51.0493ZM53.1535 74.9164C51.0262 73.3055 49.0491 71.6553 47.2547 69.9956C49.0479 68.3461 51.0262 66.7014 53.1492 65.0949C53.0729 66.7315 53.0351 68.3692 53.0358 70.0083C53.0369 71.6449 53.0762 73.2809 53.1535 74.9164ZM53.151 91.3356C49.5396 92.1386 45.8112 92.2702 42.1522 91.7237C41.1491 91.6456 40.1727 91.3626 39.2834 90.8922C38.394 90.4219 37.6105 89.7741 36.9813 88.989C35.4644 86.3613 37.447 80.7474 42.666 74.6964C43.3222 73.9381 43.9998 73.1996 44.699 72.4808C47.4662 75.033 50.3991 77.3994 53.4786 79.5645C53.8211 83.3661 54.4144 87.141 55.2545 90.8645C54.5573 91.0388 53.8562 91.1958 53.151 91.3356ZM82.739 57.8383C81.3415 56.9577 79.9268 56.1054 78.4948 55.2814C77.0856 54.4703 75.6595 53.6896 74.2165 52.9394C76.6873 51.9006 79.1161 51.0133 81.4608 50.2902C82.0136 52.7831 82.4402 55.3023 82.739 57.8383ZM60.3291 44.3134C62.9801 36.6003 66.9026 31.8945 69.9271 31.8932C73.1483 31.8917 77.3335 36.9693 80.0702 45.2167C80.248 45.7543 80.416 46.295 80.5743 46.8387C76.979 47.9538 73.4613 49.3057 70.0445 50.8853C66.6419 49.2871 63.1353 47.9202 59.5487 46.7939C59.7884 45.9608 60.0486 45.134 60.3291 44.3134ZM58.6609 50.2458C61.1067 51.0158 63.5121 51.9086 65.8679 52.9208C62.9489 54.4272 60.1053 56.0681 57.3372 57.8433C57.6716 55.185 58.1166 52.6381 58.6609 50.2458ZM57.3433 82.1653C58.7237 83.049 60.1243 83.9 61.5451 84.7184C62.9944 85.5528 64.4629 86.3522 65.9508 87.1165C63.577 88.1638 61.1509 89.0885 58.6823 89.887C58.1317 87.4617 57.6818 84.87 57.3433 82.1653ZM80.0753 95.2716C78.9669 98.8013 77.2182 102.097 74.9166 104.994C74.3479 105.823 73.6148 106.528 72.7631 107.063C71.9114 107.599 70.959 107.954 69.9647 108.106C66.9305 108.108 63.0578 103.585 60.4233 96.0419C60.1131 95.15 59.8277 94.25 59.5671 93.3419C63.1708 92.1793 66.6917 90.7737 70.1053 89.1348C73.5502 90.7247 77.0959 92.0867 80.7193 93.2119C80.5214 93.9035 80.3068 94.5901 80.0753 95.2716ZM81.5847 89.7541C79.213 89.0207 76.7489 88.1186 74.2424 87.0644C75.6554 86.3208 77.0786 85.5355 78.5121 84.7085C79.9831 83.8591 81.4165 82.9884 82.8125 82.0964C82.5345 84.6683 82.1246 87.2241 81.5847 89.7541ZM83.4442 69.9929C83.4473 72.5233 83.3683 75.0517 83.2072 77.5781C81.1544 78.9673 78.9871 80.3239 76.7322 81.6257C74.4866 82.9222 72.2617 84.1136 70.0791 85.1919C67.7824 84.0913 65.53 82.9051 63.3218 81.6336C61.1261 80.3697 58.9807 79.0239 56.8856 77.5961C56.6941 75.0705 56.5977 72.5403 56.5962 70.0056C56.5945 67.4726 56.6893 64.9431 56.8798 62.4154C58.9321 61.0138 61.0836 59.6584 63.3081 58.3741C65.5427 57.0837 67.7956 55.8973 70.0359 54.8221C72.3044 55.9245 74.5319 57.106 76.7185 58.3665C78.9127 59.6276 81.0641 60.9591 83.1727 62.361C83.3538 64.901 83.4441 67.445 83.4442 69.9929ZM87.4306 48.7728C95.4361 47.2156 101.472 48.2631 102.984 50.882C104.595 53.6721 102.287 59.8341 96.5101 66.3252C96.1909 66.6833 95.8596 67.0431 95.5165 67.4042C92.7018 64.8599 89.7172 62.5103 86.5833 60.3715C86.267 56.6588 85.7027 52.9715 84.8939 49.3343C85.7559 49.1222 86.6015 48.935 87.4306 48.7728ZM86.8894 64.959C89.0033 66.5024 91.0357 68.1544 92.9784 69.9083C91.0443 71.6911 89.0183 73.3716 86.9088 74.943C86.9733 73.2932 87.0051 71.6426 87.0041 69.9912C87.0033 68.3134 86.9651 66.636 86.8894 64.959ZM103.007 89.0788C101.492 91.7087 95.6403 92.8053 87.7889 91.3198C86.8892 91.15 85.9659 90.9478 85.0192 90.7133C85.8084 87.0293 86.3478 83.2961 86.6336 79.5393C89.7622 77.3632 92.7374 74.9744 95.5381 72.3898C96.0282 72.8989 96.4943 73.4057 96.9366 73.9101C99.441 76.6332 101.423 79.7938 102.783 83.2345C103.218 84.1416 103.462 85.1282 103.5 86.1335C103.539 87.1387 103.371 88.1411 103.007 89.0788Z" fill="#472010"/>
<defs>
<filter id="filter0_dd_3_294" x="0" y="0" width="148" height="148" filterUnits="userSpaceOnUse" color-interpolation-filters="sRGB">
<feFlood flood-opacity="0" result="BackgroundImageFix"/>
<feColorMatrix in="SourceAlpha" type="matrix" values="0 0 0 0 0 0 0 0 0 0 0 0 0 0 0 0 0 0 127 0" result="hardAlpha"/>
<feOffset dx="4" dy="4"/>
<feGaussianBlur stdDeviation="5"/>
<feComposite in2="hardAlpha" operator="out"/>
<feColorMatrix type="matrix" values="0 0 0 0 0 0 0 0 0 0 0 0 0 0 0 0 0 0 1 0"/>
<feBlend mode="normal" in2="BackgroundImageFix" result="effect1_dropShadow_3_294"/>
<feColorMatrix in="SourceAlpha" type="matrix" values="0 0 0 0 0 0 0 0 0 0 0 0 0 0 0 0 0 0 127 0" result="hardAlpha"/>
<feOffset dy="4"/>
<feGaussianBlur stdDeviation="2"/>
<feComposite in2="hardAlpha" operator="out"/>
<feColorMatrix type="matrix" values="0 0 0 0 0 0 0 0 0 0 0 0 0 0 0 0 0 0 0.25 0"/>
<feBlend mode="normal" in2="effect1_dropShadow_3_294" result="effect2_dropShadow_3_294"/>
<feBlend mode="normal" in="SourceGraphic" in2="effect2_dropShadow_3_294" result="shape"/>
</filter>
<linearGradient id="paint0_linear_3_294" x1="-13.0588" y1="-13.7143" x2="178.885" y2="117.157" gradientUnits="userSpaceOnUse">
<stop offset="0.34375" stop-color="#472010" stop-opacity="0.67"/>
<stop offset="0.723958" stop-color="#472010"/>
</linearGradient>
</defs>
</svg>
