<svg width="148" height="148" viewBox="0 0 148 148" fill="none" xmlns="http://www.w3.org/2000/svg">
<g filter="url(#filter0_dd_3_299)">
<rect x="6" y="6" width="128" height="128" rx="20" fill="#F5F5F5"/>
<rect x="8.5" y="8.5" width="123" height="123" rx="17.5" stroke="url(#paint0_linear_3_299)" stroke-width="5"/>
</g>
<g clip-path="url(#clip0_3_299)">
<path d="M115.644 41.4831L49.1461 20.6339C45.9314 19.626 42.4762 21.4323 41.4686 24.648L20.6249 91.163C19.6173 94.3795 21.4232 97.835 24.6382 98.8429L91.137 119.692C94.3516 120.7 97.8068 118.894 98.8144 115.678L119.658 49.1622C120.666 45.9469 118.86 42.4909 115.645 41.4831H115.644ZM51.8682 91.0772C51.8682 93.9189 49.544 96.2441 46.7028 96.2441H46.6836C43.8432 96.2441 41.5186 93.9189 41.5186 91.0772V64.602C41.5186 61.7602 43.8432 59.4354 46.6836 59.4354H46.7028C49.544 59.4354 51.8682 61.7602 51.8682 64.602V91.0772ZM46.6934 54.3484C43.8236 54.3484 41.4971 52.0217 41.4971 49.1512C41.4971 46.2807 43.8236 43.9535 46.6934 43.9535C49.5628 43.9535 51.8893 46.2803 51.8893 49.1512C51.8893 52.0213 49.5628 54.3484 46.6934 54.3484ZM79.6024 96.2268C66.6685 96.2268 56.2018 85.5201 56.2018 72.5831C56.2018 59.6457 66.6869 49.1579 79.6212 49.1579C86.282 49.1579 92.2938 51.9398 96.5578 56.4055L99.0593 51.9783C101.625 58.9008 103.295 66.9878 103.295 72.5374C103.295 85.4744 92.5363 96.2268 79.6024 96.2268Z" fill="#6DB33F"/>
<path d="M70.7541 88.6295C73.2677 87.841 75.9473 87.0114 78.1886 86.287C87.0385 83.4287 94.6465 76.2319 96.6578 67.1925C95.0569 71.4453 88.5211 79.7516 78.2847 83.0614C75.0002 84.1032 71.5938 84.7626 68.23 85.5398C67.7976 85.6398 67.2052 85.5284 66.8255 85.2921C64.6697 83.9512 63.5078 81.5524 63.3246 79.1319C62.8306 72.6197 67.2524 67.3051 73.8262 65.9287C76.5866 65.3508 79.429 65.5012 82.2488 65.1992C89.6966 64.4154 96.698 59.0811 98.8129 54.6221C98.8129 54.6221 99.1925 55.491 99.2741 55.7469C100.873 60.7559 102.147 65.8311 102.271 71.1248C102.338 73.9843 102.025 76.7988 101.014 79.5C98.9824 84.9295 94.8343 87.6827 89.2924 88.3307C86.0524 88.7095 82.755 88.626 79.4825 88.689C76.8268 88.7402 73.7531 88.6295 70.7541 88.6295ZM67.4606 88.9028C67.4606 90.0067 66.5662 90.9012 65.4625 90.9012C64.3588 90.9012 63.4645 90.0067 63.4645 88.9028C63.4645 87.7988 64.3588 86.9039 65.4625 86.9039C66.5662 86.9039 67.4606 87.7988 67.4606 88.9028Z" fill="#6DB33F"/>
</g>
<defs>
<filter id="filter0_dd_3_299" x="0" y="0" width="148" height="148" filterUnits="userSpaceOnUse" color-interpolation-filters="sRGB">
<feFlood flood-opacity="0" result="BackgroundImageFix"/>
<feColorMatrix in="SourceAlpha" type="matrix" values="0 0 0 0 0 0 0 0 0 0 0 0 0 0 0 0 0 0 127 0" result="hardAlpha"/>
<feOffset dx="4" dy="4"/>
<feGaussianBlur stdDeviation="5"/>
<feComposite in2="hardAlpha" operator="out"/>
<feColorMatrix type="matrix" values="0 0 0 0 0 0 0 0 0 0 0 0 0 0 0 0 0 0 1 0"/>
<feBlend mode="normal" in2="BackgroundImageFix" result="effect1_dropShadow_3_299"/>
<feColorMatrix in="SourceAlpha" type="matrix" values="0 0 0 0 0 0 0 0 0 0 0 0 0 0 0 0 0 0 127 0" result="hardAlpha"/>
<feOffset dy="4"/>
<feGaussianBlur stdDeviation="2"/>
<feComposite in2="hardAlpha" operator="out"/>
<feColorMatrix type="matrix" values="0 0 0 0 0 0 0 0 0 0 0 0 0 0 0 0 0 0 0.25 0"/>
<feBlend mode="normal" in2="effect1_dropShadow_3_299" result="effect2_dropShadow_3_299"/>
<feBlend mode="normal" in="SourceGraphic" in2="effect2_dropShadow_3_299" result="shape"/>
</filter>
<linearGradient id="paint0_linear_3_299" x1="-13.0588" y1="-13.7143" x2="178.885" y2="117.157" gradientUnits="userSpaceOnUse">
<stop offset="0.34375" stop-color="#472010" stop-opacity="0.67"/>
<stop offset="0.723958" stop-color="#472010"/>
</linearGradient>
<clipPath id="clip0_3_299">
<rect width="100" height="100" fill="white" transform="translate(20 20)"/>
</clipPath>
</defs>
</svg>
