<svg width="148" height="148" viewBox="0 0 148 148" fill="none" xmlns="http://www.w3.org/2000/svg">
<g filter="url(#filter0_dd_3_307)">
<rect x="6" y="6" width="128" height="128" rx="20" fill="#F5F5F5"/>
<rect x="8.5" y="8.5" width="123" height="123" rx="17.5" stroke="url(#paint0_linear_3_307)" stroke-width="5"/>
</g>
<g clip-path="url(#clip0_3_307)">
<path d="M119.612 79.8751C119.013 78.1143 117.442 76.8879 115.411 76.5936C114.453 76.455 113.356 76.514 112.058 76.7735C109.796 77.2261 108.117 77.3984 106.892 77.4318C111.516 69.8624 115.276 61.2307 117.44 53.1054C120.94 39.9669 119.07 33.9816 116.884 31.2743C111.1 24.1083 102.662 20.2587 92.4812 20.1409C87.0504 20.0765 82.2828 21.1162 79.7957 21.8638C77.4801 21.4677 74.9902 21.2465 72.3777 21.2056C67.4805 21.1298 63.1535 22.1649 59.4563 24.2924C57.4094 23.6212 54.1242 22.6751 50.3305 22.0714C41.4078 20.6511 34.2164 21.7578 28.9563 25.3608C22.5867 29.7233 19.634 37.3028 20.1801 47.8889C20.3535 51.2499 22.2926 61.4762 25.3457 71.1744C27.1004 76.7489 28.9715 81.378 30.907 84.9344C33.652 89.9775 36.5891 92.9473 39.8863 94.0138C41.7344 94.6107 45.0922 95.0289 48.6238 92.1769C49.0715 92.7026 49.6688 93.2249 50.4613 93.7101C51.468 94.3255 52.6988 94.8285 53.9281 95.1266C58.3582 96.2003 62.5078 95.9318 66.0481 94.4267C66.0699 95.0372 66.0867 95.6205 66.1008 96.1242C66.1242 96.9412 66.1477 97.7422 66.1785 98.4914C66.3883 103.557 66.7438 107.495 67.7969 110.251C67.8547 110.403 67.9324 110.634 68.0145 110.879C68.5398 112.438 69.4184 115.05 71.6535 117.094C73.968 119.213 76.7676 119.862 79.3316 119.862C80.6176 119.862 81.8445 119.699 82.9207 119.475C86.7566 118.678 91.1133 117.464 94.2648 113.113C97.2445 108.999 98.693 102.804 98.9551 93.0427C98.9891 92.7666 99.0203 92.503 99.0504 92.2519L99.1129 91.736L99.8148 91.7959L99.9957 91.8076C103.903 91.9803 108.68 91.177 111.614 89.8555C113.932 88.8124 121.362 85.0094 119.612 79.8751Z" fill="black"/>
<path d="M112.932 80.8735C101.315 83.1971 100.516 79.3834 100.516 79.3834C112.782 61.7364 117.909 39.3359 113.485 33.8535C101.413 18.8986 80.5164 25.9714 80.1676 26.1547L80.0555 26.1744C77.7601 25.7123 75.1918 25.4373 72.3047 25.3915C67.0484 25.3082 63.0609 26.7277 60.0351 28.9525C60.0351 28.9525 22.7578 14.0623 24.4918 47.6794C24.8605 54.831 35.0637 101.793 47.2332 87.608C51.6812 82.421 55.9793 78.0355 55.9793 78.0355C58.1137 79.4103 60.6691 80.1118 63.348 79.8599L63.5562 79.6887C63.4914 80.3326 63.5211 80.9625 63.6394 81.7082C60.5043 85.1045 61.4258 85.7006 55.1586 86.9516C48.8168 88.2189 52.5422 90.4748 54.9746 91.0649C57.9234 91.7796 64.7453 92.7923 69.3547 86.5358L69.1711 87.2497C70.3992 88.2038 71.2617 93.4548 71.1172 98.2153C70.9726 102.975 70.8762 106.244 71.8437 108.796C72.8121 111.349 73.7766 117.093 82.0156 115.381C88.8996 113.951 92.4672 110.244 92.9637 104.061C93.3156 99.6648 94.1129 100.315 94.1629 96.3844L94.8023 94.524C95.5394 88.5651 94.9195 86.6426 99.1605 87.5368L100.192 87.6247C103.313 87.7622 107.399 87.1376 109.797 86.057C114.96 83.7338 118.023 79.8542 112.931 80.8735H112.932Z" fill="#336791"/>
<path d="M62.2172 50.8776C61.1703 50.7363 60.2223 50.867 59.7426 51.2192C59.473 51.4173 59.3895 51.6468 59.3668 51.8048C59.3066 52.2233 59.609 52.6861 59.7949 52.9247C60.3207 53.6004 61.0887 54.0648 61.8488 54.167C61.959 54.1822 62.0687 54.189 62.1777 54.189C63.4453 54.189 64.598 53.2319 64.6996 52.5255C64.8266 51.6408 63.5019 51.0507 62.2172 50.8776ZM96.8984 50.9056C96.7984 50.2121 95.5258 50.0144 94.318 50.1773C93.1117 50.3401 91.9422 50.8681 92.0398 51.5631C92.118 52.1036 93.1246 53.0262 94.316 53.0262C94.4168 53.0262 94.5184 53.0198 94.6207 53.0058C95.416 52.899 95.9996 52.4093 96.277 52.1271C96.6988 51.6968 96.9434 51.2173 96.8984 50.9056Z" fill="white"/>
<path d="M116.798 80.6095C116.355 79.3107 114.929 78.893 112.56 79.3672C105.527 80.7746 103.008 79.7997 102.181 79.2092C107.648 71.1343 112.145 61.3731 114.571 52.2661C115.721 47.9521 116.355 43.9457 116.407 40.6801C116.465 37.096 115.835 34.4622 114.537 32.8533C109.302 26.3672 101.618 22.888 92.3172 22.7925C85.9231 22.7228 80.5207 24.3094 79.4734 24.7556C77.268 24.2238 74.8637 23.8973 72.2461 23.8557C67.4461 23.7803 63.2969 24.8946 59.8617 27.166C58.3695 26.6274 54.5133 25.3438 49.7973 24.6071C41.6441 23.3345 35.1652 24.2988 30.5418 27.4746C25.025 31.2644 22.4781 38.0387 22.9715 47.609C23.1375 50.8287 25.0297 60.7338 28.0156 70.2196C31.9461 82.7047 36.2188 89.7726 40.7141 91.2266C41.2402 91.3966 41.8469 91.5156 42.516 91.5156C44.1559 91.5156 46.1664 90.799 48.2582 88.3606C50.8096 85.3929 53.4489 82.4973 56.1727 79.6774C57.9399 80.597 59.8813 81.1106 61.8668 81.1621C61.8707 81.2124 61.8758 81.2628 61.8805 81.3128C61.5387 81.708 61.204 82.1089 60.8766 82.5153C59.5008 84.2087 59.2145 84.5613 54.7859 85.4453C53.5262 85.6976 50.1805 86.3661 50.1313 88.6401C50.0781 91.1247 54.0863 92.1682 54.543 92.2788C56.1344 92.6651 57.6676 92.8556 59.1297 92.8556C62.6856 92.8556 65.8149 91.7224 68.3156 89.5298C68.2387 98.3872 68.6195 107.115 69.7164 109.774C70.6149 111.951 72.8094 117.272 79.7414 117.271C80.7586 117.271 81.8781 117.157 83.1098 116.901C90.3445 115.397 93.4863 112.296 94.7016 105.461C95.352 101.808 96.468 93.0851 96.993 88.406C98.1008 88.7412 99.527 88.8946 101.069 88.8942C104.284 88.8942 107.995 88.2318 110.322 87.1846C112.936 86.0074 117.653 83.1191 116.798 80.6095ZM99.5688 48.9914C99.5449 50.3727 99.3488 51.6268 99.141 52.9357C98.9172 54.3435 98.686 55.7991 98.6277 57.5659C98.5703 59.2855 98.7918 61.0732 99.0059 62.8022C99.4387 66.2942 99.8828 69.8893 98.1637 73.4367C97.8781 72.9461 97.6237 72.439 97.402 71.9183C97.1883 71.4161 96.7242 70.6093 96.0817 69.4928C93.582 65.1462 87.7285 54.9677 90.725 50.8143C91.6176 49.5781 93.8828 48.307 99.5688 48.9914ZM92.6766 25.5896C101.01 25.768 107.602 28.7908 112.27 34.5735C115.849 39.0091 111.907 59.1915 100.496 76.6031C100.381 76.4616 100.266 76.3205 100.15 76.18L100.005 76.005C102.954 71.2831 102.378 66.6112 101.864 62.4692C101.654 60.7694 101.454 59.1639 101.505 57.6557C101.557 56.0574 101.775 54.6863 101.986 53.3607C102.245 51.7271 102.509 50.0368 102.436 48.0442C102.491 47.8351 102.513 47.5881 102.484 47.295C102.298 45.3842 100.048 39.6655 95.4625 34.4895C92.9539 31.6583 89.2957 28.4901 84.3008 26.3532C86.4492 25.9214 89.3871 25.5188 92.6766 25.5896ZM46.0445 86.5759C43.7399 89.2628 42.1484 88.7477 41.625 88.5787C38.2149 87.4758 34.2578 80.4871 30.7691 69.4049C27.7504 59.8157 25.9863 50.1731 25.8465 47.4692C25.4059 38.9178 27.5438 32.9582 32.2012 29.7555C39.7809 24.5439 52.2426 27.6632 57.25 29.2453C57.1781 29.3142 57.1031 29.3786 57.032 29.4487C48.8149 37.4948 49.0098 51.242 49.0301 52.0824C49.0293 52.4066 49.0574 52.8657 49.0957 53.497C49.2371 55.8093 49.5004 60.1127 48.7973 64.986C48.1441 69.5147 49.584 73.9473 52.7469 77.1473C53.0715 77.4751 53.4127 77.7871 53.7691 78.0821C52.3613 79.544 49.3016 82.7771 46.0445 86.5759ZM54.8254 75.2161C52.2762 72.6368 51.1184 69.0493 51.6484 65.3724C52.3906 60.2244 52.1168 55.7407 51.9695 53.3319C51.9488 52.9948 51.9305 52.6994 51.9199 52.4664C53.1203 51.4344 58.6832 48.5445 62.6504 49.4258C64.4606 49.8277 65.5637 51.023 66.0223 53.0789C68.3957 63.7229 66.3363 68.1592 64.6817 71.7244C64.3406 72.4588 64.0184 73.153 63.7434 73.8711L63.5301 74.4264C62.9902 75.83 62.4879 77.1352 62.1766 78.3745C59.4664 78.3669 56.8301 77.2443 54.8254 75.2157V75.2161ZM55.2414 89.5707C54.45 89.379 53.7383 89.0461 53.3207 88.77C53.6695 88.6109 54.2902 88.3943 55.3668 88.1792C60.5766 87.1395 61.3813 86.4055 63.1383 84.2424C63.541 83.7463 63.9977 83.1842 64.6301 82.4994L64.6309 82.4987C65.5727 81.476 66.0035 81.6495 66.7848 81.9639C67.418 82.2176 68.0348 82.9873 68.2848 83.8341C68.4031 84.2341 68.5359 84.9931 68.1012 85.584C64.4309 90.5668 59.0824 90.5028 55.2414 89.5707ZM82.5067 114.171C76.1332 115.495 73.8766 112.342 72.3895 108.738C71.4297 106.411 70.9578 95.917 71.2926 84.3284C71.2969 84.1743 71.2742 84.0254 71.2305 83.8853C71.1913 83.6085 71.1318 83.3349 71.0524 83.0664C70.5547 81.3802 69.3418 79.9698 67.8867 79.385C67.3086 79.1528 66.2477 78.7267 64.9727 79.043C65.2445 77.9567 65.716 76.7299 66.2274 75.4017L66.4418 74.843C66.6832 74.2131 66.9863 73.5605 67.3067 72.8697C69.0383 69.1398 71.4098 64.0308 68.8359 52.4892C67.8719 48.1661 64.6524 46.055 59.7719 46.5455C56.8461 46.839 54.1691 47.9836 52.834 48.6399C52.5469 48.7808 52.2844 48.9172 52.0391 49.0497C52.4117 44.6941 53.8195 36.554 59.0859 31.4038C62.402 28.1617 66.818 26.5603 72.1985 26.6467C82.8 26.8148 89.5985 32.0901 93.4352 36.4862C96.7414 40.2741 98.5317 44.09 99.2461 46.1481C93.8731 45.6183 90.2188 46.6466 88.3664 49.2145C84.3363 54.8003 90.5711 65.6416 93.5676 70.8521C94.1172 71.8069 94.5914 72.6322 94.7406 72.983C95.7164 75.2759 96.9797 76.8068 97.902 77.9241C98.1848 78.2665 98.459 78.5987 98.6676 78.8888C97.0402 79.3437 94.1172 80.3947 94.3836 85.6484C94.1688 88.2845 92.641 100.626 91.8649 104.987C90.8402 110.748 88.6539 112.893 82.5067 114.172V114.171ZM109.11 84.653C107.446 85.4018 104.661 85.9635 102.016 86.0843C99.0938 86.2169 97.6063 85.7669 97.2563 85.49C97.0922 82.2161 98.3488 81.8741 99.6789 81.512C99.8879 81.4552 100.092 81.3995 100.289 81.3329C100.411 81.4295 100.545 81.5253 100.692 81.6192C103.04 83.1221 107.229 83.2842 113.143 82.1006L113.207 82.0881C112.41 82.8111 111.045 83.7815 109.11 84.653Z" fill="white"/>
</g>
<defs>
<filter id="filter0_dd_3_307" x="0" y="0" width="148" height="148" filterUnits="userSpaceOnUse" color-interpolation-filters="sRGB">
<feFlood flood-opacity="0" result="BackgroundImageFix"/>
<feColorMatrix in="SourceAlpha" type="matrix" values="0 0 0 0 0 0 0 0 0 0 0 0 0 0 0 0 0 0 127 0" result="hardAlpha"/>
<feOffset dx="4" dy="4"/>
<feGaussianBlur stdDeviation="5"/>
<feComposite in2="hardAlpha" operator="out"/>
<feColorMatrix type="matrix" values="0 0 0 0 0 0 0 0 0 0 0 0 0 0 0 0 0 0 1 0"/>
<feBlend mode="normal" in2="BackgroundImageFix" result="effect1_dropShadow_3_307"/>
<feColorMatrix in="SourceAlpha" type="matrix" values="0 0 0 0 0 0 0 0 0 0 0 0 0 0 0 0 0 0 127 0" result="hardAlpha"/>
<feOffset dy="4"/>
<feGaussianBlur stdDeviation="2"/>
<feComposite in2="hardAlpha" operator="out"/>
<feColorMatrix type="matrix" values="0 0 0 0 0 0 0 0 0 0 0 0 0 0 0 0 0 0 0.25 0"/>
<feBlend mode="normal" in2="effect1_dropShadow_3_307" result="effect2_dropShadow_3_307"/>
<feBlend mode="normal" in="SourceGraphic" in2="effect2_dropShadow_3_307" result="shape"/>
</filter>
<linearGradient id="paint0_linear_3_307" x1="-13.0588" y1="-13.7143" x2="178.885" y2="117.157" gradientUnits="userSpaceOnUse">
<stop offset="0.34375" stop-color="#472010" stop-opacity="0.67"/>
<stop offset="0.723958" stop-color="#472010"/>
</linearGradient>
<clipPath id="clip0_3_307">
<rect width="100" height="100" fill="white" transform="translate(20 20)"/>
</clipPath>
</defs>
</svg>
