<svg width="292" height="244" viewBox="0 0 292 244" fill="none" xmlns="http://www.w3.org/2000/svg">
<g filter="url(#filter0_dd_1_3156)">
<rect x="6" y="6" width="272" height="224" rx="20" fill="#F5F5F5"/>
<rect x="8.5" y="8.5" width="267" height="219" rx="17.5" stroke="url(#paint0_linear_1_3156)" stroke-width="5"/>
</g>
<g clip-path="url(#clip0_1_3156)">
<path d="M209.878 48H147.841C146.681 48 145.719 48.9625 145.719 50.1219V112.159C145.719 113.319 146.681 114.281 147.841 114.281H209.878C211.037 114.281 212 113.319 212 112.159V50.1219C212 48.9625 211.037 48 209.878 48ZM207.756 110.038H149.962V52.2438H207.756V110.038Z" fill="#472010"/>
<path d="M149.962 52.2438V110.038H207.756V52.2438H149.962ZM194.303 83.2625H163.416C162.256 83.2625 161.294 82.3219 161.294 81.1406C161.294 79.9812 162.256 79.0188 163.416 79.0188H194.303C195.462 79.0188 196.425 79.9812 196.425 81.1406C196.425 82.3219 195.484 83.2625 194.303 83.2625Z" fill="#4FBEE6"/>
<path d="M196.425 81.1406C196.425 82.3219 195.462 83.2625 194.303 83.2625H163.416C162.256 83.2625 161.294 82.3219 161.294 81.1406C161.294 79.9812 162.256 79.0188 163.416 79.0188H194.303C195.484 79.0188 196.425 79.9594 196.425 81.1406ZM136.159 48H74.1219C72.9625 48 72 48.9625 72 50.1219V112.159C72 113.319 72.9625 114.281 74.1219 114.281H136.159C137.319 114.281 138.281 113.319 138.281 112.159V50.1219C138.281 48.9625 137.341 48 136.159 48ZM134.038 110.038H76.2438V52.2438H134.038V110.038Z" fill="#472010"/>
<path d="M76.2437 52.2438V110.038H134.037V52.2438H76.2437ZM120.584 83.2625H107.262V96.5844C107.262 97.7437 106.322 98.7063 105.141 98.7063C103.981 98.7063 103.019 97.7437 103.019 96.5844V83.2625H89.6969C88.5375 83.2625 87.575 82.3219 87.575 81.1406C87.575 79.9812 88.5375 79.0188 89.6969 79.0188H103.019V65.6969C103.019 64.5375 103.981 63.575 105.141 63.575C106.322 63.575 107.262 64.5375 107.262 65.6969V79.0188H120.584C121.744 79.0188 122.706 79.9812 122.706 81.1406C122.706 82.3219 121.744 83.2625 120.584 83.2625Z" fill="#F8AF49"/>
<path d="M122.706 81.1406C122.706 82.3219 121.744 83.2625 120.584 83.2625H107.262V96.5844C107.262 97.7437 106.322 98.7062 105.141 98.7062C103.981 98.7062 103.019 97.7437 103.019 96.5844V83.2625H89.6969C88.5375 83.2625 87.575 82.3219 87.575 81.1406C87.575 79.9812 88.5375 79.0187 89.6969 79.0187H103.019V65.6969C103.019 64.5375 103.981 63.575 105.141 63.575C106.322 63.575 107.262 64.5375 107.262 65.6969V79.0187H120.584C121.744 79.0187 122.706 79.9594 122.706 81.1406ZM209.878 121.719H147.841C146.681 121.719 145.719 122.681 145.719 123.841V185.878C145.719 187.037 146.681 188 147.841 188H209.878C211.037 188 212 187.037 212 185.878V123.841C212 122.659 211.037 121.719 209.878 121.719ZM207.756 183.756H149.962V125.962H207.756V183.756Z" fill="#472010"/>
<path d="M149.962 125.962V183.756H207.756V125.962H149.962ZM194.303 162.997H163.416C162.256 162.997 161.294 162.034 161.294 160.875C161.294 159.694 162.256 158.753 163.416 158.753H194.303C195.462 158.753 196.425 159.694 196.425 160.875C196.425 162.034 195.484 162.997 194.303 162.997ZM194.303 150.987H163.416C162.256 150.987 161.294 150.025 161.294 148.866C161.294 147.706 162.256 146.744 163.416 146.744H194.303C195.462 146.744 196.425 147.706 196.425 148.866C196.425 150.025 195.484 150.987 194.303 150.987Z" fill="#54BF9F"/>
<path d="M196.425 148.866C196.425 150.025 195.462 150.988 194.303 150.988H163.416C162.256 150.988 161.294 150.025 161.294 148.866C161.294 147.706 162.256 146.744 163.416 146.744H194.303C195.484 146.744 196.425 147.706 196.425 148.866ZM196.425 160.875C196.425 162.034 195.462 162.997 194.303 162.997H163.416C162.256 162.997 161.294 162.034 161.294 160.875C161.294 159.694 162.256 158.753 163.416 158.753H194.303C195.484 158.753 196.425 159.672 196.425 160.875ZM136.159 121.719H74.1219C72.9625 121.719 72 122.659 72 123.841V185.878C72 187.037 72.9625 188 74.1219 188H136.159C137.319 188 138.281 187.037 138.281 185.878V123.841C138.281 122.659 137.341 121.719 136.159 121.719ZM134.038 183.756H76.2438V125.962H134.038V183.756Z" fill="#472010"/>
<path d="M76.2437 125.962V183.756H134.037V125.962H76.2437ZM103.544 144.119H106.737C107.897 144.119 108.859 145.081 108.859 146.241C108.859 147.4 107.897 148.362 106.737 148.362H103.544C102.384 148.362 101.422 147.4 101.422 146.241C101.422 145.059 102.384 144.119 103.544 144.119ZM106.737 165.6H103.544C102.384 165.6 101.422 164.637 101.422 163.478C101.422 162.319 102.384 161.356 103.544 161.356H106.737C107.897 161.356 108.859 162.319 108.859 163.478C108.859 164.637 107.919 165.6 106.737 165.6ZM120.584 156.981H89.6969C88.5375 156.981 87.575 156.019 87.575 154.859C87.575 153.678 88.5375 152.737 89.6969 152.737H120.584C121.744 152.737 122.706 153.678 122.706 154.859C122.706 156.041 121.744 156.981 120.584 156.981Z" fill="#F26E62"/>
<path d="M149.962 52.2438V110.038H207.756V52.2438H149.962ZM203.512 105.794H154.206V56.4875H203.534V105.794H203.512Z" fill="#38A9DA"/>
<path d="M76.2437 52.2438V110.038H134.037V52.2438H76.2437ZM129.794 105.794H80.4875V56.4875H129.816V105.794H129.794Z" fill="#ED9C3B"/>
<path d="M149.962 125.962V183.756H207.756V125.962H149.962ZM203.512 179.512H154.206V130.206H203.534V179.512H203.512Z" fill="#3DA57F"/>
<path d="M76.2437 125.962V183.756H134.037V125.962H76.2437ZM129.794 179.512H80.4875V130.206H129.816V179.512H129.794Z" fill="#E15F5A"/>
<path d="M122.706 154.859C122.706 156.019 121.744 156.981 120.584 156.981H89.6969C88.5375 156.981 87.575 156.019 87.575 154.859C87.575 153.678 88.5375 152.737 89.6969 152.737H120.584C121.744 152.737 122.706 153.678 122.706 154.859ZM108.859 146.241C108.859 147.4 107.897 148.362 106.737 148.362H103.544C102.384 148.362 101.422 147.4 101.422 146.241C101.422 145.081 102.384 144.119 103.544 144.119H106.737C107.919 144.119 108.859 145.059 108.859 146.241ZM108.859 163.478C108.859 164.637 107.897 165.6 106.737 165.6H103.544C102.384 165.6 101.422 164.637 101.422 163.478C101.422 162.319 102.384 161.356 103.544 161.356H106.737C107.919 161.356 108.859 162.319 108.859 163.478Z" fill="#472010"/>
</g>
<defs>
<filter id="filter0_dd_1_3156" x="0" y="0" width="292" height="244" filterUnits="userSpaceOnUse" color-interpolation-filters="sRGB">
<feFlood flood-opacity="0" result="BackgroundImageFix"/>
<feColorMatrix in="SourceAlpha" type="matrix" values="0 0 0 0 0 0 0 0 0 0 0 0 0 0 0 0 0 0 127 0" result="hardAlpha"/>
<feOffset dx="4" dy="4"/>
<feGaussianBlur stdDeviation="5"/>
<feComposite in2="hardAlpha" operator="out"/>
<feColorMatrix type="matrix" values="0 0 0 0 0 0 0 0 0 0 0 0 0 0 0 0 0 0 1 0"/>
<feBlend mode="normal" in2="BackgroundImageFix" result="effect1_dropShadow_1_3156"/>
<feColorMatrix in="SourceAlpha" type="matrix" values="0 0 0 0 0 0 0 0 0 0 0 0 0 0 0 0 0 0 127 0" result="hardAlpha"/>
<feOffset dy="4"/>
<feGaussianBlur stdDeviation="2"/>
<feComposite in2="hardAlpha" operator="out"/>
<feColorMatrix type="matrix" values="0 0 0 0 0 0 0 0 0 0 0 0 0 0 0 0 0 0 0.25 0"/>
<feBlend mode="normal" in2="effect1_dropShadow_1_3156" result="effect2_dropShadow_1_3156"/>
<feBlend mode="normal" in="SourceGraphic" in2="effect2_dropShadow_1_3156" result="shape"/>
</filter>
<linearGradient id="paint0_linear_1_3156" x1="-34.5" y1="-28.5" x2="320" y2="265" gradientUnits="userSpaceOnUse">
<stop offset="0.34375" stop-color="#472010" stop-opacity="0.67"/>
<stop offset="0.723958" stop-color="#472010"/>
</linearGradient>
<clipPath id="clip0_1_3156">
<rect width="140" height="140" fill="white" transform="translate(72 48)"/>
</clipPath>
</defs>
</svg>
