<svg width="292" height="244" viewBox="0 0 292 244" fill="none" xmlns="http://www.w3.org/2000/svg">
<g filter="url(#filter0_dd_1_3154)">
<rect x="6" y="6" width="272" height="224" rx="20" fill="#F5F5F5"/>
<rect x="8.5" y="8.5" width="267" height="219" rx="17.5" stroke="url(#paint0_linear_1_3154)" stroke-width="5"/>
</g>
<g clip-path="url(#clip0_1_3154)">
<path d="M148.377 128.063C148.957 128.063 149.513 127.832 149.923 127.422C150.334 127.012 150.564 126.455 150.564 125.875V119.337H153.48C154.987 120.778 156.765 121.905 158.712 122.652C160.658 123.399 162.734 123.752 164.818 123.688C166.902 123.625 168.953 123.147 170.851 122.283C172.748 121.42 174.455 120.187 175.871 118.656C176.256 118.25 176.47 117.712 176.47 117.152C176.47 116.593 176.256 116.055 175.871 115.648C174.394 114.062 172.607 112.797 170.62 111.931C168.633 111.066 166.489 110.618 164.321 110.617C160.283 110.624 156.402 112.184 153.482 114.973H148.377C147.796 114.973 147.24 115.203 146.83 115.613C146.42 116.023 146.189 116.58 146.189 117.16V123.688H142.593V111.899C143.653 112.482 144.841 112.793 146.051 112.803C147.874 112.752 149.624 112.081 151.012 110.898C152.4 109.716 153.342 108.095 153.681 106.303C155.407 105.764 156.91 104.679 157.966 103.212C159.021 101.744 159.571 99.9732 159.533 98.1659C159.532 97.8516 159.514 97.5376 159.478 97.2253C160.806 96.265 161.888 95.0033 162.634 93.5438C163.379 92.0843 163.768 90.4687 163.768 88.8297C163.768 87.1907 163.379 85.5751 162.634 84.1156C161.888 82.6561 160.806 81.3944 159.478 80.4341C159.514 80.1211 159.532 79.8063 159.533 79.4913C159.571 77.6843 159.021 75.9138 157.965 74.4466C156.91 72.9793 155.407 71.8946 153.681 71.3559C153.341 69.565 152.399 67.944 151.011 66.762C149.624 65.5799 147.874 64.9077 146.051 64.8569C144.979 64.8664 143.92 65.1043 142.947 65.5546C141.973 66.005 141.107 66.6575 140.405 67.4688C139.704 66.6575 138.837 66.005 137.864 65.5546C136.89 65.1043 135.832 64.8664 134.759 64.8569C132.936 64.9067 131.185 65.5785 129.797 66.7606C128.408 67.9428 127.465 69.5643 127.125 71.3559C125.399 71.8958 123.895 72.9821 122.841 74.4511C121.786 75.9201 121.238 77.6921 121.278 79.5C121.279 79.8151 121.297 80.1298 121.332 80.4428C120.004 81.4031 118.923 82.6648 118.177 84.1243C117.431 85.5838 117.042 87.1994 117.042 88.8384C117.042 90.4775 117.431 92.0931 118.177 93.5526C118.923 95.0121 120.004 96.2738 121.332 97.2341C121.297 97.5464 121.279 97.8604 121.278 98.1747C121.24 99.982 121.79 101.753 122.845 103.22C123.9 104.688 125.404 105.773 127.129 106.312C127.469 108.104 128.41 109.725 129.798 110.907C131.186 112.089 132.937 112.761 134.759 112.811C135.969 112.801 137.158 112.491 138.218 111.908V130.219H134.622V123.688C134.622 123.107 134.391 122.551 133.981 122.141C133.571 121.73 133.014 121.5 132.434 121.5H127.331C125.824 120.059 124.045 118.932 122.099 118.185C120.152 117.438 118.076 117.086 115.992 117.149C113.908 117.213 111.857 117.691 109.96 118.555C108.062 119.419 106.355 120.652 104.939 122.183C104.555 122.589 104.34 123.127 104.34 123.686C104.34 124.246 104.555 124.784 104.939 125.19C106.355 126.721 108.062 127.955 109.959 128.819C111.857 129.684 113.907 130.162 115.992 130.225C118.076 130.289 120.152 129.937 122.099 129.19C124.045 128.444 125.824 127.316 127.331 125.875H130.247V132.4C130.247 132.98 130.477 133.537 130.887 133.947C131.298 134.357 131.854 134.588 132.434 134.588H138.218V138.928H110.762C110.182 138.928 109.626 139.158 109.216 139.569C108.805 139.979 108.575 140.535 108.575 141.115C108.575 148.772 115.376 155.279 125.532 158.521C125.526 158.806 125.576 159.089 125.679 159.354C125.782 159.62 125.937 159.862 126.134 160.068L129.057 163.076C131.867 165.968 131.867 168.544 129.057 171.436L126.132 174.438C125.83 174.746 125.626 175.136 125.545 175.56C125.464 175.983 125.511 176.421 125.678 176.819C125.846 177.216 126.127 177.555 126.487 177.793C126.847 178.031 127.269 178.157 127.7 178.156H153.11C153.542 178.157 153.964 178.031 154.323 177.793C154.683 177.555 154.965 177.216 155.132 176.819C155.3 176.421 155.346 175.983 155.265 175.56C155.185 175.136 154.981 174.746 154.679 174.438L151.752 171.428C148.943 168.536 148.943 165.959 151.752 163.067L154.687 160.066C154.885 159.86 155.039 159.618 155.142 159.352C155.246 159.087 155.295 158.804 155.289 158.519C165.446 155.277 172.247 148.78 172.247 141.113C172.247 140.533 172.016 139.977 171.606 139.566C171.196 139.156 170.639 138.926 170.059 138.926H142.593V128.063H148.377ZM170.98 117.16C169.031 118.536 166.704 119.275 164.319 119.275C161.934 119.275 159.607 118.536 157.658 117.16C159.606 115.782 161.932 115.042 164.317 115.04C166.703 115.038 169.03 115.775 170.98 117.149V117.16ZM109.828 123.688C111.777 122.311 114.105 121.573 116.49 121.573C118.876 121.573 121.204 122.311 123.153 123.688C121.204 125.065 118.877 125.805 116.49 125.805C114.104 125.805 111.777 125.065 109.828 123.688ZM140.405 155.531C136.529 151.96 133.199 147.839 130.52 143.301H150.291C147.612 147.839 144.281 151.96 140.405 155.531ZM113.245 143.301H125.893C127.132 147.411 131.323 152.436 134.707 155.988C123.717 154.647 114.938 149.526 113.245 143.301ZM147.97 160.728C146.239 162.46 145.267 164.807 145.267 167.255C145.267 169.703 146.239 172.05 147.97 173.781H132.839C133.696 172.924 134.376 171.907 134.84 170.787C135.304 169.667 135.543 168.467 135.543 167.255C135.543 166.043 135.304 164.842 134.84 163.723C134.376 162.603 133.696 161.585 132.839 160.728H147.97ZM146.104 155.995C149.488 152.436 153.679 147.411 154.917 143.307H167.565C165.872 149.526 157.094 154.647 146.104 155.995ZM134.759 108.428C133.907 108.373 133.1 108.02 132.481 107.431C131.861 106.842 131.469 106.054 131.371 105.205C131.467 105.187 131.564 105.18 131.662 105.186C132.006 105.259 132.33 105.405 132.613 105.614C132.896 105.823 133.131 106.09 133.302 106.398L136.921 103.937C136.399 103.1 135.699 102.388 134.871 101.852C134.043 101.316 133.107 100.968 132.13 100.835C130.671 100.693 129.211 101.102 128.039 101.983C127.306 101.658 126.686 101.121 126.261 100.441C125.835 99.7602 125.623 98.9679 125.653 98.1659C125.667 97.7429 125.741 97.3239 125.872 96.9213C126.528 95.8822 127.147 95.3725 127.519 95.3725H127.532C127.926 95.3856 128.932 96.0288 129.925 98.3913L133.957 96.6959C131.92 91.8463 129.144 91.0478 127.667 91.0084C126.82 91.022 125.985 91.22 125.222 91.5887C124.458 91.9574 123.784 92.4879 123.247 93.1434C122.67 92.5846 122.211 91.9156 121.898 91.1761C121.585 90.4365 121.423 89.6416 121.423 88.8384C121.423 88.0353 121.585 87.2404 121.898 86.5008C122.211 85.7613 122.67 85.0923 123.247 84.5334C123.765 85.1754 124.415 85.6984 125.154 86.0667C125.892 86.4351 126.701 86.6403 127.525 86.6684H127.67C129.144 86.6225 131.922 85.8219 133.959 80.9809L129.927 79.2856C128.934 81.6438 127.928 82.2913 127.534 82.3022C127.195 82.3197 126.537 81.8034 125.872 80.7425C125.742 80.3434 125.668 79.9282 125.653 79.5088C125.624 78.7092 125.835 77.9192 126.258 77.2402C126.681 76.5612 127.298 76.0242 128.028 75.6981C129.042 76.4482 130.267 76.8593 131.528 76.8728C131.732 76.8735 131.936 76.8633 132.139 76.8422C133.116 76.7078 134.052 76.3598 134.88 75.823C135.708 75.2861 136.408 74.5736 136.929 73.7359L133.311 71.2794C133.14 71.5864 132.905 71.8533 132.622 72.0623C132.339 72.2712 132.015 72.4175 131.671 72.4913C131.573 72.4947 131.476 72.4881 131.38 72.4716C131.473 71.6206 131.863 70.8296 132.481 70.2373C133.098 69.6449 133.905 69.289 134.759 69.2319C135.751 69.3157 136.669 69.7862 137.316 70.5419C137.964 71.2975 138.287 72.2775 138.218 73.27V76.3806H142.593V73.27C142.523 72.2775 142.847 71.2975 143.494 70.5419C144.141 69.7862 145.06 69.3157 146.051 69.2319C146.904 69.2869 147.71 69.6396 148.329 70.2286C148.948 70.8175 149.34 71.6052 149.438 72.4541C149.342 72.4716 149.244 72.4782 149.147 72.4738C148.803 72.3996 148.478 72.253 148.195 72.0436C147.912 71.8343 147.677 71.567 147.506 71.2597L143.888 73.7206C144.41 74.5576 145.11 75.2694 145.938 75.8059C146.766 76.3423 147.701 76.6901 148.678 76.8247C148.881 76.8458 149.085 76.856 149.289 76.8553C150.55 76.8418 151.775 76.4307 152.789 75.6806C153.52 76.0083 154.136 76.547 154.558 77.2277C154.98 77.9083 155.189 78.6997 155.158 79.5C155.143 79.9266 155.07 80.3492 154.939 80.7556C154.283 81.8056 153.677 82.3197 153.279 82.2869C152.881 82.2541 151.879 81.6306 150.888 79.2703L146.854 80.9656C148.891 85.8131 151.667 86.6138 153.143 86.6531H153.287C154.112 86.625 154.921 86.4198 155.659 86.0514C156.398 85.683 157.048 85.1601 157.566 84.5181C158.143 85.0771 158.602 85.7464 158.915 86.4861C159.228 87.2258 159.39 88.0209 159.39 88.8242C159.39 89.6275 159.228 90.4227 158.915 91.1624C158.602 91.9021 158.143 92.5713 157.566 93.1303C157.025 92.4791 156.35 91.9515 155.587 91.5829C154.825 91.2142 153.992 91.0131 153.145 90.9931C151.671 91.0413 148.893 91.8397 146.856 96.6806L150.89 98.3759C151.881 96.0178 152.887 95.3703 153.281 95.3572C153.642 95.3725 154.285 95.8669 154.943 96.9147C155.073 97.3146 155.147 97.7305 155.162 98.1506C155.191 98.9525 154.979 99.7447 154.554 100.425C154.129 101.105 153.509 101.643 152.776 101.968C151.606 101.083 150.145 100.672 148.685 100.819C147.708 100.954 146.772 101.301 145.944 101.837C145.117 102.373 144.417 103.085 143.894 103.921L147.508 106.406C147.679 106.099 147.914 105.832 148.197 105.623C148.48 105.414 148.805 105.268 149.149 105.194C149.246 105.188 149.344 105.194 149.44 105.212C149.342 106.061 148.95 106.85 148.331 107.439C147.711 108.028 146.904 108.381 146.051 108.436C145.06 108.352 144.141 107.882 143.494 107.126C142.847 106.371 142.523 105.391 142.593 104.398V101.277H138.218V104.389C138.287 105.382 137.964 106.362 137.316 107.118C136.669 107.873 135.751 108.344 134.759 108.428ZM87.4481 76.7328C87.5516 77.2238 87.8208 77.6644 88.2105 77.9805C88.6002 78.2966 89.0868 78.4692 89.5886 78.4692C90.0904 78.4692 90.577 78.2966 90.9667 77.9805C91.3564 77.6644 91.6256 77.2238 91.7291 76.7328C93.6191 67.7641 94.5903 66.7622 103.277 64.8197C103.761 64.7105 104.194 64.4397 104.504 64.0519C104.814 63.6641 104.983 63.1823 104.983 62.6858C104.983 62.1893 104.814 61.7075 104.504 61.3197C104.194 60.9319 103.761 60.6611 103.277 60.5519C94.5903 58.6138 93.6191 57.6119 91.7291 48.6431C91.6256 48.1521 91.3564 47.7116 90.9667 47.3955C90.577 47.0793 90.0904 46.9068 89.5886 46.9068C89.0868 46.9068 88.6002 47.0793 88.2105 47.3955C87.8208 47.7116 87.5516 48.1521 87.4481 48.6431C85.5559 57.6119 84.5847 58.6138 75.8981 60.5519C75.4138 60.6611 74.981 60.9319 74.6709 61.3197C74.3608 61.7075 74.1919 62.1893 74.1919 62.6858C74.1919 63.1823 74.3608 63.6641 74.6709 64.0519C74.981 64.4397 75.4138 64.7105 75.8981 64.8197C84.5847 66.7622 85.5625 67.7641 87.4481 76.7328ZM89.5875 56.8266C90.6757 59.4629 92.7547 61.5671 95.3778 62.6869C92.755 63.8082 90.6762 65.9129 89.5875 68.5494C88.4989 65.9135 86.4211 63.809 83.7994 62.6869C86.4214 61.5662 88.4994 59.4622 89.5875 56.8266ZM171.588 93.185C171.588 93.6823 171.758 94.1648 172.068 94.5529C172.379 94.941 172.813 95.2116 173.299 95.32C181.985 97.2625 182.957 98.2644 184.847 107.231C184.95 107.722 185.219 108.162 185.609 108.479C185.999 108.795 186.485 108.967 186.987 108.967C187.489 108.967 187.975 108.795 188.365 108.479C188.755 108.162 189.024 107.722 189.127 107.231C191.02 98.2622 191.991 97.2625 200.678 95.32C201.162 95.2108 201.595 94.94 201.905 94.5522C202.215 94.1644 202.384 93.6826 202.384 93.1861C202.384 92.6896 202.215 92.2078 201.905 91.82C201.595 91.4322 201.162 91.1614 200.678 91.0522C191.991 89.1119 191.02 88.11 189.127 79.1413C189.024 78.6502 188.755 78.2097 188.365 77.8936C187.975 77.5775 187.489 77.4049 186.987 77.4049C186.485 77.4049 185.999 77.5775 185.609 77.8936C185.219 78.2097 184.95 78.6502 184.847 79.1413C182.957 88.11 181.985 89.1119 173.299 91.0522C172.814 91.1605 172.38 91.4308 172.069 91.8184C171.758 92.2061 171.589 92.6881 171.588 93.185ZM186.988 87.3269C188.076 89.962 190.154 92.0653 192.776 93.185C190.155 94.3071 188.077 96.4117 186.988 99.0475C185.899 96.411 183.821 94.3063 181.198 93.185C183.821 92.0661 185.9 89.9627 186.988 87.3269ZM93.8225 118.641C94.3246 118.641 94.8114 118.469 95.2014 118.152C95.5913 117.836 95.8606 117.395 95.9641 116.904C97.3291 110.425 97.9459 109.79 104.209 108.39C104.693 108.281 105.126 108.01 105.436 107.623C105.746 107.235 105.915 106.753 105.915 106.256C105.915 105.76 105.746 105.278 105.436 104.89C105.126 104.503 104.693 104.232 104.209 104.123C97.9459 102.725 97.3291 102.09 95.9641 95.6109C95.8606 95.1199 95.5914 94.6794 95.2017 94.3633C94.812 94.0471 94.3254 93.8746 93.8236 93.8746C93.3218 93.8746 92.8352 94.0471 92.4455 94.3633C92.0558 94.6794 91.7866 95.1199 91.6831 95.6109C90.3159 102.09 89.6991 102.725 83.4362 104.123C82.9519 104.232 82.5191 104.503 82.209 104.89C81.8989 105.278 81.73 105.76 81.73 106.256C81.73 106.753 81.8989 107.235 82.209 107.623C82.5191 108.01 82.9519 108.281 83.4362 108.39C89.6991 109.79 90.3159 110.425 91.6831 116.904C91.7865 117.395 92.0554 117.836 92.4449 118.152C92.8344 118.468 93.3208 118.641 93.8225 118.641ZM90.6572 106.258C91.9874 105.503 93.0829 104.396 93.8225 103.057C94.5632 104.395 95.6585 105.502 96.9878 106.258C95.657 107.016 94.5616 108.127 93.8225 109.469C93.0845 108.126 91.9888 107.015 90.6572 106.258Z" fill="#472010"/>
<path d="M140.405 97.8137C140.907 97.8141 141.394 97.6419 141.784 97.3261C142.174 97.0102 142.443 96.57 142.547 96.0791C143.4 92.0256 143.586 91.8353 147.488 90.9647C147.974 90.8564 148.408 90.5858 148.719 90.1977C149.03 89.8096 149.2 89.3271 149.2 88.8297C149.2 88.3323 149.03 87.8498 148.719 87.4616C148.408 87.0735 147.974 86.803 147.488 86.6947C143.586 85.8197 143.4 85.6316 142.547 81.5825C142.444 81.0903 142.175 80.6485 141.785 80.3313C141.395 80.0141 140.908 79.8409 140.405 79.8409C139.903 79.8409 139.415 80.0141 139.025 80.3313C138.635 80.6485 138.366 81.0903 138.264 81.5825C137.411 85.6316 137.227 85.8219 133.322 86.6947C132.837 86.803 132.403 87.0735 132.092 87.4616C131.781 87.8498 131.611 88.3323 131.611 88.8297C131.611 89.3271 131.781 89.8096 132.092 90.1977C132.403 90.5858 132.837 90.8564 133.322 90.9647C137.227 91.8397 137.411 92.0256 138.264 96.0791C138.368 96.57 138.637 97.0102 139.027 97.3261C139.417 97.6419 139.904 97.8141 140.405 97.8137ZM140.405 88.0094C140.648 88.3094 140.921 88.5842 141.219 88.8297C140.921 89.0739 140.648 89.348 140.405 89.6478C140.163 89.348 139.89 89.0739 139.592 88.8297C139.89 88.5842 140.162 88.3094 140.405 88.0094ZM203.727 58.3753C197.464 56.9775 196.847 56.3409 195.48 49.8637C195.376 49.3727 195.107 48.9322 194.718 48.6161C194.328 48.2999 193.841 48.1274 193.34 48.1274C192.838 48.1274 192.351 48.2999 191.961 48.6161C191.572 48.9322 191.303 49.3727 191.199 49.8637C189.834 56.3409 189.217 56.9775 182.954 58.3753C182.47 58.4845 182.037 58.7553 181.727 59.1431C181.417 59.5309 181.248 60.0127 181.248 60.5092C181.248 61.0057 181.417 61.4875 181.727 61.8753C182.037 62.2631 182.47 62.5339 182.954 62.6431C189.217 64.0409 189.834 64.6775 191.199 71.1547C191.303 71.6457 191.572 72.0862 191.961 72.4024C192.351 72.7185 192.838 72.891 193.34 72.891C193.841 72.891 194.328 72.7185 194.718 72.4024C195.107 72.0862 195.376 71.6457 195.48 71.1547C196.847 64.6775 197.464 64.0409 203.727 62.6431C204.211 62.5339 204.644 62.2631 204.954 61.8753C205.264 61.4875 205.433 61.0057 205.433 60.5092C205.433 60.0127 205.264 59.5309 204.954 59.1431C204.644 58.7553 204.211 58.4845 203.727 58.3753ZM193.341 63.7106C192.601 62.3717 191.504 61.2639 190.173 60.5103C191.503 59.7553 192.599 58.6479 193.341 57.31C194.082 58.6479 195.178 59.7553 196.508 60.5103C195.177 61.2639 194.08 62.3717 193.341 63.7106Z" fill="#472010"/>
<path d="M142.593 49.6166H138.218V58.3294H142.593V49.6166Z" fill="#472010"/>
<path d="M162.128 58.9835L157.893 63.3389L161.03 66.3887L165.265 62.0333L162.128 58.9835Z" fill="#472010"/>
<path d="M118.682 58.9841L115.545 62.034L119.78 66.3893L122.917 63.3395L118.682 58.9841Z" fill="#472010"/>
</g>
<defs>
<filter id="filter0_dd_1_3154" x="0" y="0" width="292" height="244" filterUnits="userSpaceOnUse" color-interpolation-filters="sRGB">
<feFlood flood-opacity="0" result="BackgroundImageFix"/>
<feColorMatrix in="SourceAlpha" type="matrix" values="0 0 0 0 0 0 0 0 0 0 0 0 0 0 0 0 0 0 127 0" result="hardAlpha"/>
<feOffset dx="4" dy="4"/>
<feGaussianBlur stdDeviation="5"/>
<feComposite in2="hardAlpha" operator="out"/>
<feColorMatrix type="matrix" values="0 0 0 0 0 0 0 0 0 0 0 0 0 0 0 0 0 0 1 0"/>
<feBlend mode="normal" in2="BackgroundImageFix" result="effect1_dropShadow_1_3154"/>
<feColorMatrix in="SourceAlpha" type="matrix" values="0 0 0 0 0 0 0 0 0 0 0 0 0 0 0 0 0 0 127 0" result="hardAlpha"/>
<feOffset dy="4"/>
<feGaussianBlur stdDeviation="2"/>
<feComposite in2="hardAlpha" operator="out"/>
<feColorMatrix type="matrix" values="0 0 0 0 0 0 0 0 0 0 0 0 0 0 0 0 0 0 0.25 0"/>
<feBlend mode="normal" in2="effect1_dropShadow_1_3154" result="effect2_dropShadow_1_3154"/>
<feBlend mode="normal" in="SourceGraphic" in2="effect2_dropShadow_1_3154" result="shape"/>
</filter>
<linearGradient id="paint0_linear_1_3154" x1="-34.5" y1="-28.5" x2="320" y2="265" gradientUnits="userSpaceOnUse">
<stop offset="0.34375" stop-color="#472010" stop-opacity="0.67"/>
<stop offset="0.723958" stop-color="#472010"/>
</linearGradient>
<clipPath id="clip0_1_3154">
<rect width="140" height="140" fill="white" transform="translate(72 48)"/>
</clipPath>
</defs>
</svg>
