<svg xmlns="http://www.w3.org/2000/svg" viewBox="0 0 500 500"><g id="freepik--background-simple--inject-2"><path d="M441.64,158S374.89,78.11,271.49,59.79,147.8,119.34,113.12,165.15,39.16,228,37.2,294.08s24.87,100.13,76.57,123.69,104.71,36,156.41,43.19,92.93,3.27,113.22-39.27,11.12-62.17,34.68-82.46S494.65,226.67,441.64,158Z" style="fill:#E16930"></path><path d="M441.64,158S374.89,78.11,271.49,59.79,147.8,119.34,113.12,165.15,39.16,228,37.2,294.08s24.87,100.13,76.57,123.69,104.71,36,156.41,43.19,92.93,3.27,113.22-39.27,11.12-62.17,34.68-82.46S494.65,226.67,441.64,158Z" style="fill:#fff;opacity:0.7000000000000001"></path></g><g id="freepik--Bushes--inject-2"><path d="M432.43,445.86c-1.49-12.49-11.17-37.24-25.07-44.19-14.73-7.37-25.78,9.47-52.08,21.57S335.81,414.3,308.46,398s-31,6.31-42.09,11.57c-11.43,5.44-18.17-14.56-20.86-22-5.27-14.52-11.4-27-25-35.58-21.07-13.3-57.1-12.25-68.24,13.52-3.35,7.75-2.14,22-10.55,26.15-12.63,6.31-45.24-1.05-47.34,20A31.21,31.21,0,0,0,99,430.8c.92,2.8,1.63,5.74,1.16,7.17-1.06,3.16-7.9-4.21-13.68-.53a25.94,25.94,0,0,0-7.79,8.42Z" style="fill:#E16930"></path><path d="M184.64,373.17a12.56,12.56,0,0,0,1,7.7,23.74,23.74,0,0,0,4.47,5.81S192,380,184.64,373.17Z" style="fill:#fff"></path><path d="M149.36,410.34a12.58,12.58,0,0,0,7.21,2.87,24,24,0,0,0,7.25-1.11S158.91,407.25,149.36,410.34Z" style="fill:#fff"></path><path d="M114.91,405.59a12.58,12.58,0,0,0,7.21,2.87,24,24,0,0,0,7.25-1.11S124.46,402.5,114.91,405.59Z" style="fill:#fff"></path><path d="M144.42,427.78a12.6,12.6,0,0,0,7.74.6,24,24,0,0,0,6.59-3.21S152.62,422,144.42,427.78Z" style="fill:#fff"></path><path d="M109.44,423.34a12.58,12.58,0,0,0,7.74.6,24,24,0,0,0,6.59-3.21S117.64,417.55,109.44,423.34Z" style="fill:#fff"></path><path d="M167.94,429.6a12.56,12.56,0,0,0,7.28-2.68,24,24,0,0,0,4.67-5.66S173,420.92,167.94,429.6Z" style="fill:#fff"></path><path d="M119,442.06a12.58,12.58,0,0,0,7.28-2.68,23.84,23.84,0,0,0,4.66-5.66S124.05,433.38,119,442.06Z" style="fill:#fff"></path><path d="M158,377.52a12.54,12.54,0,0,0,4.17,6.55,23.87,23.87,0,0,0,6.53,3.34S167.57,380.6,158,377.52Z" style="fill:#fff"></path><path d="M228.2,374.42a12.54,12.54,0,0,0-6.88,3.58,23.9,23.9,0,0,0-3.9,6.21S224.3,383.67,228.2,374.42Z" style="fill:#fff"></path><path d="M243,396.57a12.56,12.56,0,0,0-7.7,1,24.19,24.19,0,0,0-5.81,4.48S236.11,403.9,243,396.57Z" style="fill:#fff"></path><path d="M241.53,421.73a12.57,12.57,0,0,0-7-3.37,23.76,23.76,0,0,0-7.31.59S231.78,424.14,241.53,421.73Z" style="fill:#fff"></path><path d="M225.05,435.23a12.59,12.59,0,0,0-5.34-5.64,23.83,23.83,0,0,0-7-2.06S215.08,434,225.05,435.23Z" style="fill:#fff"></path><path d="M216.37,394.4a12.59,12.59,0,0,0-6.88,3.59,23.82,23.82,0,0,0-3.91,6.2S212.46,403.65,216.37,394.4Z" style="fill:#fff"></path><path d="M146.53,388.85a12.49,12.49,0,0,0,5.54,5.43,24,24,0,0,0,7.11,1.79S156.53,389.7,146.53,388.85Z" style="fill:#fff"></path><path d="M207.31,368.48a12.59,12.59,0,0,0-4.32,6.45,24,24,0,0,0-.45,7.32S208.32,378.48,207.31,368.48Z" style="fill:#fff"></path><path d="M194.3,356.3a12.63,12.63,0,0,0-1,7.7,23.9,23.9,0,0,0,2.83,6.76S199.61,364.82,194.3,356.3Z" style="fill:#fff"></path><path d="M166.12,360.4a12.59,12.59,0,0,0,2.58,7.32,24.08,24.08,0,0,0,5.6,4.73S174.73,365.57,166.12,360.4Z" style="fill:#fff"></path><path d="M289.26,406a7.31,7.31,0,0,0,.56,4.47,14,14,0,0,0,2.6,3.38S293.51,410,289.26,406Z" style="fill:#fff"></path><path d="M268.77,427.55a7.33,7.33,0,0,0,4.19,1.66,13.91,13.91,0,0,0,4.21-.64S274.32,425.75,268.77,427.55Z" style="fill:#fff"></path><path d="M265.9,437.67a7.34,7.34,0,0,0,4.5.35,14.09,14.09,0,0,0,3.82-1.86S270.67,434.31,265.9,437.67Z" style="fill:#fff"></path><path d="M279.56,438.73a7.34,7.34,0,0,0,4.23-1.56,14,14,0,0,0,2.71-3.28S282.49,433.69,279.56,438.73Z" style="fill:#fff"></path><path d="M273.8,408.49a7.35,7.35,0,0,0,2.42,3.8,14.06,14.06,0,0,0,3.79,1.94S279.35,410.28,273.8,408.49Z" style="fill:#fff"></path><path d="M314.55,406.68a7.33,7.33,0,0,0-4,2.09,13.73,13.73,0,0,0-2.27,3.6S312.29,412.06,314.55,406.68Z" style="fill:#fff"></path><path d="M323.13,419.55a7.27,7.27,0,0,0-4.47.57,13.82,13.82,0,0,0-3.37,2.6S319.15,423.8,323.13,419.55Z" style="fill:#fff"></path><path d="M322.29,434.16a7.25,7.25,0,0,0-4.06-2,14.07,14.07,0,0,0-4.24.34S316.63,435.55,322.29,434.16Z" style="fill:#fff"></path><path d="M312.72,442a7.26,7.26,0,0,0-3.1-3.28,13.82,13.82,0,0,0-4.08-1.19S306.93,441.29,312.72,442Z" style="fill:#fff"></path><path d="M307.68,418.29a7.32,7.32,0,0,0-4,2.08,13.81,13.81,0,0,0-2.26,3.61S305.41,423.66,307.68,418.29Z" style="fill:#fff"></path><path d="M267.13,415.07a7.29,7.29,0,0,0,3.22,3.15,13.93,13.93,0,0,0,4.13,1S272.94,415.56,267.13,415.07Z" style="fill:#fff"></path><path d="M302.42,403.24a7.3,7.3,0,0,0-2.51,3.74,14.12,14.12,0,0,0-.26,4.25S303,409,302.42,403.24Z" style="fill:#fff"></path><path d="M294.86,396.17a7.29,7.29,0,0,0-.59,4.46,13.86,13.86,0,0,0,1.64,3.93S298,401.11,294.86,396.17Z" style="fill:#fff"></path><path d="M278.5,398.55a7.3,7.3,0,0,0,1.5,4.25,13.91,13.91,0,0,0,3.25,2.75S283.5,401.55,278.5,398.55Z" style="fill:#fff"></path><path d="M391,415.47a7.36,7.36,0,0,0,.57,4.47,14.07,14.07,0,0,0,2.6,3.37S395.28,419.45,391,415.47Z" style="fill:#fff"></path><path d="M370.54,437.05a7.29,7.29,0,0,0,4.19,1.66,14,14,0,0,0,4.21-.64S376.09,435.25,370.54,437.05Z" style="fill:#fff"></path><path d="M375.57,418a7.24,7.24,0,0,0,2.42,3.8,13.72,13.72,0,0,0,3.79,1.94S381.12,419.78,375.57,418Z" style="fill:#fff"></path><path d="M416.32,416.19a7.28,7.28,0,0,0-4,2.08,13.73,13.73,0,0,0-2.27,3.6S414.05,421.56,416.32,416.19Z" style="fill:#fff"></path><path d="M424.9,429.05a7.27,7.27,0,0,0-4.47.57,13.82,13.82,0,0,0-3.37,2.6S420.92,433.31,424.9,429.05Z" style="fill:#fff"></path><path d="M424.06,443.66a7.32,7.32,0,0,0-4.06-2,14,14,0,0,0-4.24.34S418.4,445.06,424.06,443.66Z" style="fill:#fff"></path><path d="M409.45,427.79a7.29,7.29,0,0,0-4,2.09,13.85,13.85,0,0,0-2.26,3.6S407.18,433.17,409.45,427.79Z" style="fill:#fff"></path><path d="M368.9,424.57a7.3,7.3,0,0,0,3.21,3.16,14.16,14.16,0,0,0,4.13,1S374.71,425.06,368.9,424.57Z" style="fill:#fff"></path><path d="M404.19,412.74a7.35,7.35,0,0,0-2.51,3.75,14.12,14.12,0,0,0-.26,4.25S404.78,418.55,404.19,412.74Z" style="fill:#fff"></path><path d="M396.63,405.67a7.38,7.38,0,0,0-.6,4.47,13.87,13.87,0,0,0,1.65,3.93S399.72,410.62,396.63,405.67Z" style="fill:#fff"></path><path d="M380.27,408.05a7.3,7.3,0,0,0,1.5,4.25,13.91,13.91,0,0,0,3.25,2.75S385.27,411.05,380.27,408.05Z" style="fill:#fff"></path><polygon points="175.88 445.86 185.25 445.86 181.14 424.82 200.61 409.56 178.51 420.08 172.2 390.1 177.46 444.81 163.78 439.55 138 429.55 166.41 445.33 175.88 445.86" style="fill:#a1a1a1"></polygon><polygon points="292.15 417.45 279.52 444.81 284.78 445.33 287.94 437.44 302.01 434.92 288.99 432.18 292.15 417.45" style="fill:#a1a1a1"></polygon><polygon points="385.27 430.6 392.63 445.33 393.92 437.37 385.27 430.6" style="fill:#a1a1a1"></polygon><polygon points="399 445.86 400.05 435.15 409.47 427.97 400.6 429.54 402.1 414.3 392.63 445.33 395.79 445.86 399 445.86" style="fill:#a1a1a1"></polygon></g><g id="freepik--Clouds--inject-2"><path d="M435.12,52.48H346.7a.5.5,0,0,1-.45-.28.51.51,0,0,1,.06-.53l1.8-2.26c1.27-1.57,3.23-1,4.81-.47,1,.32,2,.63,2.58.34a7.06,7.06,0,0,0,2.13-2.63,15.28,15.28,0,0,1,3.19-4.07c1.68-1.4,4.41.06,7.3,1.61,2.27,1.21,4.63,2.47,5.9,1.92a3.74,3.74,0,0,0,2-2.31,6.56,6.56,0,0,1,4.31-4c2.39-.86,4.73.17,6.8,1.08,2.88,1.27,4.57,1.87,6-.42a25.35,25.35,0,0,0,2-4.11c1.54-3.74,3.12-7.61,9.67-8.3,8.43-.9,18.51,13.94,19.76,15.84a7.38,7.38,0,0,0,3.58-.21,5.35,5.35,0,0,1,4.95.68c3.88,2.43,2.53,7.56,2.47,7.77A.49.49,0,0,1,435.12,52.48Zm-87.38-1h87c.21-1.13.58-4.6-2.12-6.29a4.38,4.38,0,0,0-4.17-.56,8.2,8.2,0,0,1-4.24.17.51.51,0,0,1-.32-.22c-.1-.16-10.75-16.41-18.92-15.56-6,.63-7.3,3.9-8.85,7.69A26,26,0,0,1,394,41c-2,3.14-4.68,2-7.28.81-2-.88-4.05-1.79-6.05-1.06a5.58,5.58,0,0,0-3.75,3.5A4.7,4.7,0,0,1,374.42,47c-1.73.74-4.18-.58-6.77-2s-5-2.69-6.19-1.73a14.93,14.93,0,0,0-3,3.83,7.45,7.45,0,0,1-2.53,3c-.94.47-2.1.11-3.33-.27-1.75-.55-2.95-.83-3.73.14Z" style="opacity:0.30000000000000004"></path><path d="M256.74,91.49H84.2a.5.5,0,0,1-.39-.81l3.52-4.4c2.26-2.83,5.76-1.74,8.86-.77,2.1.66,4.09,1.28,5.39.63,1.6-.8,2.88-2.89,4.35-5.31A29.76,29.76,0,0,1,112.05,73c3-2.52,8.22.25,13.72,3.19C130.3,78.62,135,81.13,137.7,80c2.53-1.09,3.3-2.78,4.2-4.75,1.18-2.6,2.52-5.54,8.15-7.59C154.52,66,159,68,163,69.72c5.12,2.25,9.16,4,12.37-1a50.46,50.46,0,0,0,3.9-8.09c3.07-7.5,6-14.59,18.48-15.9,16.4-1.73,36.34,28,38.21,30.86a14.58,14.58,0,0,0,7.4-.38c2.65-.67,5.15-1.3,9.28,1.28,7.28,4.55,4.65,14.54,4.62,14.64A.49.49,0,0,1,256.74,91.49Zm-171.5-1h171.1c.38-1.77,1.62-9.48-4.27-13.16-3.77-2.36-5.86-1.83-8.5-1.16a15.51,15.51,0,0,1-8.07.34.51.51,0,0,1-.31-.21C235,76,214,44,197.81,45.71,185.9,47,183.24,53.47,180.15,61a50.72,50.72,0,0,1-4,8.25c-3.67,5.76-8.5,3.64-13.61,1.39-4-1.75-8.08-3.56-12.17-2.07-5.23,1.9-6.43,4.53-7.58,7.07-.94,2.06-1.83,4-4.72,5.25-3.15,1.34-7.83-1.16-12.79-3.81s-10.1-5.4-12.61-3.31a29,29,0,0,0-5.91,7.58C105.23,83.9,103.89,86.1,102,87c-1.66.82-3.83.14-6.14-.57-2.92-.92-6-1.86-7.78.43Z" style="opacity:0.30000000000000004"></path></g><g id="freepik--Trees--inject-2"><path d="M264.73,275.82c18.18,92.2-39,53.79-87,53.79s-108.91,31.27-87-53.79c12.53-48.61,39-79,87-79S257.06,236.94,264.73,275.82Z" style="fill:#E16930"></path><path d="M264.73,275.82c18.18,92.2-39,53.79-87,53.79s-108.91,31.27-87-53.79c12.53-48.61,39-79,87-79S257.06,236.94,264.73,275.82Z" style="fill:#fff;opacity:0.30000000000000004"></path><polygon points="162.69 282.67 175.89 291.82 174.37 331.73 150.33 321.25 173.75 339.13 172.19 445 184.71 445 182.79 309.8 216.29 272.95 182.39 301.93 181.15 247.06 177.45 284.67 168.74 278.34 149.71 251.38 161.94 275.89 122.58 260.01 162.69 282.67" style="fill:#c2c2c2"></polygon><path d="M163.54,231.67s-1.28,6,1.39,10.87a33.75,33.75,0,0,0,6.31,8.21S173.88,241.37,163.54,231.67Z" style="fill:#fff"></path><path d="M113.75,284.15s4.58,4,10.18,4a33.76,33.76,0,0,0,10.23-1.56S127.23,279.78,113.75,284.15Z" style="fill:#fff"></path><path d="M106.77,308.77s5.56,2.45,10.92.83a33.63,33.63,0,0,0,9.31-4.52S118.35,300.59,106.77,308.77Z" style="fill:#fff"></path><path d="M140,311.33s6.08-.08,10.29-3.78a34.15,34.15,0,0,0,6.58-8S147.11,299.08,140,311.33Z" style="fill:#fff"></path><path d="M126,237.82s1.38,5.92,5.9,9.23a33.77,33.77,0,0,0,9.21,4.72S139.46,242.16,126,237.82Z" style="fill:#fff"></path><path d="M225,233.43s-6,.85-9.71,5.06a33.87,33.87,0,0,0-5.51,8.76S219.53,246.49,225,233.43Z" style="fill:#fff"></path><path d="M245.9,264.7s-6-1.28-10.87,1.39a33.74,33.74,0,0,0-8.2,6.32S236.21,275.05,245.9,264.7Z" style="fill:#fff"></path><path d="M243.86,300.22s-4.29-4.31-9.87-4.76a33.67,33.67,0,0,0-10.32.83S230.09,303.61,243.86,300.22Z" style="fill:#fff"></path><path d="M220.59,319.28s-2.47-5.56-7.53-8a33.89,33.89,0,0,0-9.93-2.91S206.52,317.55,220.59,319.28Z" style="fill:#fff"></path><path d="M208.34,261.64s-6,.86-9.72,5.06a33.83,33.83,0,0,0-5.51,8.77S202.82,274.7,208.34,261.64Z" style="fill:#fff"></path><path d="M109.75,253.81s2.68,5.45,7.82,7.67a33.92,33.92,0,0,0,10,2.52S123.87,255,109.75,253.81Z" style="fill:#fff"></path><path d="M195.55,225.06s-4.87,3.63-6.1,9.1a33.71,33.71,0,0,0-.63,10.33S197,239.16,195.55,225.06Z" style="fill:#fff"></path><path d="M177.18,207.86s-2.77,5.41-1.46,10.86a33.66,33.66,0,0,0,4,9.55S184.68,219.89,177.18,207.86Z" style="fill:#fff"></path><path d="M137.41,213.64s0,6.08,3.64,10.34a33.92,33.92,0,0,0,7.9,6.68S149.56,220.94,137.41,213.64Z" style="fill:#fff"></path><path d="M366.36,103.48c17.12,86.82-36.68,50.66-81.92,50.66s-102.56,29.45-81.91-50.66c11.8-45.78,36.68-74.39,81.91-74.39S359.14,66.86,366.36,103.48Z" style="fill:#E16930"></path><path d="M366.36,103.48c17.12,86.82-36.68,50.66-81.92,50.66s-102.56,29.45-81.91-50.66c11.8-45.78,36.68-74.39,81.91-74.39S359.14,66.86,366.36,103.48Z" style="fill:#fff;opacity:0.5"></path><polygon points="258.63 146.26 280.69 163.1 278.43 445.12 291.76 445.12 289.2 135.48 320.75 100.78 288.82 128.07 287.66 76.4 284.17 111.81 275.96 105.86 258.05 80.46 269.56 103.54 232.5 88.59 270.27 109.93 282.7 118.55 281.27 156.13 258.63 146.26" style="fill:#a1a1a1"></polygon><path d="M271.07,61.91s-1.21,5.59,1.3,10.23a31.88,31.88,0,0,0,5.95,7.73S280.81,71,271.07,61.91Z" style="fill:#fff"></path><path d="M224.18,111.32s4.31,3.76,9.59,3.81a32,32,0,0,0,9.63-1.47S236.88,107.21,224.18,111.32Z" style="fill:#fff"></path><path d="M217.61,134.51s5.23,2.31,10.28.78a31.73,31.73,0,0,0,8.77-4.26S228.51,126.81,217.61,134.51Z" style="fill:#fff"></path><path d="M248.88,136.92s5.72-.08,9.68-3.56a32,32,0,0,0,6.2-7.53S255.59,125.38,248.88,136.92Z" style="fill:#fff"></path><path d="M235.68,67.69s1.3,5.58,5.55,8.7a32,32,0,0,0,8.68,4.44S248.39,71.79,235.68,67.69Z" style="fill:#fff"></path><path d="M329,63.56s-5.67.8-9.15,4.77a31.65,31.65,0,0,0-5.19,8.25S323.79,75.86,329,63.56Z" style="fill:#fff"></path><path d="M348.62,93S343,91.8,338.39,94.32a31.7,31.7,0,0,0-7.72,6S339.5,102.75,348.62,93Z" style="fill:#fff"></path><path d="M346.7,126.46s-4-4.06-9.29-4.48a31.91,31.91,0,0,0-9.72.78S333.74,129.65,346.7,126.46Z" style="fill:#fff"></path><path d="M324.79,144.41s-2.32-5.23-7.09-7.5a31.85,31.85,0,0,0-9.35-2.74S311.54,142.77,324.79,144.41Z" style="fill:#fff"></path><path d="M313.26,90.13s-5.67.8-9.16,4.77a32,32,0,0,0-5.19,8.25S308.06,102.43,313.26,90.13Z" style="fill:#fff"></path><path d="M220.41,82.75s2.52,5.14,7.37,7.22a31.75,31.75,0,0,0,9.45,2.38S233.71,83.87,220.41,82.75Z" style="fill:#fff"></path><path d="M301.21,55.68s-4.58,3.42-5.74,8.57a31.77,31.77,0,0,0-.6,9.72S302.55,69,301.21,55.68Z" style="fill:#fff"></path><path d="M283.91,39.48s-2.6,5.1-1.37,10.23a32,32,0,0,0,3.76,9S291,50.81,283.91,39.48Z" style="fill:#fff"></path><path d="M246.46,44.93s0,5.72,3.43,9.73A32.06,32.06,0,0,0,257.33,61S257.9,51.8,246.46,44.93Z" style="fill:#fff"></path></g><g id="freepik--Floor--inject-2"><path d="M455.11,446.36H41.57a.5.5,0,1,1,0-1H455.11a.5.5,0,0,1,0,1Z" style="fill:#263238"></path></g><g id="freepik--Character--inject-2"><path d="M300,460.69c-4-6.08-12.36-15.41-12.36-15.41s1-48.51,2.66-59.35-3.23-34.43-3-36S289,284.34,289,284.34l-36.34,1.52-36.33-1.52S217.83,348.45,218,350s-4.76,25.11-3,36,2.66,59.35,2.66,59.35-8.37,9.33-12.37,15.41-2.66,11.8-.76,12.56,5.71,1.33,14.08-5.52a30.61,30.61,0,0,0,10.27-15.41s1.91-1.33,2.86-6.28.76-7.22,1.14-9.32,2.66-8.37,3.42-11.6-.76-8.37.19-16.36,5.52-42.05,5.71-45.09,8-50.79,8-50.79l2.47.19,2.48-.19s7.8,47.75,8,50.79,4.75,37.1,5.7,45.09-.57,13.12.2,16.36,3,9.51,3.42,11.6.19,4.38,1.14,9.32,2.85,6.28,2.85,6.28a30.67,30.67,0,0,0,10.28,15.41c8.37,6.85,12.17,6.28,14.08,5.52S304,466.78,300,460.69Z" style="fill:#263238"></path><path d="M206.74,474.2a6,6,0,0,1-2.41-.49,3.48,3.48,0,0,1-1.77-2.35c-.76-2.43-.56-6.58,2.3-10.94,3.69-5.63,11.19-14.1,12.28-15.32-.07-3.39-1-48.76-2.66-59.09-1.27-8.09,1.09-23,2.35-31,.39-2.48.73-4.62.7-5-.2-1.52-1.66-63.06-1.72-65.68A.51.51,0,0,1,216,284a.57.57,0,0,1,.37-.14l36.34,1.52L289,283.84a.57.57,0,0,1,.37.14.51.51,0,0,1,.15.37c-.06,2.62-1.52,64.16-1.72,65.69,0,.34.3,2.48.7,5,1.26,8,3.62,22.92,2.35,31-1.64,10.33-2.59,55.7-2.66,59.09,1.09,1.22,8.59,9.69,12.28,15.32h0c2.86,4.36,3.06,8.51,2.3,10.94a3.48,3.48,0,0,1-1.77,2.35c-1.29.52-5.2,2.08-14.58-5.59A31.09,31.09,0,0,1,276,452.6c-.51-.45-2.07-2.15-2.9-6.46a55.5,55.5,0,0,1-.87-6.75,23.89,23.89,0,0,0-.27-2.58c-.19-1-.87-3.15-1.59-5.4s-1.45-4.56-1.83-6.18a20.79,20.79,0,0,1-.09-5.73,55.06,55.06,0,0,0-.11-10.68c-.38-3.16-1.33-10.47-2.34-18.21-1.52-11.74-3.26-25.05-3.37-26.91-.18-2.82-7.11-45.4-7.91-50.29l-2,.15-2.09-.15c-.8,4.88-7.73,47.47-7.91,50.29-.12,1.86-1.85,15.18-3.38,26.93-1,7.73-2,15-2.33,18.19a55.06,55.06,0,0,0-.11,10.68,20.79,20.79,0,0,1-.09,5.73c-.38,1.61-1.12,3.93-1.83,6.17s-1.4,4.38-1.59,5.41a23.89,23.89,0,0,0-.27,2.58,55.5,55.5,0,0,1-.87,6.75c-.83,4.31-2.39,6-2.9,6.46a31.09,31.09,0,0,1-10.4,15.52C212.79,473.12,209,474.2,206.74,474.2Zm10.08-189.34c.53,22.31,1.55,63.88,1.7,65.05a41.8,41.8,0,0,1-.7,5.25c-1.26,7.95-3.6,22.76-2.35,30.69,1.7,10.75,2.66,58.94,2.67,59.42a.51.51,0,0,1-.13.35c-.08.09-8.39,9.36-12.32,15.35-2.66,4.06-2.87,7.88-2.18,10.09a2.73,2.73,0,0,0,1.19,1.73c1.15.45,4.65,1.85,13.58-5.45a30.45,30.45,0,0,0,10.1-15.13.48.48,0,0,1,.2-.3s1.76-1.33,2.65-6a52.5,52.5,0,0,0,.85-6.64,25,25,0,0,1,.29-2.68c.2-1.09.89-3.25,1.61-5.53s1.45-4.52,1.82-6.1a20.35,20.35,0,0,0,.06-5.44A56.23,56.23,0,0,1,236,408.7c.37-3.17,1.32-10.47,2.33-18.2,1.53-11.74,3.26-25,3.37-26.86.19-3,7.68-48.89,8-50.85a.48.48,0,0,1,.53-.41l2.47.19,2.4-.19a.48.48,0,0,1,.53.41c.32,2,7.81,47.82,8,50.85.11,1.82,1.84,15.11,3.37,26.84,1,7.74,1.95,15,2.33,18.22a56.23,56.23,0,0,1,.12,10.86,20.35,20.35,0,0,0,.06,5.44c.37,1.58,1.11,3.88,1.82,6.1s1.41,4.44,1.61,5.53a25,25,0,0,1,.29,2.68,52.5,52.5,0,0,0,.85,6.64c.89,4.63,2.64,5.95,2.66,6a.51.51,0,0,1,.19.29A30.45,30.45,0,0,0,287,467.34c8.93,7.3,12.43,5.9,13.58,5.45a2.69,2.69,0,0,0,1.18-1.73c.7-2.21.49-6-2.17-10.09-3.93-6-12.24-15.26-12.32-15.35a.51.51,0,0,1-.13-.35c0-.48,1-48.67,2.67-59.42,1.25-7.93-1.09-22.74-2.35-30.69a41.8,41.8,0,0,1-.7-5.25c.15-1.17,1.17-42.74,1.7-65.05l-35.8,1.5Z" style="fill:#263238"></path><path d="M240.47,186l-4.57,2.85-3.41,106.24s5.41,4.06,21.39,4.44,22.55-4.06,22.55-4.06l-9.9-108.52Z" style="fill:#fff"></path><path d="M255.82,300l-1.95,0c-16-.38-21.46-4.37-21.68-4.54a.5.5,0,0,1-.2-.42l3.41-106.24a.5.5,0,0,1,.24-.4l4.56-2.86a.5.5,0,0,1,.29-.07l26.06.95a.5.5,0,0,1,.48.45l9.9,108.52a.5.5,0,0,1-.22.46C276.45,296.05,270.36,300,255.82,300ZM233,294.81c1.13.71,7,3.88,20.89,4.21s20.69-3.07,22-3.83l-9.84-107.77-25.47-.93-4.21,2.63Z" style="fill:#263238"></path><path d="M257.94,291.57a.49.49,0,0,1-.47-.34.51.51,0,0,1,.31-.64,46.22,46.22,0,0,0,16.71-10.25.49.49,0,0,1,.7,0,.5.5,0,0,1,0,.71,47.39,47.39,0,0,1-17.11,10.51A.41.41,0,0,1,257.94,291.57Z" style="fill:#263238"></path><path d="M244.6,291a.51.51,0,0,1-.5-.43.5.5,0,0,1,.43-.56,39.44,39.44,0,0,0,3.9-.77.5.5,0,0,1,.61.36.51.51,0,0,1-.37.61c-1.36.34-2.71.6-4,.79Z" style="fill:#263238"></path><path d="M253.34,288.71a.49.49,0,0,1-.47-.32.5.5,0,0,1,.3-.64,77.54,77.54,0,0,0,19.58-11,.5.5,0,1,1,.63.78,78.8,78.8,0,0,1-19.87,11.16A.34.34,0,0,1,253.34,288.71Z" style="fill:#263238"></path><path d="M238.26,187.41l-1.4,126.1a63.43,63.43,0,0,1-16.36-7.23c-9.13-5.51-11.42-7.61-11.42-7.61l7.23-40.77-.57-38.62-35.5,11.51s13.81-24.83,18.57-29.58S236.06,183.89,238.26,187.41Z" style="fill:#E16930"></path><path d="M236.86,314h-.12a64.68,64.68,0,0,1-16.5-7.29c-9.07-5.48-11.4-7.58-11.5-7.67a.5.5,0,0,1-.15-.45l7.23-40.78L215.25,220,180.4,231.27a.5.5,0,0,1-.54-.16.48.48,0,0,1-.06-.56c.57-1,13.9-25,18.65-29.7,4.47-4.47,31.75-15.28,38.58-14.51a2.09,2.09,0,0,1,1.66.81.42.42,0,0,1,.07.27l-1.4,126.1a.51.51,0,0,1-.19.39A.5.5,0,0,1,236.86,314Zm-27.24-15.53a105.13,105.13,0,0,0,11.14,7.38,66.55,66.55,0,0,0,15.6,7l1.4-125.27a1.65,1.65,0,0,0-.84-.26c-6.44-.73-33.51,10-37.76,14.23-4.08,4.08-15.11,23.48-17.86,28.36l34.28-11.12a.52.52,0,0,1,.45.07.49.49,0,0,1,.21.4l.57,38.62Z" style="fill:#263238"></path><path d="M232.07,187.37l-.54,1.28s-2.86,26.63-1.14,35.95c1.16,6.36,4.87,14,7.23,19l.64-56.17C237.73,186.55,235.37,186.66,232.07,187.37Z" style="fill:#E16930"></path><path d="M237.62,244.08a.51.51,0,0,1-.45-.28l-.22-.48c-2.36-4.94-5.91-12.4-7.06-18.62-1.7-9.29,1-35,1.14-36.1a.57.57,0,0,1,0-.14l.54-1.29a.47.47,0,0,1,.35-.29c5.18-1.12,6.32-.38,6.73.27a.42.42,0,0,1,.07.27l-.64,56.17a.49.49,0,0,1-.39.48Zm-5.6-55.3c-.17,1.55-2.78,26.83-1.14,35.73,1,5.51,4,12.08,6.27,16.91l.61-53.83c-.27-.22-1.33-.62-5.33.21Z" style="fill:#263238"></path><path d="M211.34,211.93a.49.49,0,0,1-.45-.3,10.67,10.67,0,0,0-4.16-4.68.5.5,0,0,1-.2-.68.49.49,0,0,1,.67-.2,11.5,11.5,0,0,1,4.6,5.15.5.5,0,0,1-.25.66A.54.54,0,0,1,211.34,211.93Z" style="fill:#263238"></path><path d="M208.28,211.17a.47.47,0,0,1-.28-.09,17.57,17.57,0,0,0-8.06-3,.49.49,0,0,1-.47-.52.5.5,0,0,1,.52-.48,18.28,18.28,0,0,1,8.57,3.15.5.5,0,0,1,.13.7A.49.49,0,0,1,208.28,211.17Z" style="fill:#263238"></path><path d="M215.74,192.45s-1.14,45.09-.57,47.56,1.14,9.52,1.14,9.52L222.4,190S216.88,192.07,215.74,192.45Z" style="fill:#263238"></path><path d="M216.31,250h0a.52.52,0,0,1-.49-.46c0-.07-.57-7-1.13-9.44s.51-45.84.56-47.69a.49.49,0,0,1,.34-.46c1.12-.37,6.58-2.45,6.64-2.47a.52.52,0,0,1,.48.07.5.5,0,0,1,.19.45l-6.08,59.55A.51.51,0,0,1,216.31,250Zm-.08-57.22c-.32,12.78-1,45.13-.58,47.09a45.63,45.63,0,0,1,.67,4.57l5.5-53.74C220.41,191.27,217.45,192.38,216.23,192.81Z" style="fill:#263238"></path><path d="M238.26,187.41s4.05,14.33,7.54,18.36c4.94,5.71,10.65,3.81,14.07-3.8,1.63-3.61,3.05-16.17,3.05-16.17Z" style="fill:#a3a3a3"></path><path d="M251.81,209.59c-2.21,0-4.4-1.19-6.39-3.49-3.53-4.07-7.47-18-7.64-18.55a.51.51,0,0,1,.08-.43.49.49,0,0,1,.37-.21l24.65-1.61a.48.48,0,0,1,.4.15.5.5,0,0,1,.13.4c-.05.52-1.44,12.68-3.08,16.32-1.94,4.31-4.64,6.92-7.62,7.35A5.46,5.46,0,0,1,251.81,209.59Zm-12.89-21.72c.8,2.74,4.27,14.14,7.25,17.57,2,2.34,4.23,3.41,6.39,3.1,2.63-.39,5.07-2.8,6.86-6.78,1.37-3,2.63-12.9,2.93-15.43Z" style="fill:#263238"></path><path d="M262.92,185.8s3,51.93,6.66,73.43,1.89,52,1.89,52,13.9-21.39,16.56-25.77,6.09-10.08,6.09-10.08a19,19,0,0,0-.95-4.38c-1-3.23-4.38-4.94-4.57-5.89s-2.85-45.47-2.85-45.47l39.95,28.92s1.33-.58,5.7-2.67,5.9-8.75,5.33-10.27-30.44-31.58-43.18-39.19-30.82-12.37-30.82-12.37Z" style="fill:#E16930"></path><path d="M271.47,311.75l-.16,0a.51.51,0,0,1-.34-.5c0-.31,1.68-30.71-1.89-51.91s-6.6-72.4-6.66-73.47l-.19-1.7a.5.5,0,0,1,.62-.54c.19.05,18.29,4.86,30.95,12.42s42.78,37.79,43.4,39.44c.72,1.91-1.11,8.76-5.58,10.9S326,249,325.89,249a.51.51,0,0,1-.49-.05l-39.09-28.3c.93,15.54,2.63,43.42,2.78,44.35a5.25,5.25,0,0,0,1.06,1.1,10.79,10.79,0,0,1,3.5,4.75,19.18,19.18,0,0,1,1,4.52.59.59,0,0,1-.07.26s-3.43,5.71-6.09,10.08S272,311.3,271.89,311.52A.5.5,0,0,1,271.47,311.75Zm-8.16-127,.1,1v0c0,.52,3.08,52.15,6.65,73.38,3.07,18.27,2.28,43.32,2,50.27,3.24-5,13.33-20.57,15.54-24.2,2.43-4,5.48-9.07,6-10a22.28,22.28,0,0,0-.92-4.11,9.77,9.77,0,0,0-3.21-4.28c-.76-.69-1.27-1.15-1.37-1.66-.19-1-2.59-41-2.86-45.53a.5.5,0,0,1,.79-.44L325.76,248c.56-.25,2.14-1,5.43-2.54,4.15-2,5.54-8.41,5.07-9.65-.93-1.85-30.53-31.5-43-38.93C282.17,190.24,266.76,185.73,263.31,184.76Z" style="fill:#263238"></path><path d="M276.53,276.46a.49.49,0,0,1-.48-.36.5.5,0,0,1,.34-.62c6.31-1.89,11.06-8.7,11.1-8.77a.5.5,0,0,1,.83.56c-.2.3-5,7.17-11.65,9.17Z" style="fill:#263238"></path><path d="M279.59,269.46a.49.49,0,0,1-.49-.44.5.5,0,0,1,.43-.56c5.13-.59,6-1.54,6-1.55a.5.5,0,0,1,.68-.15.53.53,0,0,1,.16.71c-.19.3-1.22,1.35-6.72,2Z" style="fill:#263238"></path><path d="M288.56,220.23a.44.44,0,0,1-.16,0,.51.51,0,0,1-.31-.64l4.38-12.47a.5.5,0,0,1,.63-.31.51.51,0,0,1,.31.64L289,219.9A.48.48,0,0,1,288.56,220.23Z" style="fill:#263238"></path><path d="M290.09,221.55a.5.5,0,0,1-.26-.08.49.49,0,0,1-.16-.68A24.43,24.43,0,0,1,300,212.06a.5.5,0,1,1,.4.91,23.89,23.89,0,0,0-9.84,8.34A.52.52,0,0,1,290.09,221.55Z" style="fill:#263238"></path><path d="M302.35,212.14a.5.5,0,0,1-.31-.9c.94-.7,4-1.11,4.62-1.19a.51.51,0,0,1,.56.43.5.5,0,0,1-.44.56,14.23,14.23,0,0,0-4.13,1A.51.51,0,0,1,302.35,212.14Z" style="fill:#263238"></path><path d="M267.33,241.77a87.56,87.56,0,0,0,7-17.36c2.67-9.89-2.09-25.49-4.18-32.72-.73-2.52-1.28-4.45-1.71-5.92-3.46-1.09-5.71-1.69-5.71-1.69l.19,1.72S264.78,217.63,267.33,241.77Z" style="fill:#E16930"></path><path d="M267.33,242.27h-.1a.51.51,0,0,1-.4-.44c-2.52-23.87-4.39-55.68-4.41-56l-.19-1.69a.5.5,0,0,1,.62-.54s2.31.61,5.74,1.7a.5.5,0,0,1,.33.33c.25.84.53,1.82.86,3l1.1,3.8c2.28,7.86,6.53,22.48,3.94,32.12A87.59,87.59,0,0,1,267.77,242,.5.5,0,0,1,267.33,242.27Zm-4-57.51.1,1c0,.34,1.82,30.68,4.24,54.32a84.75,84.75,0,0,0,6.2-15.78c2.52-9.37-1.84-24.37-3.93-31.58l-1.1-3.81c-.3-1-.56-1.94-.78-2.72C265.87,185.49,264.19,185,263.31,184.76Z" style="fill:#263238"></path><path d="M278.71,189l9.13,60.69s1.52-9.13,1.9-11.8-4.37-45.66-4.37-45.66Z" style="fill:#263238"></path><path d="M287.84,250.22h0a.52.52,0,0,1-.5-.43l-9.13-60.69a.51.51,0,0,1,.72-.52l6.65,3.23a.51.51,0,0,1,.28.4c.2,1.76,4.76,43.09,4.38,45.78s-1.89,11.72-1.91,11.81A.5.5,0,0,1,287.84,250.22Zm-8.5-60.33,8.52,56.62c.48-2.9,1.15-7,1.39-8.66.29-2-2.7-30.33-4.35-45.26Z" style="fill:#263238"></path><path d="M267.57,167.46s4.25-1.7,4.46,2.33-5.09,9.77-5.09,9.77Z" style="fill:#a3a3a3"></path><path d="M266.94,180.06a.45.45,0,0,1-.2,0,.49.49,0,0,1-.3-.48l.63-12.11a.54.54,0,0,1,.32-.44c.09,0,2.3-.9,3.82.07a3.18,3.18,0,0,1,1.32,2.71c.22,4.2-5,9.89-5.23,10.13A.46.46,0,0,1,266.94,180.06Zm1.12-12.24-.55,10.3c1.48-1.83,4.17-5.54,4-8.3a2.21,2.21,0,0,0-.86-1.91A3.44,3.44,0,0,0,268.06,167.82Z" style="fill:#263238"></path><path d="M241,139.64S231.47,144.1,230,151.1s2.34,19.12,2.34,19.12-3.83-2.34-4.89,1.49,1.7,7.85,3.4,8.49a7.16,7.16,0,0,0,3.61.21l3.82,8.71s12.32,8.5,16.57,7.65,9.35-6.8,11.26-9.35,2.33-28.25,2.55-31.64-1.28-10.84-6.16-14.23S245.91,136,241,139.64Z" style="fill:#a3a3a3"></path><path d="M254.2,197.32c-4.86,0-15.74-7.45-16.22-7.79a.39.39,0,0,1-.17-.21L234.14,181a7.31,7.31,0,0,1-3.48-.3c-1.94-.73-4.83-5.07-3.71-9.1a3.23,3.23,0,0,1,1.87-2.35,3.94,3.94,0,0,1,2.7.09c-.89-3.14-3.28-12.39-2-18.31,1.49-7,10.47-11.41,11.28-11.8,5.18-3.77,17-1.54,22,1.94,5.28,3.67,6.58,11.47,6.37,14.67,0,.64-.08,2.08-.15,4-.44,13.35-1.05,26-2.49,27.9-.65.87-6.52,8.53-11.56,9.54A4.15,4.15,0,0,1,254.2,197.32Zm-15.53-8.53c3.47,2.38,12.79,8.13,16.06,7.49,4.68-.94,10.33-8.32,11-9.16,1.45-1.94,2-19.74,2.29-27.34.07-1.94.12-3.39.16-4,.18-2.9-1.07-10.4-5.95-13.79-4.66-3.25-16.11-5.44-20.87-1.92l-.08.05c-.1,0-9.35,4.44-10.77,11.12s2.29,18.74,2.32,18.86a.48.48,0,0,1-.16.54.52.52,0,0,1-.57,0,3.9,3.9,0,0,0-2.88-.5,2.3,2.3,0,0,0-1.26,1.69c-1,3.67,1.71,7.38,3.09,7.89a6.75,6.75,0,0,0,3.32.2.5.5,0,0,1,.57.28ZM241,139.64h0Z" style="fill:#263238"></path><path d="M259.3,168.6a.48.48,0,0,1-.33-.13.5.5,0,0,1,0-.7,5.23,5.23,0,0,1,3.37-1.66,4.68,4.68,0,0,1,3.43,1.44.5.5,0,0,1,0,.7.5.5,0,0,1-.71,0,3.71,3.71,0,0,0-2.7-1.16,4.33,4.33,0,0,0-2.67,1.32A.52.52,0,0,1,259.3,168.6Z" style="fill:#263238"></path><path d="M262.48,141.55c-4.89-3.4-16.57-5.53-21.45-1.91,0,0-9.56,4.46-11.05,11.46s2.34,19.12,2.34,19.12l0,0c.71.82,1.51,1.44,1.73.44.42-1.91-.22-4.88-.43-8.28s1.28-3,1.49-7.43-.43-7.44,3.4-10.41,8.92,1.49,14,2.12,8.92-3.82,11.26-2.12,3.82,5.31,3.61,9.35-.42,4,.43,7.43c.22.87.4,1.6.57,2.21.13-3.75.21-6.73.28-7.73C268.85,152.38,267.36,144.94,262.48,141.55Z" style="fill:#263238"></path><path d="M233.57,171.66c-.47,0-1-.36-1.66-1.13a.54.54,0,0,1-.12-.33c-.48-1.58-3.71-12.52-2.3-19.2,1.52-7.17,10.92-11.63,11.32-11.82,5.08-3.76,16.95-1.53,21.95,2,5.28,3.67,6.58,11.47,6.37,14.67,0,.64-.08,2.08-.15,4l-.12,3.71a.5.5,0,0,1-1,.11c-.16-.61-.35-1.34-.57-2.22a14,14,0,0,1-.54-5.87c0-.48.07-1,.1-1.71.2-3.77-1.14-7.27-3.4-8.92-.92-.66-2.29-.07-4,.69-1.91.83-4.28,1.87-7,1.53a23.57,23.57,0,0,1-5.49-1.65c-3.18-1.24-5.92-2.32-8.16-.58-3,2.37-3.08,4.63-3.14,8.05,0,.63,0,1.29-.06,2a10.91,10.91,0,0,1-1,4.3,5.68,5.68,0,0,0-.54,3.08c.07,1.12.19,2.18.3,3.2a18,18,0,0,1,.12,5.22,1,1,0,0,1-.72.88A.83.83,0,0,1,233.57,171.66Zm-.8-1.67a2.74,2.74,0,0,0,.73.64l0-.09a17,17,0,0,0-.14-4.9c-.11-1-.23-2.11-.3-3.25a6.68,6.68,0,0,1,.62-3.53,9.87,9.87,0,0,0,.87-4c0-.69,0-1.34.06-2,.06-3.44.11-6.16,3.53-8.81,2.69-2.1,6-.81,9.13.43a23,23,0,0,0,5.26,1.59c2.44.3,4.58-.63,6.47-1.46s3.63-1.58,5-.57a7.17,7.17,0,0,1,1.25,1.16,11.57,11.57,0,0,0-3.11-3.32h0c-4.66-3.25-16.1-5.44-20.87-1.92-.18.09-9.43,4.49-10.85,11.17C229.09,157.72,232.45,169,232.77,170Zm35.08-17.91a15.59,15.59,0,0,1,0,1.81c0,.67-.07,1.24-.1,1.72A11.93,11.93,0,0,0,268,160v-.16c.07-1.95.12-3.4.16-4A16.41,16.41,0,0,0,267.85,152.08Z" style="fill:#263238"></path><path d="M245.69,168.36c.18,1.39-.24,2.6-.94,2.69s-1.41-1-1.59-2.37.24-2.6.94-2.69S245.51,167,245.69,168.36Z" style="fill:#263238"></path><path d="M253.33,179.17a4.14,4.14,0,0,1-.72,0,2,2,0,0,1-1.62-1,.49.49,0,0,1,.22-.67.5.5,0,0,1,.67.22,1.11,1.11,0,0,0,.89.49,7.78,7.78,0,0,0,5.32-1.68c.64-.65-.32-2.73-1.1-4.41a13.42,13.42,0,0,1-1.38-3.9c-.23-2.77,3-5.61,3.14-5.73a.5.5,0,1,1,.66.75s-3,2.63-2.81,4.89a13.1,13.1,0,0,0,1.3,3.57c1.05,2.26,2,4.4.9,5.54A8.93,8.93,0,0,1,253.33,179.17Z" style="fill:#263238"></path><path d="M254.3,183.32a11.69,11.69,0,0,1-6.54-1.85.51.51,0,0,1-.14-.7.5.5,0,0,1,.69-.14c4.22,2.81,9.51,1.23,9.56,1.22a.5.5,0,0,1,.29,1A13.93,13.93,0,0,1,254.3,183.32Z" style="fill:#263238"></path><path d="M240.39,164.56a.52.52,0,0,1-.38-.17.51.51,0,0,1,.05-.71c.15-.13,3.69-3.15,9.22-.93a.5.5,0,1,1-.37.92c-4.94-2-8.06.65-8.19.77A.52.52,0,0,1,240.39,164.56Z" style="fill:#263238"></path><path d="M266.51,164.77a.49.49,0,0,1-.41-.22h0a5.12,5.12,0,0,0-4.84-1.9.5.5,0,0,1-.55-.44.49.49,0,0,1,.43-.56,6.12,6.12,0,0,1,5.79,2.34.51.51,0,0,1-.14.7A.57.57,0,0,1,266.51,164.77Z" style="fill:#263238"></path><path d="M226.77,220l-.26,0a2,2,0,0,1-1.72-2.25L229,186.29a2,2,0,1,1,4,.53l-4.19,31.39A2,2,0,0,1,226.77,220Z" style="fill:#263238"></path><circle cx="233.08" cy="167.94" r="18.8" transform="translate(-6.29 326.78) rotate(-69.34)" style="fill:#263238"></circle><path d="M233.08,187.24a19.31,19.31,0,1,1,19.3-19.3A19.33,19.33,0,0,1,233.08,187.24Zm0-37.61a18.31,18.31,0,1,0,18.3,18.31A18.34,18.34,0,0,0,233.08,149.63Z" style="fill:#263238"></path><circle cx="233.08" cy="167.94" r="16.05" transform="translate(-32.53 58.48) rotate(-13.38)" style="fill:#d4d4d4"></circle><path d="M233.08,184.49a16.55,16.55,0,1,1,16.55-16.55A16.58,16.58,0,0,1,233.08,184.49Zm0-32.1a15.55,15.55,0,1,0,15.55,15.55A15.57,15.57,0,0,0,233.08,152.39Z" style="fill:#263238"></path><path d="M235.9,168.36c0,2.91-1.42,5.27-3.18,5.27s-3.19-2.36-3.19-5.27,1.43-5.28,3.19-5.28S235.9,165.44,235.9,168.36Z" style="fill:#263238"></path><path d="M242.77,156s-4-3.74-9.06-3.76-10,4-10.57,5.63.25.37,3.1-1,7.4-1.86,8.85-1.43,4.61,3.48,6.52,2.66S242.77,156,242.77,156Z" style="fill:#263238"></path><path d="M230.53,177.32a.51.51,0,0,1-.48-.35.51.51,0,0,1,.33-.63,20.26,20.26,0,0,0,6.2-3.29.5.5,0,0,1,.64.76,20.49,20.49,0,0,1-6.54,3.48A.4.4,0,0,1,230.53,177.32Z" style="fill:#263238"></path><path d="M219.54,208.24S222,196.07,223,195.12a20.8,20.8,0,0,1,7-3.05c1.14,0,5.7,3.05,6.08,3.81s-1,3.42-1,3.42-.57,9.71-.95,10.28a14.71,14.71,0,0,1-2.28,1.9,16.88,16.88,0,0,0-3.24,2.28,29,29,0,0,1-7,4c-1.91.76-6.28,5.89-6.28,5.89l-3.81-11Z" style="fill:#a3a3a3"></path><path d="M215.36,224.15h-.1a.53.53,0,0,1-.38-.33l-3.8-11a.5.5,0,0,1,.23-.6l7.79-4.26c.64-3.13,2.56-12.2,3.51-13.16s6.06-3.19,7.4-3.19,6.05,3.12,6.53,4.08-.45,2.87-.9,3.78c-.27,4.47-.66,9.86-1,10.42a13.17,13.17,0,0,1-2.42,2,16.68,16.68,0,0,0-3.18,2.24,29.73,29.73,0,0,1-7.19,4.09c-1.46.59-4.89,4.36-6.08,5.76A.52.52,0,0,1,215.36,224.15Zm-3.2-11.29,3.39,9.81c1.29-1.46,4.3-4.74,5.9-5.38a28.41,28.41,0,0,0,6.89-3.9,17.09,17.09,0,0,1,3.34-2.36,13.3,13.3,0,0,0,2.1-1.73c.2-.51.6-5.56.86-10a.7.7,0,0,1,.06-.19,7.22,7.22,0,0,0,1-3c-.39-.69-4.73-3.53-5.64-3.53a21.16,21.16,0,0,0-6.69,2.9c-.54.61-2.1,7-3.29,12.87a.49.49,0,0,1-.25.34Zm7.38-4.62h0Z" style="fill:#263238"></path><path d="M235.14,199.8a.47.47,0,0,1-.25-.07l-4.19-2.47a.5.5,0,0,1,.51-.86l4.19,2.47a.5.5,0,0,1-.26.93Z" style="fill:#263238"></path><path d="M183.17,229.6l28.38-17,4.8,14.44s-20.82,18.14-25.57,22.71-10.85,6.08-14.08,5.51-4.57-3.61-4-8.37,7.4-16.63,8.36-17.58" style="fill:#E16930"></path><path d="M178.11,255.9a8.77,8.77,0,0,1-1.5-.12c-3.46-.61-5-3.78-4.4-8.93.58-4.87,7.47-16.86,8.49-17.88a.5.5,0,1,1,.71.71c-1,1-7.66,12.73-8.21,17.29-.39,3.21-.08,7.18,3.58,7.82,3.3.58,9.19-1.11,13.65-5.38s23-20.43,25.35-22.51l-4.5-13.53L183.42,230a.5.5,0,0,1-.51-.86l28.39-17a.5.5,0,0,1,.43,0,.51.51,0,0,1,.3.31l4.8,14.44a.51.51,0,0,1-.15.54c-.21.18-20.87,18.18-25.56,22.69C187,254.05,181.74,255.9,178.11,255.9Z" style="fill:#263238"></path><path d="M318.47,233.17,293.17,271l10.42,9.23s31.05-33.39,33-35.67,3-6.28,2.28-8.37-11-8.37-11-8.37" style="fill:#E16930"></path><path d="M303.59,280.75a.5.5,0,0,1-.33-.12l-10.43-9.23a.51.51,0,0,1-.08-.65l25.3-37.86a.51.51,0,0,1,.7-.14.49.49,0,0,1,.13.69l-25.06,37.5,9.74,8.62c3.35-3.61,30.83-33.18,32.6-35.3s2.88-6,2.19-7.88c-.51-1.4-6.91-5.72-10.82-8.11a.5.5,0,1,1,.52-.86c1.07.65,10.45,6.43,11.24,8.63s-.29,6.37-2.37,8.86c-1.88,2.27-31.69,34.33-33,35.7A.51.51,0,0,1,303.59,280.75Z" style="fill:#263238"></path><path d="M293.17,271s-10.09,6.47-11.8,7.42-.57,6.28-.19,7.23A41.83,41.83,0,0,0,284.6,291c.77.95,2.67,2.66,3.24,2.66s4-.57,4.75-1.33,1.72-2.66,1.53-3.23-2.1.19-2.1.19,6.28-5.71,7.61-8.56l1.34-2.86Z" style="fill:#a3a3a3"></path><path d="M287.84,294.16c-.94,0-3.08-2.16-3.63-2.85a41.66,41.66,0,0,1-3.49-5.45c-.25-.61-1.83-6.61.41-7.86,1.68-.93,11.67-7.33,11.77-7.4a.5.5,0,0,1,.6,0l7.8,6.85a.5.5,0,0,1,.12.58l-1.33,2.86c-1,2.1-4.43,5.58-6.38,7.45a1.13,1.13,0,0,1,.47.09.77.77,0,0,1,.41.46c.3.89-.92,3-1.64,3.74C292,293.61,288.39,294.16,287.84,294.16Zm5.28-22.51c-1.76,1.12-9.95,6.37-11.51,7.23-1.22.68-.47,5.34,0,6.61a41.41,41.41,0,0,0,3.35,5.2,10.46,10.46,0,0,0,2.86,2.47c.54,0,3.79-.59,4.38-1.18a6.31,6.31,0,0,0,1.4-2.6,5.36,5.36,0,0,0-1.43.37.5.5,0,0,1-.52-.83c.06-.06,6.22-5.68,7.49-8.41l1.17-2.51Z" style="fill:#263238"></path></g></svg>
