<svg width="148" height="148" viewBox="0 0 148 148" fill="none" xmlns="http://www.w3.org/2000/svg">
<g filter="url(#filter0_dd_3_304)">
<rect x="6" y="6" width="128" height="128" rx="20" fill="#F5F5F5"/>
<rect x="8.5" y="8.5" width="123" height="123" rx="17.5" stroke="url(#paint0_linear_3_304)" stroke-width="5"/>
</g>
<path fill-rule="evenodd" clip-rule="evenodd" d="M88.7797 53.4469C90.0336 57.0742 90.9367 60.7773 91.2336 64.6156C91.6023 69.3773 91.4336 74.1055 90.4297 78.7891C90.4023 78.918 90.3445 79.0391 90.3016 79.1641C89.9867 79.1648 89.6656 79.1258 89.3578 79.1734C86.757 79.582 84.1586 80.0055 81.5601 80.4266C78.8742 80.8617 76.1844 81.2797 73.5031 81.7445C72.5531 81.9086 71.3773 81.7125 70.9937 83.0266C70.9828 83.0625 70.8734 83.0687 70.8101 83.0891L70.9398 75.2367C70.8953 68.9211 70.8516 62.6055 70.8078 56.2898L72.0594 56.075C74.1062 55.7398 76.1531 55.4 78.2016 55.0742C80.6461 54.6859 83.093 54.3086 85.5391 53.9297C86.618 53.7617 87.6984 53.6078 88.7797 53.4469Z" fill="#439934"/>
<path fill-rule="evenodd" clip-rule="evenodd" d="M68.2258 105.98C66.9055 104.845 65.5391 103.759 64.2734 102.566C57.4633 96.1422 52.482 88.582 50.0289 79.4672C49.3531 76.9586 48.9023 74.4094 48.7578 71.8172C48.6563 70.0031 48.5094 68.1727 48.6375 66.368C48.9789 61.568 49.6727 56.8141 51.0805 52.1906L51.1578 52.0828C51.2945 52.2648 51.4914 52.4258 51.5609 52.6313C52.9352 56.6781 54.2992 60.7281 55.6563 64.7805C59.9203 77.5148 64.1789 90.2523 68.45 102.984C68.5336 103.232 68.75 103.436 68.9055 103.66L68.2258 105.98Z" fill="#45A538"/>
<path fill-rule="evenodd" clip-rule="evenodd" d="M88.7797 53.4469C87.6984 53.6078 86.6172 53.7617 85.5383 53.9281C83.0922 54.307 80.6453 54.6844 78.2008 55.0727C76.1523 55.3984 74.1054 55.7383 72.0586 56.0734L70.807 56.2883L70.7976 55.4719C70.7562 54.8008 70.6851 54.1305 70.6773 53.4594C70.6234 49.1797 70.5898 44.9 70.5367 40.6203C70.5039 37.9414 70.4547 35.2633 70.4 32.5852C70.3664 30.9211 70.3304 29.2562 70.2554 27.5945C70.2148 26.7016 70.0711 25.8133 70.0125 24.9203C69.9797 24.407 70.025 23.8898 70.0351 23.3742C70.6734 24.6109 71.2976 25.857 71.9539 27.0844C72.9906 29.025 74.6422 30.4547 76.1289 32.0148C82.0062 38.1805 86.1789 45.3492 88.7797 53.4469Z" fill="#46A037"/>
<path fill-rule="evenodd" clip-rule="evenodd" d="M70.8094 83.0883C70.8727 83.068 70.9828 83.0617 70.993 83.0258C71.3766 81.7117 72.5523 81.9078 73.5023 81.7437C76.1836 81.2797 78.8734 80.8609 81.5594 80.4258C84.1578 80.0047 86.7562 79.5812 89.357 79.1727C89.6648 79.1242 89.9859 79.1641 90.3008 79.1633C89.8148 80.8977 89.432 82.6695 88.8156 84.3562C88.1156 86.2695 87.2688 88.1367 86.3695 89.9672C85.0258 92.7039 83.3516 95.2562 81.4062 97.5945C79.907 99.3977 78.2359 101.064 76.5609 102.71C75.6352 103.62 74.5437 104.362 73.5281 105.18L73.2648 105L72.3164 104.189L71.3352 102.038C70.6594 99.5203 70.3047 96.957 70.2461 94.3523L70.2641 93.9141L70.3977 92.0187C70.4422 91.3719 70.5016 90.7258 70.5289 90.0773C70.6297 87.7477 70.7172 85.418 70.8094 83.0883Z" fill="#409433"/>
<path fill-rule="evenodd" clip-rule="evenodd" d="M70.8094 83.0883C70.7172 85.418 70.6297 87.7477 70.5305 90.0781C70.5031 90.7266 70.4437 91.3727 70.3992 92.0195L69.8015 92.2453C68.4742 88.3375 67.1461 84.4711 65.8469 80.5945C63.6984 74.1812 61.5758 67.7578 59.4305 61.343C57.6984 56.1648 55.9523 50.9922 54.1961 45.8219C54.1141 45.5797 53.8781 45.3906 53.7141 45.1766L57.5391 38.1438C57.6703 38.3719 57.8437 38.5852 57.9266 38.8305C59.6961 44.0672 61.4625 49.3047 63.2141 54.5477C65.4922 61.368 67.7562 68.1938 70.0328 75.0148C70.1234 75.2875 70.2734 75.5391 70.4164 75.8445L70.9398 75.2352C70.8961 77.8531 70.8523 80.4703 70.8094 83.0883Z" fill="#4FAA41"/>
<path fill-rule="evenodd" clip-rule="evenodd" d="M53.7148 45.1773C53.8789 45.3914 54.114 45.5805 54.1969 45.8227C55.9531 50.993 57.6992 56.1656 59.4312 61.3437C61.5765 67.7586 63.6992 74.182 65.8476 80.5953C67.1461 84.4711 68.4742 88.3383 69.8023 92.2461L70.4 92.0203L70.2664 93.9156L70.1453 94.3523C69.9375 96.4273 69.7625 98.507 69.5094 100.577C69.382 101.615 69.1117 102.634 68.9062 103.661C68.7515 103.437 68.5343 103.233 68.4508 102.984C64.1797 90.2523 59.9211 77.5156 55.657 64.7813C54.3 60.7289 52.9359 56.6789 51.5617 52.632C51.4922 52.4266 51.2961 52.2656 51.1586 52.0836C52.0101 49.7813 52.8625 47.4789 53.7148 45.1773Z" fill="#4AA73C"/>
<path fill-rule="evenodd" clip-rule="evenodd" d="M70.9391 75.2359L70.4156 75.8453C70.2726 75.5398 70.1226 75.2875 70.032 75.0156C67.7562 68.1945 65.4914 61.3687 63.2133 54.5484C61.4617 49.3055 59.6953 44.068 57.9258 38.8312C57.8437 38.5859 57.6703 38.3719 57.5383 38.1445L62.2687 31.9219C62.418 32.1211 62.6305 32.2984 62.7078 32.5227C64.0211 36.3672 65.3226 40.2164 66.6164 44.068C67.825 47.6648 69.0156 51.2672 70.2383 54.8594C70.3203 55.1 70.6055 55.2703 70.7961 55.4734L70.8055 56.2898C70.8508 62.6039 70.8953 68.9203 70.9391 75.2359Z" fill="#57AE47"/>
<path fill-rule="evenodd" clip-rule="evenodd" d="M70.7977 55.4719C70.607 55.2687 70.3219 55.0984 70.2399 54.8578C69.0172 51.2656 67.8266 47.6633 66.618 44.0664C65.3242 40.2148 64.0227 36.3664 62.7094 32.5211C62.632 32.2969 62.4195 32.1195 62.2703 31.9203C63.8086 30.4141 65.2992 28.8539 66.8992 27.4172C68.3219 26.1406 69.4656 24.7719 69.518 22.7547C69.5203 22.6711 69.5641 22.5875 69.6313 22.3531L70.0367 23.3734C70.0266 23.8898 69.9805 24.4062 70.0141 24.9195C70.0727 25.8125 70.2164 26.7008 70.257 27.5938C70.332 29.2555 70.368 30.9203 70.4016 32.5844C70.4555 35.2625 70.5047 37.9406 70.5383 40.6195C70.5906 44.8992 70.625 49.1789 70.6789 53.4586C70.6852 54.1312 70.7555 54.8008 70.7977 55.4719Z" fill="#60B24F"/>
<path fill-rule="evenodd" clip-rule="evenodd" d="M68.9047 103.66C69.1101 102.633 69.3804 101.613 69.5078 100.577C69.7617 98.507 69.9359 96.4266 70.1437 94.3516L70.1953 94.3438L70.2469 94.3523C70.3054 96.957 70.6601 99.5203 71.3359 102.038C71.1984 102.22 71.0039 102.381 70.9312 102.586C70.3633 104.187 69.8281 105.802 69.257 107.403C69.1789 107.622 68.9617 107.792 68.8086 107.984L68.225 105.98L68.9047 103.66Z" fill="#A9AA88"/>
<path fill-rule="evenodd" clip-rule="evenodd" d="M68.8094 107.985C68.9625 107.793 69.1805 107.623 69.2578 107.404C69.8289 105.802 70.3649 104.189 70.932 102.587C71.0047 102.382 71.1984 102.22 71.3367 102.039L72.3172 104.191C72.1235 104.466 71.8563 104.713 71.7484 105.02L69.8703 110.534C69.793 110.755 69.5289 110.912 69.3524 111.098L68.8094 107.985Z" fill="#B6B598"/>
<path fill-rule="evenodd" clip-rule="evenodd" d="M69.3524 111.098C69.5297 110.912 69.793 110.755 69.8703 110.534L71.7484 105.019C71.8555 104.713 72.1235 104.465 72.3172 104.19L73.2664 105C72.8078 105.453 72.5531 105.977 72.7063 106.638L72.418 107.582C72.2867 107.744 72.0969 107.884 72.032 108.07C71.3766 109.947 70.7508 111.834 70.0906 113.712C70.007 113.95 69.775 114.137 69.6109 114.346C69.5258 113.262 69.4391 112.181 69.3524 111.098Z" fill="#C2C1A7"/>
<path fill-rule="evenodd" clip-rule="evenodd" d="M69.6117 114.346C69.775 114.136 70.007 113.949 70.0914 113.712C70.7516 111.835 71.3774 109.948 72.0328 108.07C72.0977 107.885 72.2867 107.744 72.4188 107.582L72.0211 111.914C71.9149 112.037 71.7609 112.144 71.7102 112.287C71.2609 113.548 70.8375 114.818 70.3867 116.079C70.2938 116.339 70.1156 116.569 69.9766 116.812C69.8531 116.65 69.632 116.494 69.6219 116.325C69.582 115.668 69.6094 115.006 69.6117 114.346Z" fill="#CECDB7"/>
<path fill-rule="evenodd" clip-rule="evenodd" d="M69.9758 116.812C70.1148 116.568 70.293 116.338 70.3859 116.079C70.8375 114.819 71.2601 113.548 71.7094 112.287C71.7601 112.144 71.9148 112.038 72.0203 111.914L72.0297 114.758L71.0781 117.198L69.9758 116.812Z" fill="#DBDAC7"/>
<path fill-rule="evenodd" clip-rule="evenodd" d="M71.0781 117.199L72.0297 114.759L72.2258 117.646L71.0781 117.199Z" fill="#EBE9DC"/>
<path fill-rule="evenodd" clip-rule="evenodd" d="M72.7063 106.639C72.5531 105.977 72.8071 105.453 73.2664 105.001L73.5297 105.18L72.7063 106.639Z" fill="#CECDB7"/>
<path fill-rule="evenodd" clip-rule="evenodd" d="M70.2469 94.3531L70.1953 94.3445L70.1437 94.3523L70.2648 93.9156L70.2469 94.3531Z" fill="#4FAA41"/>
<defs>
<filter id="filter0_dd_3_304" x="0" y="0" width="148" height="148" filterUnits="userSpaceOnUse" color-interpolation-filters="sRGB">
<feFlood flood-opacity="0" result="BackgroundImageFix"/>
<feColorMatrix in="SourceAlpha" type="matrix" values="0 0 0 0 0 0 0 0 0 0 0 0 0 0 0 0 0 0 127 0" result="hardAlpha"/>
<feOffset dx="4" dy="4"/>
<feGaussianBlur stdDeviation="5"/>
<feComposite in2="hardAlpha" operator="out"/>
<feColorMatrix type="matrix" values="0 0 0 0 0 0 0 0 0 0 0 0 0 0 0 0 0 0 1 0"/>
<feBlend mode="normal" in2="BackgroundImageFix" result="effect1_dropShadow_3_304"/>
<feColorMatrix in="SourceAlpha" type="matrix" values="0 0 0 0 0 0 0 0 0 0 0 0 0 0 0 0 0 0 127 0" result="hardAlpha"/>
<feOffset dy="4"/>
<feGaussianBlur stdDeviation="2"/>
<feComposite in2="hardAlpha" operator="out"/>
<feColorMatrix type="matrix" values="0 0 0 0 0 0 0 0 0 0 0 0 0 0 0 0 0 0 0.25 0"/>
<feBlend mode="normal" in2="effect1_dropShadow_3_304" result="effect2_dropShadow_3_304"/>
<feBlend mode="normal" in="SourceGraphic" in2="effect2_dropShadow_3_304" result="shape"/>
</filter>
<linearGradient id="paint0_linear_3_304" x1="-13.0588" y1="-13.7143" x2="178.885" y2="117.157" gradientUnits="userSpaceOnUse">
<stop offset="0.34375" stop-color="#472010" stop-opacity="0.67"/>
<stop offset="0.723958" stop-color="#472010"/>
</linearGradient>
</defs>
</svg>
