<svg width="148" height="148" viewBox="0 0 148 148" fill="none" xmlns="http://www.w3.org/2000/svg">
<g filter="url(#filter0_dd_3_306)">
<rect x="6" y="6" width="128" height="128" rx="20" fill="#F5F5F5"/>
<rect x="8.5" y="8.5" width="123" height="123" rx="17.5" stroke="url(#paint0_linear_3_306)" stroke-width="5"/>
</g>
<g clip-path="url(#clip0_3_306)">
<path d="M69.4356 119.711C69.0972 119.711 68.7812 119.564 68.4877 119.307L65.4859 116.399C65.0344 115.994 65.2602 115.847 65.3957 115.773C66.005 115.442 66.1179 115.368 66.7498 114.78C66.8176 114.706 66.908 114.743 66.9756 114.816L69.2778 117.061C69.368 117.135 69.4809 117.135 69.5485 117.061L78.5541 108.559C78.6443 108.485 78.6896 108.338 78.6896 108.154V91.186C78.6896 91.0016 78.6443 90.8548 78.5541 90.7809L69.5485 82.3153C69.4582 82.2414 69.3454 82.2414 69.2778 82.3153L60.2722 90.7809C60.1819 90.8545 60.1366 91.0385 60.1366 91.1857V108.154C60.1366 108.301 60.1819 108.485 60.2722 108.559L62.7324 110.878C64.064 111.982 64.8991 110.694 64.8991 109.405V92.658C64.8991 92.4373 65.012 92.2162 65.1699 92.2162H66.321C66.4565 92.2162 66.5918 92.4003 66.5918 92.658V109.405C66.5918 112.313 65.6213 114.006 63.9285 114.006C63.4094 114.006 63.0032 114.006 61.852 113.086L59.4822 110.878C58.8954 110.326 58.5343 109.295 58.5343 108.191V91.2226C58.5343 90.1185 58.8954 89.0876 59.4822 88.5357L68.4877 80.0331C69.052 79.5178 69.8195 79.5178 70.3837 80.0331L79.3892 88.5357C79.976 89.0876 80.3373 90.1185 80.3373 91.2226V108.191C80.3373 109.295 79.976 110.326 79.3892 110.878L70.3837 119.38C70.0902 119.601 69.7516 119.711 69.4356 119.711ZM72.2118 108.044C68.2621 108.044 67.4495 105.099 67.4495 102.596C67.4495 102.375 67.5624 102.154 67.7204 102.154H68.8941C69.0294 102.154 69.1423 102.302 69.1423 102.523C69.3229 104.473 69.842 105.43 72.2344 105.43C74.1303 105.43 74.9431 104.731 74.9431 103.075C74.9431 102.118 74.7171 101.418 71.7605 100.94C69.3003 100.535 67.7655 99.6516 67.7655 96.4494C67.7655 93.4678 69.3005 91.701 71.8734 91.701C74.7622 91.701 76.1843 93.3207 76.3649 96.8538C76.3649 96.9646 76.3423 97.0748 76.2972 97.1853C76.2519 97.2589 76.1843 97.3325 76.1165 97.3325H74.9429C74.83 97.3325 74.7171 97.1853 74.6947 97.0013C74.4238 94.9771 73.7241 94.3143 71.8734 94.3143C69.7969 94.3143 69.5485 95.4924 69.5485 96.3755C69.5485 97.443 69.842 97.7742 72.6406 98.3631C75.4168 98.9522 76.726 99.7987 76.726 102.964C76.7034 106.203 75.0784 108.044 72.2118 108.044Z" fill="#539E43"/>
<path d="M41.4936 53.3477C41.4936 52.6853 41.2679 52.0592 40.9068 51.728L31.337 42.7471C31.1788 42.5997 30.9983 42.5261 30.8179 42.4892H30.7275C30.547 42.4892 30.3664 42.5997 30.2084 42.7471L20.6386 51.728C20.2773 52.0592 20.0517 52.685 20.0517 53.3477L20.0744 77.4933C20.0744 77.8245 20.1873 78.1557 20.3677 78.3032C20.5483 78.4872 20.7739 78.4872 20.9321 78.3032L26.6198 73.0028C26.9809 72.6716 27.2066 72.0458 27.2066 71.3834V60.0834C27.2066 59.421 27.4322 58.7952 27.7935 58.464L30.2084 56.1818C30.389 55.9977 30.5921 55.9239 30.7952 55.9239C30.9983 55.9239 31.2014 55.9977 31.3596 56.1818L33.7745 58.464C34.1358 58.7952 34.3614 59.4207 34.3614 60.0834V71.3834C34.3614 72.0458 34.5871 72.6716 34.9482 73.0028L40.6359 78.3032C40.8166 78.4872 41.0421 78.4872 41.2227 78.3032C41.4034 78.1557 41.5163 77.8245 41.5163 77.4933L41.4936 53.3477ZM87.492 20.1105C87.3116 19.963 87.0858 19.963 86.9276 20.1105C86.7472 20.2946 86.6343 20.5888 86.6343 20.92V44.8452C86.6343 45.0659 86.5667 45.2866 86.4312 45.4341C86.2959 45.5442 86.1603 45.5442 86.025 45.4341L83.6326 43.1888C83.4572 43.026 83.2588 42.9403 83.057 42.9403C82.8551 42.9403 82.6567 43.026 82.4813 43.1888L72.9115 52.2067C72.5504 52.5379 72.3247 53.1637 72.3247 53.8261V71.8248C72.3247 72.4872 72.5504 73.1133 72.9115 73.4446L82.4813 82.4624C82.6567 82.6253 82.8551 82.7109 83.057 82.7109C83.2588 82.7109 83.4572 82.6253 83.6326 82.4624L93.2024 73.4446C93.5635 73.1133 93.7892 72.4876 93.7892 71.8248V26.9567C93.7892 26.2573 93.5635 25.6318 93.2024 25.3003L87.492 20.1105ZM86.6119 65.899C86.6119 66.0831 86.5667 66.2302 86.4763 66.3038L83.2037 69.3955C83.158 69.4319 83.1078 69.4508 83.057 69.4508C83.0061 69.4508 82.9559 69.4319 82.9102 69.3955L79.6376 66.3038C79.5472 66.2302 79.5021 66.0462 79.5021 65.899V59.7153C79.5021 59.5312 79.5472 59.3841 79.6376 59.3105L82.9102 56.2184C82.9559 56.1821 83.0061 56.1632 83.057 56.1632C83.1078 56.1632 83.158 56.1821 83.2037 56.2184L86.4763 59.3105C86.5667 59.3837 86.6119 59.5681 86.6119 59.7153V65.899ZM119.339 59.5681C119.7 59.2369 119.903 58.6111 119.903 57.9484V53.5684C119.903 52.906 119.677 52.2802 119.339 51.949L109.837 42.9681C109.661 42.8053 109.463 42.7197 109.261 42.7197C109.059 42.7197 108.861 42.8053 108.686 42.9681L99.1159 51.9856C98.7546 52.3169 98.529 52.9427 98.529 53.6054V71.6041C98.529 72.2665 98.7546 72.8923 99.1159 73.2235L108.618 82.0573C108.979 82.3885 109.408 82.3885 109.746 82.0573L115.502 76.8312C115.682 76.6837 115.795 76.3525 115.795 76.0213C115.795 75.6901 115.682 75.3589 115.502 75.2114L105.887 66.1936C105.706 66.0098 105.594 65.7153 105.594 65.3841V59.7525C105.594 59.4213 105.706 59.0901 105.887 58.9427L108.889 56.1452C108.977 56.055 109.078 56.0072 109.182 56.0072C109.286 56.0072 109.388 56.055 109.476 56.1452L112.477 58.9427C112.658 59.1267 112.771 59.421 112.771 59.7525V64.1694C112.771 64.5006 112.884 64.8318 113.064 64.979C113.245 65.163 113.47 65.163 113.651 64.979L119.339 59.5681Z" fill="#333333"/>
<path d="M109.115 58.7217C109.148 58.6857 109.187 58.6665 109.227 58.6665C109.267 58.6665 109.307 58.6857 109.34 58.7217L111.168 60.4516C111.236 60.5248 111.281 60.6354 111.281 60.7828V64.2427C111.281 64.3898 111.236 64.5003 111.168 64.5739L109.34 66.3038C109.307 66.3398 109.267 66.3589 109.227 66.3589C109.187 66.3589 109.148 66.3398 109.115 66.3038L107.286 64.5739C107.218 64.5003 107.173 64.3898 107.173 64.2427V60.7828C107.173 60.6354 107.218 60.5248 107.286 60.4516L109.115 58.7217Z" fill="#539E43"/>
<path d="M57.496 43.0417C57.3206 42.8789 57.1223 42.7933 56.9205 42.7933C56.7187 42.7933 56.5203 42.8789 56.345 43.0417L46.8429 51.9853C46.4816 52.3166 46.2785 52.9424 46.2785 53.6048V71.5303C46.2785 72.1927 46.5043 72.8185 46.8429 73.1497L56.345 82.0939C56.5203 82.2568 56.7187 82.3424 56.9205 82.3424C57.1223 82.3424 57.3206 82.2568 57.496 82.0939L66.9982 73.1497C67.3593 72.8185 67.5626 72.1927 67.5626 71.5303V53.6051C67.5626 52.9427 67.3367 52.3169 66.9982 51.9857L57.496 43.0417Z" fill="url(#paint1_linear_3_306)"/>
</g>
<defs>
<filter id="filter0_dd_3_306" x="0" y="0" width="148" height="148" filterUnits="userSpaceOnUse" color-interpolation-filters="sRGB">
<feFlood flood-opacity="0" result="BackgroundImageFix"/>
<feColorMatrix in="SourceAlpha" type="matrix" values="0 0 0 0 0 0 0 0 0 0 0 0 0 0 0 0 0 0 127 0" result="hardAlpha"/>
<feOffset dx="4" dy="4"/>
<feGaussianBlur stdDeviation="5"/>
<feComposite in2="hardAlpha" operator="out"/>
<feColorMatrix type="matrix" values="0 0 0 0 0 0 0 0 0 0 0 0 0 0 0 0 0 0 1 0"/>
<feBlend mode="normal" in2="BackgroundImageFix" result="effect1_dropShadow_3_306"/>
<feColorMatrix in="SourceAlpha" type="matrix" values="0 0 0 0 0 0 0 0 0 0 0 0 0 0 0 0 0 0 127 0" result="hardAlpha"/>
<feOffset dy="4"/>
<feGaussianBlur stdDeviation="2"/>
<feComposite in2="hardAlpha" operator="out"/>
<feColorMatrix type="matrix" values="0 0 0 0 0 0 0 0 0 0 0 0 0 0 0 0 0 0 0.25 0"/>
<feBlend mode="normal" in2="effect1_dropShadow_3_306" result="effect2_dropShadow_3_306"/>
<feBlend mode="normal" in="SourceGraphic" in2="effect2_dropShadow_3_306" result="shape"/>
</filter>
<linearGradient id="paint0_linear_3_306" x1="-13.0588" y1="-13.7143" x2="178.885" y2="117.157" gradientUnits="userSpaceOnUse">
<stop offset="0.34375" stop-color="#472010" stop-opacity="0.67"/>
<stop offset="0.723958" stop-color="#472010"/>
</linearGradient>
<linearGradient id="paint1_linear_3_306" x1="1497.6" y1="734.388" x2="-376.004" y2="2539.64" gradientUnits="userSpaceOnUse">
<stop stop-color="#41873F"/>
<stop offset="0.3288" stop-color="#418B3D"/>
<stop offset="0.6352" stop-color="#419637"/>
<stop offset="0.9319" stop-color="#3FA92D"/>
<stop offset="1" stop-color="#3FAE2A"/>
</linearGradient>
<clipPath id="clip0_3_306">
<rect width="100" height="100" fill="white" transform="translate(20 20)"/>
</clipPath>
</defs>
</svg>
