<svg width="148" height="148" viewBox="0 0 148 148" fill="none" xmlns="http://www.w3.org/2000/svg">
<g filter="url(#filter0_dd_3_295)">
<rect x="6" y="6" width="128" height="128" rx="20" fill="#F5F5F5"/>
<rect x="8.5" y="8.5" width="123" height="123" rx="17.5" stroke="url(#paint0_linear_3_295)" stroke-width="5"/>
</g>
<path fill-rule="evenodd" clip-rule="evenodd" d="M35.625 95.7031V89.375C35.625 88.5156 36.1719 87.8906 37.0312 87.8906H37.2656C38.125 87.8906 38.6719 88.5938 38.6719 89.375V102.656C38.6719 105.859 37.1094 108.438 34.2969 110.078C32.9687 110.859 31.5625 111.25 30.0781 111.25H29.4531C26.25 111.25 23.6719 109.687 22.0312 106.875C21.25 105.547 20.8594 104.141 20.8594 102.656V102.031C20.8594 98.8281 22.4219 96.25 25.2344 94.6094C26.5625 93.8281 27.9688 93.4375 29.4531 93.4375H30.0781C32.1875 93.5156 34.0625 94.2969 35.625 95.7031ZM23.8281 102.344C23.8281 104.688 25 106.406 27.0313 107.578C27.8906 108.047 28.75 108.281 29.6875 108.281C31.9531 108.281 33.6719 107.188 34.8437 105.234C35.3906 104.297 35.625 103.359 35.625 102.266C35.625 100.234 34.6875 98.6719 33.0469 97.5C32.0313 96.7969 30.9375 96.4063 29.7656 96.4063C27.2656 96.4063 25.4687 97.6563 24.375 99.9219C23.9844 100.703 23.8281 101.563 23.8281 102.344ZM48.9844 93.5156H49.375C52.8125 93.5156 55.4688 95.1562 57.1094 98.2031C57.8125 99.375 58.125 100.703 58.125 102.109V102.734C58.125 105.938 56.5625 108.516 53.75 110.156C52.4219 110.938 51.0156 111.328 49.5313 111.328H48.9063C45.7031 111.328 43.125 109.766 41.4844 106.953C40.7031 105.625 40.3125 104.219 40.3125 102.734V102.109C40.3125 98.9063 41.9531 96.3281 44.6875 94.6875C46.0156 93.8281 47.5 93.5156 48.9844 93.5156ZM43.3594 102.344C43.3594 104.609 44.4531 106.25 46.4063 107.422C47.3438 107.969 48.2813 108.203 49.375 108.203C51.6406 108.203 53.2812 107.031 54.4531 105.156C55 104.219 55.2344 103.281 55.2344 102.187C55.2344 100.078 54.2188 98.4375 52.5 97.2656C51.5625 96.6406 50.4687 96.3281 49.375 96.3281C46.875 96.3281 45.0781 97.5781 43.9844 99.8437C43.5156 100.703 43.3594 101.563 43.3594 102.344ZM70.5469 96.7187C70.0781 96.4844 69.2188 96.4063 68.75 96.4063C66.25 96.3281 64.4531 97.7344 63.3594 99.9219C62.9688 100.703 62.8125 101.484 62.8125 102.344C62.8125 104.922 64.1406 106.719 66.4063 107.813C67.2656 108.203 68.2813 108.281 69.2188 108.281C70 108.281 71.1719 107.813 71.875 107.422L72.0312 107.344H72.6563C73.3594 107.5 73.8281 107.891 73.8281 108.672V108.984C73.8281 110.781 70.4688 111.25 69.2188 111.328C64.7656 111.641 61.4063 109.219 60.1563 104.922C59.9219 104.219 59.8438 103.438 59.8438 102.656V102.031C59.8438 98.8281 61.4844 96.25 64.2188 94.6094C65.5469 93.8281 66.9531 93.4375 68.4375 93.4375H69.0625C70.625 93.4375 72.1094 93.9062 73.4375 94.7656L73.5156 94.8438L73.5938 94.9219C73.75 95.1563 73.8281 95.3906 73.8281 95.7031V96.0156C73.8281 96.7969 73.2813 97.1875 72.5781 97.3438H72.3438C71.9531 97.3438 70.9375 96.875 70.5469 96.7187ZM80.2344 98.75C81.4062 97.5781 82.5781 96.4063 83.75 95.3125C84.0625 95 85.3125 93.6719 85.7812 93.6719H86.4063C87.1094 93.8281 87.5781 94.2188 87.5781 95V95.3125C87.5781 95.7813 87.0313 96.4062 86.6406 96.7187L84.5312 98.8281L80.9375 102.5C82.5 104.062 84.0625 105.625 85.5469 107.188L86.7969 108.516C86.9531 108.672 87.1875 108.828 87.2656 109.063C87.4219 109.297 87.5 109.531 87.5 109.766V110.156C87.3438 110.859 86.875 111.406 86.1719 111.406H85.9375C85.4688 111.406 84.9219 110.859 84.5312 110.547C83.8281 109.922 83.125 109.219 82.5 108.516L80.2344 106.25V109.844C80.2344 110.703 79.6875 111.328 78.8281 111.328H78.5938C77.7344 111.328 77.1875 110.625 77.1875 109.844V89.4531C77.1875 88.5938 77.7344 87.9688 78.5938 87.9688H78.8281C79.6875 87.9688 80.2344 88.5938 80.2344 89.4531V98.75ZM117.422 93.5937H117.734C118.594 93.5937 119.219 94.2187 119.219 95.0781C119.219 96.3281 118.047 96.6406 117.031 96.6406C115.703 96.6406 114.375 97.4219 113.516 98.3594C112.344 99.5313 111.875 100.937 111.875 102.578V109.766C111.875 110.625 111.328 111.25 110.469 111.25H110.234C109.375 111.25 108.828 110.547 108.828 109.766V102.109C108.828 99.1406 110.234 96.7969 112.656 95.0781C114.062 94.1406 115.703 93.5937 117.422 93.5937ZM96.25 107.891C97.3437 108.281 98.5938 108.203 99.6875 108.047C100.234 107.812 101.719 107.187 102.266 107.266H102.422C102.734 107.422 103.047 107.656 103.203 107.969C103.594 108.75 103.438 109.531 102.656 110L102.422 110.156C99.6094 111.797 96.5625 111.562 93.75 110C92.4219 109.297 91.4063 108.203 90.625 106.875L90.4687 106.563C88.6719 103.438 88.9063 100.078 90.9375 97.1094C91.6406 96.0937 92.5781 95.3125 93.6719 94.6875L94.0625 94.4531C96.7188 92.8906 99.6094 93.0469 102.344 94.375C103.828 95.0781 105 96.1719 105.859 97.5781L106.016 97.8125C106.641 98.8281 105.859 99.7656 105.078 100.391C104.141 101.094 103.203 101.953 102.344 102.734C100.234 104.453 98.2031 106.172 96.25 107.891ZM93.6719 106.094L100.313 100.391C101.094 99.7656 101.875 99.0625 102.656 98.3594C102.031 97.5781 101.016 97.0312 100.234 96.7187C98.5156 96.0937 96.7969 96.25 95.2344 97.1875C93.2031 98.3594 92.2656 100.313 92.3438 102.656C92.3438 103.594 92.6562 104.453 93.125 105.312C93.2813 105.625 93.4375 105.859 93.6719 106.094ZM77.5781 46.3281H86.4063V55.3125H90.8594C92.8906 55.3125 95 54.9219 96.9531 54.2969C97.8906 53.9844 98.9844 53.5156 99.9219 52.9688C98.6719 51.3281 98.0469 49.2969 97.8906 47.2656C97.6562 44.5313 98.2031 40.9375 100.078 38.8281L101.016 37.7344L102.109 38.5937C104.922 40.8594 107.187 43.9063 107.656 47.5C111.016 46.4844 114.922 46.7188 117.891 48.4375L119.063 49.1406L118.438 50.3906C115.938 55.2344 110.703 56.7969 105.625 56.4844C97.9687 75.4687 81.4062 84.4531 61.25 84.4531C50.8594 84.4531 41.3281 80.5469 35.8594 71.3281L35.7813 71.1719L35 69.5313C33.125 65.4688 32.5781 61.0156 32.9688 56.5625L33.125 55.2344H40.625V46.3281H49.4531V37.5H67.0313V28.6719H77.5781V46.3281Z" fill="#3A4D54"/>
<path d="M106.094 49.6094C106.719 45 103.281 41.4063 101.094 39.6875C98.6719 42.5 98.2813 50 102.109 53.125C99.9219 55 95.4688 56.7969 90.7813 56.7969H34.375C33.9063 61.6406 34.7656 66.0938 36.7188 69.9219L37.3438 71.0938C37.7344 71.7969 38.2031 72.4219 38.6719 73.125C41.0156 73.2813 43.125 73.3594 45.0781 73.2812C48.9063 73.2031 52.0313 72.7344 54.4531 71.9531C54.8438 71.7969 55.1563 72.0313 55.3125 72.3438C55.4688 72.7344 55.2344 73.0469 54.9219 73.2031C54.6094 73.2813 54.2969 73.4375 53.9063 73.5156C52.0313 74.0625 50 74.375 47.4219 74.5313H46.9531C45.9375 74.6094 44.8438 74.6094 43.6719 74.6094C42.4219 74.6094 41.25 74.6094 39.8438 74.5313C44.5313 79.8438 51.875 82.9688 61.0938 82.9688C80.625 82.9688 97.1875 74.2969 104.453 54.9219C109.688 55.4688 114.688 54.1406 116.953 49.6875C113.438 47.6563 108.75 48.2813 106.094 49.6094Z" fill="#00AADA"/>
<path d="M106.094 49.6094C106.719 45 103.281 41.4063 101.094 39.6875C98.6719 42.5 98.2813 50 102.109 53.125C99.9219 55 95.4688 56.7969 90.7813 56.7969H37.6563C37.4219 64.2187 40.1563 69.8437 45.0781 73.2031C48.9063 73.125 52.0313 72.6563 54.4531 71.875C54.8438 71.7188 55.1563 71.9531 55.3125 72.2656C55.4688 72.6563 55.2344 72.9687 54.9219 73.125C54.6094 73.2031 54.2969 73.3594 53.9063 73.4375C52.0313 73.9844 49.8438 74.375 47.2656 74.5313L47.1875 74.4531C53.8281 77.8906 63.4375 77.8125 74.5313 73.5937C86.875 68.8281 98.4375 59.7656 106.484 49.4531C106.328 49.5313 106.25 49.6094 106.094 49.6094Z" fill="#28B8EB"/>
<path d="M34.4531 62.6562C34.7656 65.2344 35.5469 67.6563 36.7187 69.9219L37.3438 71.0938C37.7344 71.7969 38.2031 72.4219 38.6719 73.125C41.0156 73.2813 43.125 73.3594 45.0781 73.2812C48.9062 73.2031 52.0312 72.7344 54.4531 71.9531C54.8437 71.7969 55.1563 72.0313 55.3125 72.3438C55.4688 72.7344 55.2344 73.0469 54.9219 73.2031C54.6094 73.2813 54.2969 73.4375 53.9063 73.5156C52.0313 74.0625 49.8438 74.4531 47.2656 74.6094H46.9531C45.9375 74.6875 44.8437 74.6875 43.75 74.6875C42.5 74.6875 41.25 74.6875 39.9219 74.6094C44.6094 79.9219 52.0312 83.0469 61.25 83.0469C77.9687 83.0469 92.5 76.7188 100.937 62.7344H34.4531V62.6562Z" fill="#028BB8"/>
<path d="M38.2031 62.6562C39.2187 67.1875 41.5625 70.7813 45.0781 73.2031C48.9062 73.125 52.0312 72.6563 54.4531 71.875C54.8437 71.7188 55.1563 71.9531 55.3125 72.2656C55.4688 72.6563 55.2344 72.9688 54.9219 73.125C54.6094 73.2031 54.2969 73.3594 53.9063 73.4375C52.0313 73.9844 49.8438 74.375 47.1875 74.5313C53.8281 77.9688 63.4375 77.8906 74.4531 73.6719C81.0937 71.0937 87.5781 67.2656 93.3594 62.6562H38.2031Z" fill="#019BC6"/>
<path fill-rule="evenodd" clip-rule="evenodd" d="M42.0312 47.7344H49.6875V55.3906H42.0312V47.7344ZM42.6562 48.4375H43.2812V54.7656H42.6562V48.4375ZM43.8281 48.4375H44.4531V54.7656H43.8281V48.4375ZM45 48.4375H45.625V54.7656H45V48.4375ZM46.0938 48.4375H46.7187V54.7656H46.0938V48.4375ZM47.2656 48.4375H47.8906V54.7656H47.2656V48.4375ZM48.4375 48.4375H49.0625V54.7656H48.4375V48.4375ZM50.8594 38.9844H58.5156V46.5625H50.8594V38.9844ZM51.4844 39.6094H52.1094V45.9375H51.4844V39.6094ZM52.6562 39.6094H53.2812V45.9375H52.6562V39.6094ZM53.75 39.6094H54.375V45.9375H53.75V39.6094ZM54.9219 39.6094H55.5469V45.9375H54.9219V39.6094ZM56.0937 39.6094H56.7187V45.9375H56.0937V39.6094ZM57.2656 39.6094H57.8906V45.9375H57.2656V39.6094Z" fill="#00ACD3"/>
<path fill-rule="evenodd" clip-rule="evenodd" d="M50.8594 47.7344H58.5156V55.3906H50.8594V47.7344ZM51.4844 48.4375H52.1094V54.7656H51.4844V48.4375ZM52.6562 48.4375H53.2812V54.7656H52.6562V48.4375ZM53.75 48.4375H54.375V54.7656H53.75V48.4375ZM54.9219 48.4375H55.5469V54.7656H54.9219V48.4375ZM56.0938 48.4375H56.7188V54.7656H56.0938V48.4375ZM57.2656 48.4375H57.8906V54.7656H57.2656V48.4375Z" fill="#23C2EE"/>
<path fill-rule="evenodd" clip-rule="evenodd" d="M59.6875 47.7344H67.3437V55.3906H59.6875V47.7344ZM60.3125 48.4375H60.9375V54.7656H60.3125V48.4375ZM61.4063 48.4375H62.0312V54.7656H61.4063V48.4375ZM62.5781 48.4375H63.2031V54.7656H62.5781V48.4375ZM63.75 48.4375H64.375V54.7656H63.75V48.4375ZM64.9219 48.4375H65.5469V54.7656H64.9219V48.4375ZM66.0156 48.4375H66.6406V54.7656H66.0156V48.4375Z" fill="#00ACD3"/>
<path fill-rule="evenodd" clip-rule="evenodd" d="M59.6875 38.9844H67.3437V46.5625H59.6875V38.9844ZM60.3125 39.6094H60.9375V45.9375H60.3125V39.6094ZM61.4063 39.6094H62.0313V45.9375H61.4063V39.6094ZM62.5781 39.6094H63.2031V45.9375H62.5781V39.6094ZM63.75 39.6094H64.375V45.9375H63.75V39.6094ZM64.9219 39.6094H65.5469V45.9375H64.9219V39.6094ZM66.0156 39.6094H66.6406V45.9375H66.0156V39.6094ZM68.4375 47.7344H76.0938V55.3906H68.4375V47.7344ZM69.1406 48.4375H69.7656V54.7656H69.1406V48.4375ZM70.2344 48.4375H70.8594V54.7656H70.2344V48.4375ZM71.4063 48.4375H72.0313V54.7656H71.4063V48.4375ZM72.5781 48.4375H73.2031V54.7656H72.5781V48.4375ZM73.6719 48.4375H74.2969V54.7656H73.6719V48.4375ZM74.8437 48.4375H75.4688V54.7656H74.8437V48.4375Z" fill="#23C2EE"/>
<path fill-rule="evenodd" clip-rule="evenodd" d="M68.4375 38.9844H76.0938V46.5625H68.4375V38.9844ZM69.1406 39.6094H69.7656V45.9375H69.1406V39.6094ZM70.2344 39.6094H70.8594V45.9375H70.2344V39.6094ZM71.4063 39.6094H72.0312V45.9375H71.4063V39.6094ZM72.5781 39.6094H73.2031V45.9375H72.5781V39.6094ZM73.6719 39.6094H74.2969V45.9375H73.6719V39.6094ZM74.8437 39.6094H75.4688V45.9375H74.8437V39.6094Z" fill="#00ACD3"/>
<path fill-rule="evenodd" clip-rule="evenodd" d="M68.4375 30.1562H76.0938V37.8125H68.4375V30.1562ZM69.1406 30.7813H69.7656V37.1875H69.1406V30.7813ZM70.2344 30.7813H70.8594V37.1875H70.2344V30.7813ZM71.4063 30.7813H72.0312V37.1875H71.4063V30.7813ZM72.5781 30.7813H73.2031V37.1875H72.5781V30.7813ZM73.6719 30.7813H74.2969V37.1875H73.6719V30.7813ZM74.8437 30.7813H75.4688V37.1875H74.8437V30.7813Z" fill="#23C2EE"/>
<path fill-rule="evenodd" clip-rule="evenodd" d="M77.2656 47.7344H84.9219V55.3906H77.2656V47.7344ZM77.8906 48.4375H78.5156V54.7656H77.8906V48.4375ZM79.0625 48.4375H79.6875V54.7656H79.0625V48.4375ZM80.2344 48.4375H80.8594V54.7656H80.2344V48.4375ZM81.3281 48.4375H81.9531V54.7656H81.3281V48.4375ZM82.5 48.4375H83.125V54.7656H82.5V48.4375ZM83.6719 48.4375H84.2969V54.7656H83.6719V48.4375Z" fill="#00ACD3"/>
<path fill-rule="evenodd" clip-rule="evenodd" d="M57.9687 67.8125C59.1406 67.8125 60.0781 68.75 60.0781 69.9219C60.0781 71.0938 59.1406 72.0312 57.9687 72.0312C56.7969 72.0312 55.8594 71.0938 55.8594 69.9219C55.9375 68.75 56.875 67.8125 57.9687 67.8125Z" fill="#D4EEF1"/>
<path fill-rule="evenodd" clip-rule="evenodd" d="M57.9687 68.3594C58.125 68.3594 58.3594 68.3594 58.5156 68.4375C58.3594 68.5156 58.2031 68.75 58.2031 68.9844C58.2031 69.2969 58.5156 69.6094 58.8281 69.6094C59.0625 69.6094 59.2969 69.4531 59.375 69.2969C59.4531 69.4531 59.4531 69.6875 59.4531 69.8437C59.4531 70.7031 58.75 71.3281 57.9687 71.3281C57.1094 71.3281 56.4844 70.625 56.4844 69.8437C56.4844 69.0625 57.1875 68.3594 57.9687 68.3594ZM20.7812 63.4375H118.672C116.563 62.8906 111.953 62.1875 112.656 59.375C108.75 63.8281 99.4531 62.5 97.0312 60.3125C94.375 64.1406 79.0625 62.6562 78.0469 59.6875C74.7656 63.5937 64.5312 63.5937 61.25 59.6875C60.1562 62.6562 44.8437 64.1406 42.2656 60.3125C39.9219 62.5 30.5469 63.8281 26.6406 59.375C27.5 62.1094 22.8906 62.8906 20.7812 63.4375Z" fill="#3A4D54"/>
<path d="M63.5937 82.9687C58.3594 80.4687 55.5469 77.1094 53.9063 73.4375C51.9531 73.9844 49.6094 74.375 46.9531 74.5313C45.9375 74.6094 44.8437 74.6094 43.75 74.6094C42.4219 74.6094 41.0937 74.6094 39.6875 74.5313C44.4531 79.2969 50.3906 82.9687 61.25 83.0469C62.0312 82.9687 62.8125 82.9687 63.5937 82.9687Z" fill="#BFDBE0"/>
<path d="M55.8594 76.7969C55.1563 75.7812 54.4531 74.6094 53.9063 73.4375C51.9531 73.9844 49.6094 74.375 46.9531 74.5313C48.8281 75.5469 51.4844 76.4844 55.8594 76.7969Z" fill="#D4EEF1"/>
<defs>
<filter id="filter0_dd_3_295" x="0" y="0" width="148" height="148" filterUnits="userSpaceOnUse" color-interpolation-filters="sRGB">
<feFlood flood-opacity="0" result="BackgroundImageFix"/>
<feColorMatrix in="SourceAlpha" type="matrix" values="0 0 0 0 0 0 0 0 0 0 0 0 0 0 0 0 0 0 127 0" result="hardAlpha"/>
<feOffset dx="4" dy="4"/>
<feGaussianBlur stdDeviation="5"/>
<feComposite in2="hardAlpha" operator="out"/>
<feColorMatrix type="matrix" values="0 0 0 0 0 0 0 0 0 0 0 0 0 0 0 0 0 0 1 0"/>
<feBlend mode="normal" in2="BackgroundImageFix" result="effect1_dropShadow_3_295"/>
<feColorMatrix in="SourceAlpha" type="matrix" values="0 0 0 0 0 0 0 0 0 0 0 0 0 0 0 0 0 0 127 0" result="hardAlpha"/>
<feOffset dy="4"/>
<feGaussianBlur stdDeviation="2"/>
<feComposite in2="hardAlpha" operator="out"/>
<feColorMatrix type="matrix" values="0 0 0 0 0 0 0 0 0 0 0 0 0 0 0 0 0 0 0.25 0"/>
<feBlend mode="normal" in2="effect1_dropShadow_3_295" result="effect2_dropShadow_3_295"/>
<feBlend mode="normal" in="SourceGraphic" in2="effect2_dropShadow_3_295" result="shape"/>
</filter>
<linearGradient id="paint0_linear_3_295" x1="-13.0588" y1="-13.7143" x2="178.885" y2="117.157" gradientUnits="userSpaceOnUse">
<stop offset="0.34375" stop-color="#472010" stop-opacity="0.67"/>
<stop offset="0.723958" stop-color="#472010"/>
</linearGradient>
</defs>
</svg>
